%TF.GenerationSoftware,KiCad,Pcbnew,9.0.2*%
%TF.CreationDate,2025-06-17T12:36:06-07:00*%
%TF.ProjectId,controller,636f6e74-726f-46c6-9c65-722e6b696361,rev?*%
%TF.SameCoordinates,Original*%
%TF.FileFunction,Copper,L1,Top*%
%TF.FilePolarity,Positive*%
%FSLAX46Y46*%
G04 Gerber Fmt 4.6, Leading zero omitted, Abs format (unit mm)*
G04 Created by KiCad (PCBNEW 9.0.2) date 2025-06-17 12:36:06*
%MOMM*%
%LPD*%
G01*
G04 APERTURE LIST*
G04 Aperture macros list*
%AMRoundRect*
0 Rectangle with rounded corners*
0 $1 Rounding radius*
0 $2 $3 $4 $5 $6 $7 $8 $9 X,Y pos of 4 corners*
0 Add a 4 corners polygon primitive as box body*
4,1,4,$2,$3,$4,$5,$6,$7,$8,$9,$2,$3,0*
0 Add four circle primitives for the rounded corners*
1,1,$1+$1,$2,$3*
1,1,$1+$1,$4,$5*
1,1,$1+$1,$6,$7*
1,1,$1+$1,$8,$9*
0 Add four rect primitives between the rounded corners*
20,1,$1+$1,$2,$3,$4,$5,0*
20,1,$1+$1,$4,$5,$6,$7,0*
20,1,$1+$1,$6,$7,$8,$9,0*
20,1,$1+$1,$8,$9,$2,$3,0*%
G04 Aperture macros list end*
%TA.AperFunction,ComponentPad*%
%ADD10C,1.600000*%
%TD*%
%TA.AperFunction,ComponentPad*%
%ADD11R,6.750000X6.000000*%
%TD*%
%TA.AperFunction,SMDPad,CuDef*%
%ADD12R,1.000000X0.700000*%
%TD*%
%TA.AperFunction,SMDPad,CuDef*%
%ADD13R,0.600000X0.700000*%
%TD*%
%TA.AperFunction,ComponentPad*%
%ADD14C,2.000000*%
%TD*%
%TA.AperFunction,SMDPad,CuDef*%
%ADD15RoundRect,0.137500X-0.600000X-0.137500X0.600000X-0.137500X0.600000X0.137500X-0.600000X0.137500X0*%
%TD*%
%TA.AperFunction,SMDPad,CuDef*%
%ADD16RoundRect,0.137500X-0.137500X-0.600000X0.137500X-0.600000X0.137500X0.600000X-0.137500X0.600000X0*%
%TD*%
%TA.AperFunction,ComponentPad*%
%ADD17R,1.800000X1.800000*%
%TD*%
%TA.AperFunction,ComponentPad*%
%ADD18C,1.800000*%
%TD*%
%TA.AperFunction,ComponentPad*%
%ADD19C,1.500000*%
%TD*%
%TA.AperFunction,SMDPad,CuDef*%
%ADD20R,0.600000X2.450000*%
%TD*%
%TA.AperFunction,SMDPad,CuDef*%
%ADD21R,0.300000X2.450000*%
%TD*%
%TA.AperFunction,ComponentPad*%
%ADD22O,1.000000X2.100000*%
%TD*%
%TA.AperFunction,ComponentPad*%
%ADD23O,1.000000X1.600000*%
%TD*%
%TA.AperFunction,ViaPad*%
%ADD24C,0.800000*%
%TD*%
%TA.AperFunction,Conductor*%
%ADD25C,0.381000*%
%TD*%
%TA.AperFunction,Conductor*%
%ADD26C,0.254000*%
%TD*%
%TA.AperFunction,Conductor*%
%ADD27C,0.200000*%
%TD*%
G04 APERTURE END LIST*
D10*
X126000000Y-97500000D03*
X131000000Y-97500000D03*
X169000000Y-101750000D03*
X161815795Y-94565795D03*
X127000000Y-102500000D03*
X132000000Y-102500000D03*
D11*
X105125000Y-80000000D03*
D10*
X118920000Y-87000000D03*
X129080000Y-87000000D03*
D12*
X120750000Y-81000000D03*
D13*
X119050000Y-81000000D03*
X119050000Y-83000000D03*
X120950000Y-83000000D03*
D14*
X172500000Y-89250000D03*
X179000000Y-89250000D03*
X172500000Y-93750000D03*
X179000000Y-93750000D03*
D10*
X134065000Y-80730000D03*
X123905000Y-80730000D03*
X127900000Y-84000000D03*
X132900000Y-84000000D03*
D15*
X139037500Y-81000000D03*
X139037500Y-81800000D03*
X139037500Y-82600000D03*
X139037500Y-83400000D03*
X139037500Y-84200000D03*
X139037500Y-85000000D03*
X139037500Y-85800000D03*
X139037500Y-86600000D03*
X139037500Y-87400000D03*
X139037500Y-88200000D03*
X139037500Y-89000000D03*
X139037500Y-89800000D03*
X139037500Y-90600000D03*
X139037500Y-91400000D03*
X139037500Y-92200000D03*
X139037500Y-93000000D03*
D16*
X140700000Y-94662500D03*
X141500000Y-94662500D03*
X142300000Y-94662500D03*
X143100000Y-94662500D03*
X143900000Y-94662500D03*
X144700000Y-94662500D03*
X145500000Y-94662500D03*
X146300000Y-94662500D03*
X147100000Y-94662500D03*
X147900000Y-94662500D03*
X148700000Y-94662500D03*
X149500000Y-94662500D03*
X150300000Y-94662500D03*
X151100000Y-94662500D03*
X151900000Y-94662500D03*
X152700000Y-94662500D03*
D15*
X154362500Y-93000000D03*
X154362500Y-92200000D03*
X154362500Y-91400000D03*
X154362500Y-90600000D03*
X154362500Y-89800000D03*
X154362500Y-89000000D03*
X154362500Y-88200000D03*
X154362500Y-87400000D03*
X154362500Y-86600000D03*
X154362500Y-85800000D03*
X154362500Y-85000000D03*
X154362500Y-84200000D03*
X154362500Y-83400000D03*
X154362500Y-82600000D03*
X154362500Y-81800000D03*
X154362500Y-81000000D03*
D16*
X152700000Y-79337500D03*
X151900000Y-79337500D03*
X151100000Y-79337500D03*
X150300000Y-79337500D03*
X149500000Y-79337500D03*
X148700000Y-79337500D03*
X147900000Y-79337500D03*
X147100000Y-79337500D03*
X146300000Y-79337500D03*
X145500000Y-79337500D03*
X144700000Y-79337500D03*
X143900000Y-79337500D03*
X143100000Y-79337500D03*
X142300000Y-79337500D03*
X141500000Y-79337500D03*
X140700000Y-79337500D03*
D17*
X173000000Y-100000000D03*
D18*
X175540000Y-100000000D03*
D10*
X127500000Y-90000000D03*
X132500000Y-90000000D03*
D19*
X148190000Y-100250000D03*
X143310000Y-100250000D03*
D10*
X168700000Y-86420000D03*
X168700000Y-96580000D03*
D17*
X154000000Y-100000000D03*
D18*
X156540000Y-100000000D03*
D10*
X122800000Y-92430000D03*
X122800000Y-102590000D03*
X127500000Y-94050000D03*
X132500000Y-94050000D03*
X177500000Y-83800000D03*
X167340000Y-83800000D03*
D20*
X105525000Y-98205000D03*
X106300000Y-98205000D03*
D21*
X107000000Y-98205000D03*
X107500000Y-98205000D03*
X108000000Y-98205000D03*
X108500000Y-98205000D03*
X109000000Y-98205000D03*
X109500000Y-98205000D03*
X110000000Y-98205000D03*
X110500000Y-98205000D03*
D20*
X111200000Y-98205000D03*
X111975000Y-98205000D03*
D22*
X104430000Y-99620000D03*
D23*
X104430000Y-103800000D03*
D22*
X113070000Y-99620000D03*
D23*
X113070000Y-103800000D03*
D10*
X103500000Y-95000000D03*
X103500000Y-84840000D03*
X115750000Y-90000000D03*
X115750000Y-79840000D03*
D17*
X135000000Y-100000000D03*
D18*
X137540000Y-100000000D03*
D10*
X117500000Y-92500000D03*
X117500000Y-103230000D03*
X170000000Y-80750000D03*
X180160000Y-80750000D03*
X160000000Y-102500000D03*
X165000000Y-102500000D03*
X135500000Y-87000000D03*
X135500000Y-92000000D03*
D24*
X148250000Y-84000000D03*
X115125000Y-97000000D03*
X139750000Y-97795000D03*
X141500000Y-81400000D03*
X113075000Y-88700000D03*
X150300000Y-88600000D03*
X137915000Y-78905000D03*
X136432500Y-80432500D03*
X137200000Y-83499000D03*
X119000000Y-84700000D03*
X113675000Y-81750000D03*
X146800000Y-90375000D03*
X161666667Y-88333333D03*
X164566667Y-90233333D03*
X144500000Y-87750000D03*
X163600000Y-89600000D03*
X143100000Y-92000000D03*
X110500000Y-76500000D03*
X144500000Y-86500000D03*
X145750000Y-84000000D03*
X156000000Y-81750000D03*
X159733333Y-87066667D03*
X157800000Y-85800000D03*
X154362500Y-79437500D03*
X147000000Y-84000000D03*
X158766667Y-86433333D03*
X143100000Y-91000000D03*
X151262500Y-75725000D03*
X160700000Y-87700000D03*
X141162500Y-75725000D03*
X151900000Y-81837500D03*
X148700000Y-81837500D03*
X148737500Y-75725000D03*
X166500000Y-91500000D03*
X165533333Y-90866667D03*
X151100000Y-82650000D03*
X162633333Y-88966667D03*
X144500000Y-85250000D03*
X144500000Y-84000000D03*
X156000000Y-76680000D03*
X151100000Y-96890000D03*
D25*
X149500000Y-82750000D02*
X148250000Y-84000000D01*
X115085000Y-97000000D02*
X113100000Y-97000000D01*
X105125000Y-80000000D02*
X105500000Y-80000000D01*
X139750000Y-97795000D02*
X142980000Y-97795000D01*
X141500000Y-79337500D02*
X141500000Y-81400000D01*
X108525000Y-76975000D02*
X109075000Y-76425000D01*
X101725000Y-83025000D02*
X101491500Y-83258500D01*
X139450000Y-94250000D02*
X140500000Y-93200000D01*
X104750000Y-80000000D02*
X101725000Y-76975000D01*
X101491500Y-76741500D02*
X101491500Y-76025000D01*
X104750000Y-80000000D02*
X101725000Y-83025000D01*
X140500000Y-93200000D02*
X140500000Y-85000000D01*
X140500000Y-85000000D02*
X135000000Y-85000000D01*
X135500000Y-92000000D02*
X137750000Y-94250000D01*
X113100000Y-97000000D02*
X111975000Y-98125000D01*
X101725000Y-76975000D02*
X101491500Y-76741500D01*
X115125000Y-97040000D02*
X115085000Y-97000000D01*
X144700000Y-96075000D02*
X144700000Y-94700000D01*
X149500000Y-79337500D02*
X149500000Y-82750000D01*
X135000000Y-85000000D02*
X134000000Y-84000000D01*
X105525000Y-98205000D02*
X105525000Y-96275000D01*
X137750000Y-94250000D02*
X139450000Y-94250000D01*
X142980000Y-97795000D02*
X144700000Y-96075000D01*
X134000000Y-84000000D02*
X133000000Y-84000000D01*
X111975000Y-98125000D02*
X111975000Y-98205000D01*
X141500000Y-81400000D02*
X141500000Y-81500000D01*
X101491500Y-83258500D02*
X101491500Y-84425000D01*
X105500000Y-80000000D02*
X108525000Y-76975000D01*
D26*
X148190000Y-100250000D02*
X150440000Y-102500000D01*
X148190000Y-100250000D02*
X146300000Y-98360000D01*
X150440000Y-102500000D02*
X160000000Y-102500000D01*
X146300000Y-98360000D02*
X146300000Y-94662500D01*
X145500000Y-98060000D02*
X145500000Y-94662500D01*
X141060000Y-102500000D02*
X143310000Y-100250000D01*
X143310000Y-100250000D02*
X145500000Y-98060000D01*
X132000000Y-102500000D02*
X141060000Y-102500000D01*
X135500000Y-87000000D02*
X136700000Y-85800000D01*
X136700000Y-85800000D02*
X139000000Y-85800000D01*
D25*
X133450000Y-92250000D02*
X127500000Y-92250000D01*
X132500000Y-88500000D02*
X128000000Y-84000000D01*
X139000000Y-86600000D02*
X138150000Y-86600000D01*
X127500000Y-94050000D02*
X127500000Y-96000000D01*
X121000000Y-83000000D02*
X120950000Y-83000000D01*
X137915000Y-78905000D02*
X140700000Y-78905000D01*
X127500000Y-92250000D02*
X127500000Y-94050000D01*
X138150000Y-86600000D02*
X136250000Y-88500000D01*
X136250000Y-88500000D02*
X132500000Y-88500000D01*
X125000000Y-87000000D02*
X121000000Y-83000000D01*
X127500000Y-90000000D02*
X124750000Y-87250000D01*
X146850000Y-92050000D02*
X150300000Y-88600000D01*
X137600000Y-96400000D02*
X133450000Y-92250000D01*
X127500000Y-92250000D02*
X127500000Y-90000000D01*
X127500000Y-96000000D02*
X126000000Y-97500000D01*
X137625000Y-82600000D02*
X139000000Y-82600000D01*
X136432500Y-80432500D02*
X135000000Y-79000000D01*
X136432500Y-81407500D02*
X137625000Y-82600000D01*
X143900000Y-94700000D02*
X143900000Y-95480649D01*
X136432500Y-80432500D02*
X136432500Y-81407500D01*
X124750000Y-87250000D02*
X119500000Y-92500000D01*
X124750000Y-87250000D02*
X125000000Y-87000000D01*
X133000000Y-79000000D02*
X128000000Y-84000000D01*
X150300000Y-88600000D02*
X150300000Y-79337500D01*
X143900000Y-95480649D02*
X142980649Y-96400000D01*
X143900000Y-94662500D02*
X143900000Y-93925001D01*
X145775001Y-92050000D02*
X146850000Y-92050000D01*
X142980649Y-96400000D02*
X137600000Y-96400000D01*
X143900000Y-93925001D02*
X145775001Y-92050000D01*
X119500000Y-92500000D02*
X117500000Y-92500000D01*
X135000000Y-79000000D02*
X133000000Y-79000000D01*
X128000000Y-84000000D02*
X124750000Y-87250000D01*
X106300000Y-98205000D02*
X106300000Y-99506005D01*
X107463995Y-100670000D02*
X108750000Y-100670000D01*
X115770000Y-101500000D02*
X109580000Y-101500000D01*
X106300000Y-99506005D02*
X107463995Y-100670000D01*
X117500000Y-103230000D02*
X115770000Y-101500000D01*
X110036005Y-100670000D02*
X111200000Y-99506005D01*
X109580000Y-101500000D02*
X108750000Y-100670000D01*
X111200000Y-99506005D02*
X111200000Y-98205000D01*
X108750000Y-100670000D02*
X110036005Y-100670000D01*
D26*
X106000000Y-95000000D02*
X103500000Y-95000000D01*
X107500000Y-98205000D02*
X107500000Y-96500000D01*
X107500000Y-96500000D02*
X106000000Y-95000000D01*
X113950000Y-90000000D02*
X115525000Y-90000000D01*
X115525000Y-90000000D02*
X115950000Y-89575000D01*
X110500000Y-93450000D02*
X113950000Y-90000000D01*
X110500000Y-98205000D02*
X110500000Y-93450000D01*
X138875000Y-84325000D02*
X139000000Y-84200000D01*
X134080000Y-81805000D02*
X136600000Y-84325000D01*
X136600000Y-84325000D02*
X138875000Y-84325000D01*
X134080000Y-81000000D02*
X134080000Y-81805000D01*
D27*
X108500000Y-98205000D02*
X108500000Y-99632000D01*
X109500000Y-99632000D02*
X109500000Y-98205000D01*
X109197000Y-99935000D02*
X109500000Y-99632000D01*
X119050000Y-81000000D02*
X118890000Y-80840000D01*
X123905000Y-80730000D02*
X122350000Y-79175000D01*
X108500000Y-99632000D02*
X108803000Y-99935000D01*
X122350000Y-79175000D02*
X119850000Y-79175000D01*
X109500000Y-90230000D02*
X109500000Y-98205000D01*
X119850000Y-79175000D02*
X119050000Y-79975000D01*
X108803000Y-99935000D02*
X109197000Y-99935000D01*
X119050000Y-79975000D02*
X119050000Y-81000000D01*
X118890000Y-80840000D02*
X109500000Y-90230000D01*
D26*
X137200000Y-83499000D02*
X138901000Y-83499000D01*
X138901000Y-83499000D02*
X139000000Y-83400000D01*
D27*
X109000000Y-96215000D02*
X108000000Y-95215000D01*
X113675000Y-81750000D02*
X108000000Y-87425000D01*
X119000000Y-84700000D02*
X119000000Y-83050000D01*
X119000000Y-83050000D02*
X119050000Y-83000000D01*
X109000000Y-98205000D02*
X109000000Y-96215000D01*
X108000000Y-95215000D02*
X108000000Y-98205000D01*
X108000000Y-87425000D02*
X108000000Y-95215000D01*
D26*
X158157000Y-85000000D02*
X154400000Y-85000000D01*
X162407000Y-80750000D02*
X158157000Y-85000000D01*
X169698000Y-80750000D02*
X162407000Y-80750000D01*
X172500000Y-93750000D02*
X171850000Y-93750000D01*
X145850000Y-90375000D02*
X146800000Y-90375000D01*
X143100000Y-94700000D02*
X143100000Y-93125000D01*
X143100000Y-93125000D02*
X145850000Y-90375000D01*
X169020000Y-96580000D02*
X168500000Y-96580000D01*
X172500000Y-93750000D02*
X171700000Y-93750000D01*
X171850000Y-93750000D02*
X169020000Y-96580000D01*
X161000000Y-89000000D02*
X161666667Y-88333333D01*
X154362500Y-89000000D02*
X161000000Y-89000000D01*
X163400000Y-91400000D02*
X154362500Y-91400000D01*
X164566667Y-90233333D02*
X163400000Y-91400000D01*
X143900000Y-79300000D02*
X143900000Y-81760000D01*
X142720000Y-86220000D02*
X144500000Y-88000000D01*
X143900000Y-81760000D02*
X142720000Y-82940000D01*
X142720000Y-82940000D02*
X142720000Y-86220000D01*
X154362500Y-90600000D02*
X162600000Y-90600000D01*
X162600000Y-90600000D02*
X163600000Y-89600000D01*
X141371250Y-83132250D02*
X140039000Y-81800000D01*
X140039000Y-81800000D02*
X139037500Y-81800000D01*
X141371250Y-90300798D02*
X143070452Y-92000000D01*
X143070452Y-92000000D02*
X143100000Y-92000000D01*
X141371250Y-83132250D02*
X141371250Y-90300798D01*
X138975000Y-81000000D02*
X132250000Y-74275000D01*
X132250000Y-74275000D02*
X112725000Y-74275000D01*
X139000000Y-81000000D02*
X138975000Y-81000000D01*
X112725000Y-74275000D02*
X110500000Y-76500000D01*
X143295000Y-83115000D02*
X143295000Y-85295000D01*
X144700000Y-79300000D02*
X144700000Y-81710000D01*
X144700000Y-81710000D02*
X143295000Y-83115000D01*
X143295000Y-85295000D02*
X144500000Y-86500000D01*
X147093280Y-82414672D02*
X145518750Y-83989202D01*
X147100000Y-82414672D02*
X147093280Y-82414672D01*
X145518750Y-83989202D02*
X145518750Y-84000000D01*
X147100000Y-82414672D02*
X147100000Y-79300000D01*
X155950000Y-81800000D02*
X156000000Y-81750000D01*
X154400000Y-81800000D02*
X155950000Y-81800000D01*
X159400000Y-87400000D02*
X154362500Y-87400000D01*
X159733333Y-87066667D02*
X159400000Y-87400000D01*
X154400000Y-85800000D02*
X157800000Y-85800000D01*
X154362500Y-81000000D02*
X154362500Y-79437500D01*
X147900000Y-83100000D02*
X147000000Y-84000000D01*
X147900000Y-79337500D02*
X147900000Y-83100000D01*
X158766667Y-86433333D02*
X158600000Y-86600000D01*
X158600000Y-86600000D02*
X154362500Y-86600000D01*
X142079000Y-89979000D02*
X142079000Y-82821000D01*
X143100000Y-81800000D02*
X143100000Y-79300000D01*
X143100000Y-91000000D02*
X142079000Y-89979000D01*
X142079000Y-82821000D02*
X143100000Y-81800000D01*
X158283333Y-80075001D02*
X158283333Y-82875000D01*
X157775000Y-83383333D02*
X157775000Y-83400000D01*
X157775000Y-83400000D02*
X154400000Y-83400000D01*
X153933332Y-75725000D02*
X158283333Y-80075001D01*
X158283333Y-82875000D02*
X157775000Y-83383333D01*
X151262500Y-75725000D02*
X153933332Y-75725000D01*
X160200000Y-88200000D02*
X154362500Y-88200000D01*
X160700000Y-87700000D02*
X160200000Y-88200000D01*
X152700000Y-78350000D02*
X152350000Y-78000000D01*
X152700000Y-79337500D02*
X152700000Y-78350000D01*
X143437500Y-78000000D02*
X152350000Y-78000000D01*
X141162500Y-75725000D02*
X143437500Y-78000000D01*
X151900000Y-79337500D02*
X151900000Y-81925000D01*
X148700000Y-79337500D02*
X148700000Y-81837500D01*
X150012500Y-77000000D02*
X153950000Y-77000000D01*
X156425000Y-82600000D02*
X154362500Y-82600000D01*
X148737500Y-75725000D02*
X150012500Y-77000000D01*
X156900000Y-79950000D02*
X156900000Y-82125000D01*
X156900000Y-82125000D02*
X156425000Y-82600000D01*
X153950000Y-77000000D02*
X156900000Y-79950000D01*
X165000000Y-93000000D02*
X154400000Y-93000000D01*
X166500000Y-91500000D02*
X165000000Y-93000000D01*
X164200000Y-92200000D02*
X165533333Y-90866667D01*
X154362500Y-92200000D02*
X164200000Y-92200000D01*
X151100000Y-79337500D02*
X151100000Y-82650000D01*
X162633333Y-88966667D02*
X161800000Y-89800000D01*
X161800000Y-89800000D02*
X154362500Y-89800000D01*
X143750000Y-83360000D02*
X143750000Y-84500000D01*
X143750000Y-84500000D02*
X144500000Y-85250000D01*
X145500000Y-81610000D02*
X143750000Y-83360000D01*
X145500000Y-79337500D02*
X145500000Y-81610000D01*
X146300000Y-81949000D02*
X146300000Y-79300000D01*
X144500000Y-83749000D02*
X144500000Y-84000000D01*
X146300000Y-81949000D02*
X144500000Y-83749000D01*
X159250000Y-82925000D02*
X157975000Y-84200000D01*
X156000000Y-76680000D02*
X156000000Y-76710000D01*
X157975000Y-84200000D02*
X154400000Y-84200000D01*
X159250000Y-79960000D02*
X159250000Y-82925000D01*
X156000000Y-76710000D02*
X159250000Y-79960000D01*
X175540000Y-100000000D02*
X173677897Y-101862103D01*
X173677897Y-101862103D02*
X168217103Y-101862103D01*
X177500000Y-83800000D02*
X177500000Y-91525000D01*
X177500000Y-91525000D02*
X169025000Y-100000000D01*
X169025000Y-100000000D02*
X156540000Y-100000000D01*
X137540000Y-100000000D02*
X133844077Y-96304077D01*
X126900000Y-99400000D02*
X124570000Y-99400000D01*
X133844077Y-96304077D02*
X129995923Y-96304077D01*
X122800000Y-97630000D02*
X122800000Y-92430000D01*
X124570000Y-99400000D02*
X122800000Y-97630000D01*
X129995923Y-96304077D02*
X126900000Y-99400000D01*
X151100000Y-96890000D02*
X151100000Y-94700000D01*
X167340000Y-83800000D02*
X167340000Y-94660000D01*
X167340000Y-94660000D02*
X164900000Y-97100000D01*
X164900000Y-97100000D02*
X153296000Y-97100000D01*
X153296000Y-97100000D02*
X151900000Y-95704000D01*
X151900000Y-95704000D02*
X151900000Y-94700000D01*
X152796705Y-94565795D02*
X161815795Y-94565795D01*
X152700000Y-94662500D02*
X152796705Y-94565795D01*
%TA.AperFunction,Conductor*%
G36*
X128211471Y-85277105D02*
G01*
X128274204Y-85280216D01*
X128321101Y-85309636D01*
X128603511Y-85592046D01*
X128636996Y-85653369D01*
X128632012Y-85723061D01*
X128590140Y-85778994D01*
X128572127Y-85790210D01*
X128415084Y-85870228D01*
X128394193Y-85880873D01*
X128227576Y-86001926D01*
X128227571Y-86001930D01*
X128081930Y-86147571D01*
X128081926Y-86147576D01*
X127960873Y-86314193D01*
X127867367Y-86497705D01*
X127803719Y-86693591D01*
X127787985Y-86792935D01*
X127771500Y-86897019D01*
X127771500Y-87102981D01*
X127773124Y-87113233D01*
X127803719Y-87306408D01*
X127867367Y-87502294D01*
X127921721Y-87608968D01*
X127937204Y-87639355D01*
X127960873Y-87685806D01*
X128081926Y-87852423D01*
X128081930Y-87852428D01*
X128227571Y-87998069D01*
X128227576Y-87998073D01*
X128358341Y-88093078D01*
X128394197Y-88119129D01*
X128511128Y-88178709D01*
X128577705Y-88212632D01*
X128577707Y-88212632D01*
X128577710Y-88212634D01*
X128657425Y-88238535D01*
X128773591Y-88276280D01*
X128875305Y-88292390D01*
X128977019Y-88308500D01*
X128977020Y-88308500D01*
X129182980Y-88308500D01*
X129182981Y-88308500D01*
X129386408Y-88276280D01*
X129582290Y-88212634D01*
X129765803Y-88119129D01*
X129932430Y-87998068D01*
X130078068Y-87852430D01*
X130199129Y-87685803D01*
X130289788Y-87507874D01*
X130337763Y-87457079D01*
X130405584Y-87440284D01*
X130471719Y-87462821D01*
X130487954Y-87476489D01*
X131762876Y-88751411D01*
X131796361Y-88812734D01*
X131791377Y-88882426D01*
X131775395Y-88903773D01*
X131774077Y-88920524D01*
X132453554Y-89600000D01*
X132447339Y-89600000D01*
X132345606Y-89627259D01*
X132254394Y-89679920D01*
X132179920Y-89754394D01*
X132127259Y-89845606D01*
X132100000Y-89947339D01*
X132100000Y-89953553D01*
X131420524Y-89274077D01*
X131420523Y-89274077D01*
X131388143Y-89318644D01*
X131295244Y-89500968D01*
X131232009Y-89695582D01*
X131200000Y-89897682D01*
X131200000Y-90102317D01*
X131232009Y-90304417D01*
X131295244Y-90499031D01*
X131388141Y-90681350D01*
X131388147Y-90681359D01*
X131420523Y-90725921D01*
X131420524Y-90725922D01*
X132100000Y-90046446D01*
X132100000Y-90052661D01*
X132127259Y-90154394D01*
X132179920Y-90245606D01*
X132254394Y-90320080D01*
X132345606Y-90372741D01*
X132447339Y-90400000D01*
X132453553Y-90400000D01*
X131774076Y-91079474D01*
X131818650Y-91111859D01*
X132000968Y-91204755D01*
X132195582Y-91267990D01*
X132397683Y-91300000D01*
X132602317Y-91300000D01*
X132804417Y-91267990D01*
X132999031Y-91204755D01*
X133181349Y-91111859D01*
X133225921Y-91079474D01*
X133225922Y-91079474D01*
X133201912Y-91055464D01*
X132546447Y-90400000D01*
X132552661Y-90400000D01*
X132654394Y-90372741D01*
X132745606Y-90320080D01*
X132820080Y-90245606D01*
X132872741Y-90154394D01*
X132900000Y-90052661D01*
X132900000Y-90046446D01*
X133579474Y-90725921D01*
X133611859Y-90681349D01*
X133704755Y-90499031D01*
X133767990Y-90304417D01*
X133800000Y-90102317D01*
X133800000Y-89897682D01*
X133767990Y-89695582D01*
X133704755Y-89500968D01*
X133642759Y-89379295D01*
X133629863Y-89310626D01*
X133656139Y-89245885D01*
X133713246Y-89205628D01*
X133753244Y-89199000D01*
X136318847Y-89199000D01*
X136318848Y-89198999D01*
X136453891Y-89172138D01*
X136581101Y-89119446D01*
X136638078Y-89081375D01*
X136695586Y-89042949D01*
X136792949Y-88945586D01*
X136851508Y-88887027D01*
X136851520Y-88887013D01*
X137579820Y-88158714D01*
X137641142Y-88125230D01*
X137710834Y-88130214D01*
X137766767Y-88172086D01*
X137791184Y-88237550D01*
X137791500Y-88246396D01*
X137791500Y-88402735D01*
X137794382Y-88439355D01*
X137794384Y-88439367D01*
X137831002Y-88565405D01*
X137831002Y-88634595D01*
X137794384Y-88760632D01*
X137794382Y-88760644D01*
X137791500Y-88797264D01*
X137791500Y-89202735D01*
X137794382Y-89239355D01*
X137794384Y-89239367D01*
X137831002Y-89365405D01*
X137831002Y-89434595D01*
X137794384Y-89560632D01*
X137794382Y-89560644D01*
X137791500Y-89597264D01*
X137791500Y-90002728D01*
X137794382Y-90039355D01*
X137794384Y-90039367D01*
X137831002Y-90165405D01*
X137831002Y-90234595D01*
X137794384Y-90360632D01*
X137794382Y-90360644D01*
X137791500Y-90397264D01*
X137791500Y-90802735D01*
X137794382Y-90839355D01*
X137794384Y-90839367D01*
X137831002Y-90965405D01*
X137831002Y-91034595D01*
X137794384Y-91160632D01*
X137794382Y-91160644D01*
X137791500Y-91197264D01*
X137791500Y-91602735D01*
X137794382Y-91639355D01*
X137794384Y-91639367D01*
X137831002Y-91765405D01*
X137831002Y-91834595D01*
X137794384Y-91960632D01*
X137794382Y-91960644D01*
X137791500Y-91997264D01*
X137791500Y-92402735D01*
X137794382Y-92439355D01*
X137794384Y-92439367D01*
X137831002Y-92565405D01*
X137831002Y-92634595D01*
X137794384Y-92760632D01*
X137794382Y-92760644D01*
X137791500Y-92797264D01*
X137791500Y-93202735D01*
X137794382Y-93239355D01*
X137794384Y-93239366D01*
X137839917Y-93396091D01*
X137839921Y-93396100D01*
X137922998Y-93536579D01*
X137923007Y-93536590D01*
X138038409Y-93651992D01*
X138038420Y-93652001D01*
X138159692Y-93723719D01*
X138178904Y-93735081D01*
X138335640Y-93780617D01*
X138372270Y-93783500D01*
X138372276Y-93783500D01*
X139702724Y-93783500D01*
X139702730Y-93783500D01*
X139739360Y-93780617D01*
X139776502Y-93769826D01*
X139846370Y-93770025D01*
X139905040Y-93807966D01*
X139933885Y-93871604D01*
X139930174Y-93923495D01*
X139919384Y-93960636D01*
X139919382Y-93960644D01*
X139916500Y-93997264D01*
X139916500Y-95327735D01*
X139919382Y-95364355D01*
X139919384Y-95364366D01*
X139964918Y-95521094D01*
X139967799Y-95527751D01*
X139976360Y-95597094D01*
X139946072Y-95660058D01*
X139886551Y-95696651D01*
X139853999Y-95701000D01*
X137940897Y-95701000D01*
X137873858Y-95681315D01*
X137853216Y-95664681D01*
X135676175Y-93487640D01*
X135642690Y-93426317D01*
X135647674Y-93356625D01*
X135689546Y-93300692D01*
X135744459Y-93277485D01*
X135804423Y-93267988D01*
X135999031Y-93204755D01*
X136181349Y-93111859D01*
X136225921Y-93079474D01*
X135546446Y-92400000D01*
X135552661Y-92400000D01*
X135654394Y-92372741D01*
X135745606Y-92320080D01*
X135820080Y-92245606D01*
X135872741Y-92154394D01*
X135900000Y-92052661D01*
X135900000Y-92046447D01*
X136579474Y-92725921D01*
X136611859Y-92681349D01*
X136704755Y-92499031D01*
X136767990Y-92304417D01*
X136800000Y-92102317D01*
X136800000Y-91897682D01*
X136767990Y-91695582D01*
X136704755Y-91500968D01*
X136611859Y-91318650D01*
X136579474Y-91274077D01*
X136579474Y-91274076D01*
X135900000Y-91953551D01*
X135900000Y-91947339D01*
X135872741Y-91845606D01*
X135820080Y-91754394D01*
X135745606Y-91679920D01*
X135654394Y-91627259D01*
X135552661Y-91600000D01*
X135546446Y-91600000D01*
X136225922Y-90920524D01*
X136225921Y-90920523D01*
X136181359Y-90888147D01*
X136181350Y-90888141D01*
X135999031Y-90795244D01*
X135804417Y-90732009D01*
X135602317Y-90700000D01*
X135397683Y-90700000D01*
X135195582Y-90732009D01*
X135000968Y-90795244D01*
X134818644Y-90888143D01*
X134774077Y-90920523D01*
X134774077Y-90920524D01*
X135453554Y-91600000D01*
X135447339Y-91600000D01*
X135345606Y-91627259D01*
X135254394Y-91679920D01*
X135179920Y-91754394D01*
X135127259Y-91845606D01*
X135100000Y-91947339D01*
X135100000Y-91953553D01*
X134420524Y-91274077D01*
X134420523Y-91274077D01*
X134388143Y-91318644D01*
X134295244Y-91500968D01*
X134232010Y-91695581D01*
X134222513Y-91755542D01*
X134217470Y-91766178D01*
X134216787Y-91777929D01*
X134202778Y-91797170D01*
X134192583Y-91818676D01*
X134182591Y-91824897D01*
X134175663Y-91834414D01*
X134153474Y-91843027D01*
X134133272Y-91855607D01*
X134121503Y-91855438D01*
X134110529Y-91859699D01*
X134087206Y-91854948D01*
X134063409Y-91854609D01*
X134051862Y-91847750D01*
X134042065Y-91845755D01*
X134015556Y-91826184D01*
X134013532Y-91824982D01*
X134012960Y-91824425D01*
X133895587Y-91707052D01*
X133895003Y-91706662D01*
X133878419Y-91695581D01*
X133854981Y-91679920D01*
X133781101Y-91630554D01*
X133781098Y-91630552D01*
X133781097Y-91630552D01*
X133781096Y-91630551D01*
X133653895Y-91577863D01*
X133653892Y-91577862D01*
X133645811Y-91576254D01*
X133613265Y-91569781D01*
X133566055Y-91560390D01*
X133518847Y-91551000D01*
X133518846Y-91551000D01*
X133518845Y-91551000D01*
X128323000Y-91551000D01*
X128255961Y-91531315D01*
X128210206Y-91478511D01*
X128199000Y-91427000D01*
X128199000Y-91172722D01*
X128199456Y-91171168D01*
X128199039Y-91169603D01*
X128209267Y-91137754D01*
X128218685Y-91105683D01*
X128220067Y-91104127D01*
X128220404Y-91103080D01*
X128227616Y-91095632D01*
X128244180Y-91076996D01*
X128247078Y-91074609D01*
X128352430Y-90998068D01*
X128498068Y-90852430D01*
X128619129Y-90685803D01*
X128712634Y-90502290D01*
X128776280Y-90306408D01*
X128808500Y-90102981D01*
X128808500Y-89897019D01*
X128788715Y-89772105D01*
X128776280Y-89693591D01*
X128736089Y-89569896D01*
X128712634Y-89497710D01*
X128712632Y-89497707D01*
X128712632Y-89497705D01*
X128677234Y-89428234D01*
X128619129Y-89314197D01*
X128589980Y-89274077D01*
X128498073Y-89147576D01*
X128498069Y-89147571D01*
X128352428Y-89001930D01*
X128352423Y-89001926D01*
X128185806Y-88880873D01*
X128185805Y-88880872D01*
X128185803Y-88880871D01*
X128128496Y-88851671D01*
X128002294Y-88787367D01*
X127806408Y-88723719D01*
X127630794Y-88695905D01*
X127602981Y-88691500D01*
X127397019Y-88691500D01*
X127272105Y-88711284D01*
X127202812Y-88702329D01*
X127165027Y-88676492D01*
X125826215Y-87337680D01*
X125792730Y-87276357D01*
X125797714Y-87206665D01*
X125826211Y-87162323D01*
X127651355Y-85337178D01*
X127712676Y-85303695D01*
X127758431Y-85302388D01*
X127797019Y-85308500D01*
X127797020Y-85308500D01*
X128002980Y-85308500D01*
X128002981Y-85308500D01*
X128108664Y-85291761D01*
X128211220Y-85275518D01*
X128211471Y-85277105D01*
G37*
%TD.AperFunction*%
%TA.AperFunction,Conductor*%
G36*
X140488703Y-83148882D02*
G01*
X140495181Y-83154914D01*
X140699431Y-83359164D01*
X140732916Y-83420487D01*
X140735750Y-83446845D01*
X140735750Y-90363393D01*
X140760170Y-90486159D01*
X140760173Y-90486171D01*
X140808073Y-90601813D01*
X140808080Y-90601826D01*
X140877624Y-90705905D01*
X140877627Y-90705909D01*
X142155181Y-91983461D01*
X142188666Y-92044784D01*
X142191500Y-92071142D01*
X142191500Y-92089483D01*
X142226411Y-92264992D01*
X142226413Y-92265000D01*
X142294896Y-92430332D01*
X142294901Y-92430342D01*
X142394321Y-92579134D01*
X142394324Y-92579138D01*
X142508214Y-92693028D01*
X142541699Y-92754351D01*
X142536715Y-92824043D01*
X142535094Y-92828162D01*
X142488922Y-92939630D01*
X142488920Y-92939638D01*
X142464500Y-93062404D01*
X142464500Y-93292500D01*
X142444815Y-93359539D01*
X142392011Y-93405294D01*
X142340500Y-93416500D01*
X142097264Y-93416500D01*
X142060644Y-93419382D01*
X142060632Y-93419384D01*
X141934595Y-93456002D01*
X141865405Y-93456002D01*
X141739367Y-93419384D01*
X141739355Y-93419382D01*
X141702735Y-93416500D01*
X141702730Y-93416500D01*
X141297270Y-93416500D01*
X141297264Y-93416500D01*
X141260644Y-93419382D01*
X141260632Y-93419384D01*
X141134595Y-93456002D01*
X141065405Y-93456002D01*
X140939367Y-93419384D01*
X140939355Y-93419382D01*
X140902735Y-93416500D01*
X140902730Y-93416500D01*
X140497270Y-93416500D01*
X140497264Y-93416500D01*
X140460644Y-93419382D01*
X140460636Y-93419384D01*
X140423495Y-93430174D01*
X140353626Y-93429973D01*
X140294956Y-93392031D01*
X140266114Y-93328392D01*
X140269825Y-93276503D01*
X140280617Y-93239360D01*
X140283500Y-93202730D01*
X140283500Y-92797270D01*
X140280617Y-92760640D01*
X140278059Y-92751834D01*
X140243998Y-92634595D01*
X140243998Y-92565405D01*
X140280615Y-92439367D01*
X140280615Y-92439366D01*
X140280617Y-92439360D01*
X140283500Y-92402730D01*
X140283500Y-91997270D01*
X140280617Y-91960640D01*
X140271747Y-91930108D01*
X140243998Y-91834595D01*
X140243998Y-91765405D01*
X140280615Y-91639367D01*
X140280615Y-91639366D01*
X140280617Y-91639360D01*
X140283500Y-91602730D01*
X140283500Y-91197270D01*
X140280617Y-91160640D01*
X140278607Y-91153720D01*
X140243998Y-91034595D01*
X140243998Y-90965405D01*
X140280615Y-90839367D01*
X140280615Y-90839366D01*
X140280617Y-90839360D01*
X140283500Y-90802730D01*
X140283500Y-90397270D01*
X140280617Y-90360640D01*
X140278558Y-90353553D01*
X140243998Y-90234595D01*
X140243998Y-90165405D01*
X140280615Y-90039367D01*
X140280615Y-90039366D01*
X140280617Y-90039360D01*
X140283500Y-90002730D01*
X140283500Y-89597270D01*
X140280617Y-89560640D01*
X140265469Y-89508500D01*
X140243998Y-89434595D01*
X140243998Y-89365405D01*
X140280615Y-89239367D01*
X140280615Y-89239366D01*
X140280617Y-89239360D01*
X140283500Y-89202730D01*
X140283500Y-88797270D01*
X140280617Y-88760640D01*
X140269891Y-88723720D01*
X140243998Y-88634595D01*
X140243998Y-88565405D01*
X140280615Y-88439367D01*
X140280615Y-88439366D01*
X140280617Y-88439360D01*
X140283500Y-88402730D01*
X140283500Y-87997270D01*
X140280617Y-87960640D01*
X140280615Y-87960632D01*
X140243998Y-87834595D01*
X140243998Y-87765405D01*
X140280615Y-87639367D01*
X140280615Y-87639366D01*
X140280617Y-87639360D01*
X140283500Y-87602730D01*
X140283500Y-87197270D01*
X140280617Y-87160640D01*
X140270263Y-87125000D01*
X140243998Y-87034595D01*
X140243998Y-86965405D01*
X140280615Y-86839367D01*
X140280615Y-86839366D01*
X140280617Y-86839360D01*
X140283500Y-86802730D01*
X140283500Y-86397270D01*
X140280617Y-86360640D01*
X140251833Y-86261565D01*
X140243998Y-86234595D01*
X140243998Y-86165405D01*
X140280615Y-86039367D01*
X140280615Y-86039366D01*
X140280617Y-86039360D01*
X140283500Y-86002730D01*
X140283500Y-85597270D01*
X140280617Y-85560640D01*
X140243737Y-85433698D01*
X140243737Y-85364508D01*
X140280119Y-85239282D01*
X140280120Y-85239279D01*
X140282999Y-85202693D01*
X140283000Y-85202678D01*
X140283000Y-84797321D01*
X140282999Y-84797306D01*
X140280120Y-84760720D01*
X140280119Y-84760717D01*
X140243737Y-84635491D01*
X140243737Y-84566301D01*
X140280617Y-84439360D01*
X140283500Y-84402730D01*
X140283500Y-83997270D01*
X140280617Y-83960640D01*
X140263866Y-83902981D01*
X140243998Y-83834595D01*
X140243998Y-83765405D01*
X140280615Y-83639367D01*
X140280615Y-83639366D01*
X140280617Y-83639360D01*
X140283500Y-83602730D01*
X140283500Y-83242595D01*
X140303185Y-83175556D01*
X140355989Y-83129801D01*
X140425147Y-83119857D01*
X140488703Y-83148882D01*
G37*
%TD.AperFunction*%
%TA.AperFunction,Conductor*%
G36*
X149520334Y-82404494D02*
G01*
X149576267Y-82446366D01*
X149600684Y-82511830D01*
X149601000Y-82520676D01*
X149601000Y-87973255D01*
X149581315Y-88040294D01*
X149580102Y-88042146D01*
X149494901Y-88169657D01*
X149494896Y-88169667D01*
X149426413Y-88334999D01*
X149426411Y-88335005D01*
X149396492Y-88485418D01*
X149364107Y-88547329D01*
X149362556Y-88548907D01*
X147842265Y-90069198D01*
X147780942Y-90102683D01*
X147711250Y-90097699D01*
X147655317Y-90055827D01*
X147640023Y-90028970D01*
X147629153Y-90002728D01*
X147605102Y-89944664D01*
X147605100Y-89944661D01*
X147605098Y-89944657D01*
X147505678Y-89795865D01*
X147505675Y-89795861D01*
X147379138Y-89669324D01*
X147379134Y-89669321D01*
X147230342Y-89569901D01*
X147230332Y-89569896D01*
X147065000Y-89501413D01*
X147064992Y-89501411D01*
X146889483Y-89466500D01*
X146889479Y-89466500D01*
X146710521Y-89466500D01*
X146710516Y-89466500D01*
X146535007Y-89501411D01*
X146534999Y-89501413D01*
X146369667Y-89569896D01*
X146369657Y-89569901D01*
X146220865Y-89669321D01*
X146220861Y-89669324D01*
X146187007Y-89703180D01*
X146125685Y-89736666D01*
X146099325Y-89739500D01*
X145787404Y-89739500D01*
X145664638Y-89763920D01*
X145664626Y-89763923D01*
X145548984Y-89811823D01*
X145548971Y-89811830D01*
X145444892Y-89881374D01*
X145444888Y-89881377D01*
X144220181Y-91106085D01*
X144158858Y-91139570D01*
X144089166Y-91134586D01*
X144033233Y-91092714D01*
X144008816Y-91027250D01*
X144008500Y-91018404D01*
X144008500Y-90910520D01*
X144008499Y-90910516D01*
X143985570Y-90795244D01*
X143973587Y-90735000D01*
X143905102Y-90569664D01*
X143905100Y-90569661D01*
X143905098Y-90569657D01*
X143805678Y-90420865D01*
X143805675Y-90420861D01*
X143679138Y-90294324D01*
X143679134Y-90294321D01*
X143530342Y-90194901D01*
X143530332Y-90194896D01*
X143365000Y-90126413D01*
X143364992Y-90126411D01*
X143189483Y-90091500D01*
X143189479Y-90091500D01*
X143141595Y-90091500D01*
X143074556Y-90071815D01*
X143053914Y-90055181D01*
X142750819Y-89752086D01*
X142717334Y-89690763D01*
X142714500Y-89664405D01*
X142714500Y-87412595D01*
X142734185Y-87345556D01*
X142786989Y-87299801D01*
X142856147Y-87289857D01*
X142919703Y-87318882D01*
X142926181Y-87324914D01*
X143616145Y-88014878D01*
X143643025Y-88055106D01*
X143694896Y-88180332D01*
X143694901Y-88180342D01*
X143794321Y-88329134D01*
X143794324Y-88329138D01*
X143920861Y-88455675D01*
X143920865Y-88455678D01*
X144069657Y-88555098D01*
X144069661Y-88555100D01*
X144069664Y-88555102D01*
X144235000Y-88623587D01*
X144410516Y-88658499D01*
X144410520Y-88658500D01*
X144410521Y-88658500D01*
X144589480Y-88658500D01*
X144589481Y-88658499D01*
X144765000Y-88623587D01*
X144930336Y-88555102D01*
X145079135Y-88455678D01*
X145205678Y-88329135D01*
X145305102Y-88180336D01*
X145373587Y-88015000D01*
X145408500Y-87839479D01*
X145408500Y-87660521D01*
X145373587Y-87485000D01*
X145305102Y-87319664D01*
X145305100Y-87319661D01*
X145305098Y-87319657D01*
X145230824Y-87208499D01*
X145221062Y-87193889D01*
X145200185Y-87127214D01*
X145218669Y-87059834D01*
X145221063Y-87056109D01*
X145235439Y-87034595D01*
X145305102Y-86930336D01*
X145373587Y-86765000D01*
X145408500Y-86589479D01*
X145408500Y-86410521D01*
X145373587Y-86235000D01*
X145305102Y-86069664D01*
X145305100Y-86069661D01*
X145305098Y-86069657D01*
X145253830Y-85992930D01*
X145221062Y-85943889D01*
X145200185Y-85877214D01*
X145218669Y-85809834D01*
X145221063Y-85806109D01*
X145272468Y-85729177D01*
X145305102Y-85680336D01*
X145373587Y-85515000D01*
X145408500Y-85339479D01*
X145408500Y-85160521D01*
X145382127Y-85027934D01*
X145388354Y-84958344D01*
X145431217Y-84903167D01*
X145497107Y-84879922D01*
X145527932Y-84882126D01*
X145660519Y-84908499D01*
X145660520Y-84908500D01*
X145660521Y-84908500D01*
X145839480Y-84908500D01*
X145839481Y-84908499D01*
X146015000Y-84873587D01*
X146180336Y-84805102D01*
X146306110Y-84721062D01*
X146372786Y-84700185D01*
X146440166Y-84718669D01*
X146443874Y-84721052D01*
X146467121Y-84736585D01*
X146569657Y-84805098D01*
X146569661Y-84805100D01*
X146569664Y-84805102D01*
X146735000Y-84873587D01*
X146883710Y-84903167D01*
X146910516Y-84908499D01*
X146910520Y-84908500D01*
X146910521Y-84908500D01*
X147089480Y-84908500D01*
X147089481Y-84908499D01*
X147265000Y-84873587D01*
X147430336Y-84805102D01*
X147579135Y-84705678D01*
X147705678Y-84579135D01*
X147805102Y-84430336D01*
X147873587Y-84265000D01*
X147908500Y-84089479D01*
X147908500Y-84041595D01*
X147928185Y-83974556D01*
X147944819Y-83953914D01*
X148393622Y-83505111D01*
X148393625Y-83505108D01*
X148463173Y-83401022D01*
X148464161Y-83398638D01*
X148481956Y-83355675D01*
X148511078Y-83285369D01*
X148535500Y-83162591D01*
X148535500Y-83037409D01*
X148535500Y-82870000D01*
X148555185Y-82802961D01*
X148607989Y-82757206D01*
X148659500Y-82746000D01*
X148789480Y-82746000D01*
X148789481Y-82745999D01*
X148965000Y-82711087D01*
X149130336Y-82642602D01*
X149279135Y-82543178D01*
X149330813Y-82491500D01*
X149389319Y-82432995D01*
X149450642Y-82399510D01*
X149520334Y-82404494D01*
G37*
%TD.AperFunction*%
%TA.AperFunction,Conductor*%
G36*
X132691993Y-80399055D02*
G01*
X132747926Y-80440927D01*
X132772343Y-80506391D01*
X132771132Y-80534634D01*
X132756500Y-80627018D01*
X132756500Y-80832980D01*
X132788719Y-81036408D01*
X132852367Y-81232294D01*
X132890114Y-81306375D01*
X132941469Y-81407164D01*
X132945873Y-81415806D01*
X133066926Y-81582423D01*
X133066930Y-81582428D01*
X133212571Y-81728069D01*
X133212576Y-81728073D01*
X133379195Y-81849128D01*
X133394190Y-81856769D01*
X133444986Y-81904744D01*
X133459511Y-81943061D01*
X133468920Y-81990363D01*
X133468923Y-81990373D01*
X133516823Y-82106015D01*
X133516830Y-82106028D01*
X133586374Y-82210107D01*
X133586377Y-82210111D01*
X136106375Y-84730108D01*
X136152046Y-84775779D01*
X136194893Y-84818626D01*
X136298971Y-84888169D01*
X136298984Y-84888176D01*
X136373712Y-84919129D01*
X136414631Y-84936078D01*
X136445997Y-84942317D01*
X136493654Y-84951797D01*
X136555565Y-84984182D01*
X136590139Y-85044897D01*
X136586400Y-85114667D01*
X136545534Y-85171339D01*
X136516916Y-85187975D01*
X136398981Y-85236825D01*
X136398971Y-85236830D01*
X136294892Y-85306374D01*
X136294888Y-85306377D01*
X135912495Y-85688770D01*
X135851172Y-85722255D01*
X135805417Y-85723562D01*
X135602981Y-85691500D01*
X135397019Y-85691500D01*
X135372550Y-85695375D01*
X135193591Y-85723719D01*
X134997705Y-85787367D01*
X134814193Y-85880873D01*
X134647576Y-86001926D01*
X134647571Y-86001930D01*
X134501930Y-86147571D01*
X134501926Y-86147576D01*
X134380873Y-86314193D01*
X134287367Y-86497705D01*
X134223719Y-86693591D01*
X134207985Y-86792935D01*
X134191500Y-86897019D01*
X134191500Y-87102981D01*
X134193124Y-87113233D01*
X134223719Y-87306408D01*
X134287367Y-87502294D01*
X134306136Y-87539129D01*
X134342898Y-87611278D01*
X134347702Y-87620705D01*
X134360598Y-87689374D01*
X134334322Y-87754114D01*
X134277216Y-87794372D01*
X134237217Y-87801000D01*
X132840897Y-87801000D01*
X132773858Y-87781315D01*
X132753216Y-87764681D01*
X129237180Y-84248645D01*
X129203695Y-84187322D01*
X129202388Y-84141567D01*
X129208500Y-84102981D01*
X129208500Y-83897682D01*
X131600000Y-83897682D01*
X131600000Y-84102317D01*
X131632009Y-84304417D01*
X131695244Y-84499031D01*
X131788141Y-84681350D01*
X131788147Y-84681359D01*
X131820523Y-84725921D01*
X131820524Y-84725922D01*
X132500000Y-84046446D01*
X132500000Y-84052661D01*
X132527259Y-84154394D01*
X132579920Y-84245606D01*
X132654394Y-84320080D01*
X132745606Y-84372741D01*
X132847339Y-84400000D01*
X132853553Y-84400000D01*
X132174076Y-85079474D01*
X132218650Y-85111859D01*
X132400968Y-85204755D01*
X132595582Y-85267990D01*
X132797683Y-85300000D01*
X133002317Y-85300000D01*
X133204417Y-85267990D01*
X133399031Y-85204755D01*
X133581349Y-85111859D01*
X133625921Y-85079474D01*
X132946447Y-84400000D01*
X132952661Y-84400000D01*
X133054394Y-84372741D01*
X133145606Y-84320080D01*
X133220080Y-84245606D01*
X133272741Y-84154394D01*
X133300000Y-84052661D01*
X133300000Y-84046448D01*
X133979474Y-84725922D01*
X133979474Y-84725921D01*
X134011859Y-84681349D01*
X134104755Y-84499031D01*
X134167990Y-84304417D01*
X134200000Y-84102317D01*
X134200000Y-83897682D01*
X134167990Y-83695582D01*
X134104755Y-83500968D01*
X134011859Y-83318650D01*
X133979474Y-83274077D01*
X133979474Y-83274076D01*
X133300000Y-83953551D01*
X133300000Y-83947339D01*
X133272741Y-83845606D01*
X133220080Y-83754394D01*
X133145606Y-83679920D01*
X133054394Y-83627259D01*
X132952661Y-83600000D01*
X132946446Y-83600000D01*
X133625922Y-82920524D01*
X133625921Y-82920523D01*
X133581359Y-82888147D01*
X133581350Y-82888141D01*
X133399031Y-82795244D01*
X133204417Y-82732009D01*
X133002317Y-82700000D01*
X132797683Y-82700000D01*
X132595582Y-82732009D01*
X132400968Y-82795244D01*
X132218644Y-82888143D01*
X132174077Y-82920523D01*
X132174077Y-82920524D01*
X132853554Y-83600000D01*
X132847339Y-83600000D01*
X132745606Y-83627259D01*
X132654394Y-83679920D01*
X132579920Y-83754394D01*
X132527259Y-83845606D01*
X132500000Y-83947339D01*
X132500000Y-83953553D01*
X131820524Y-83274077D01*
X131820523Y-83274077D01*
X131788143Y-83318644D01*
X131695244Y-83500968D01*
X131632009Y-83695582D01*
X131600000Y-83897682D01*
X129208500Y-83897682D01*
X129208500Y-83897019D01*
X129202227Y-83857421D01*
X129202093Y-83856471D01*
X129206987Y-83822838D01*
X129211342Y-83789140D01*
X129212040Y-83788118D01*
X129212155Y-83787330D01*
X129214143Y-83785043D01*
X129237177Y-83751356D01*
X132560979Y-80427554D01*
X132622301Y-80394071D01*
X132691993Y-80399055D01*
G37*
%TD.AperFunction*%
%TA.AperFunction,Conductor*%
G36*
X141260717Y-80580119D02*
G01*
X141260720Y-80580120D01*
X141297306Y-80582999D01*
X141297322Y-80583000D01*
X141702678Y-80583000D01*
X141702693Y-80582999D01*
X141739279Y-80580120D01*
X141739282Y-80580119D01*
X141864508Y-80543737D01*
X141933698Y-80543737D01*
X142060640Y-80580617D01*
X142097270Y-80583500D01*
X142340500Y-80583500D01*
X142407539Y-80603185D01*
X142453294Y-80655989D01*
X142464500Y-80707500D01*
X142464500Y-81485405D01*
X142444815Y-81552444D01*
X142428181Y-81573086D01*
X141673887Y-82327380D01*
X141657175Y-82344090D01*
X141595850Y-82377572D01*
X141526158Y-82372583D01*
X141481818Y-82344085D01*
X140444111Y-81306377D01*
X140444107Y-81306374D01*
X140338609Y-81235882D01*
X140293804Y-81182270D01*
X140283500Y-81132780D01*
X140283500Y-80797274D01*
X140283500Y-80797270D01*
X140280617Y-80760640D01*
X140269826Y-80723497D01*
X140270025Y-80653629D01*
X140307966Y-80594958D01*
X140371605Y-80566114D01*
X140423496Y-80569825D01*
X140460640Y-80580617D01*
X140497270Y-80583500D01*
X140497276Y-80583500D01*
X140902724Y-80583500D01*
X140902730Y-80583500D01*
X140939360Y-80580617D01*
X141066302Y-80543737D01*
X141135491Y-80543737D01*
X141260717Y-80580119D01*
G37*
%TD.AperFunction*%
%TA.AperFunction,Conductor*%
G36*
X149544039Y-80602685D02*
G01*
X149589794Y-80655489D01*
X149601000Y-80707000D01*
X149601000Y-81154324D01*
X149594761Y-81175569D01*
X149593182Y-81197658D01*
X149585109Y-81208441D01*
X149581315Y-81221363D01*
X149564581Y-81235862D01*
X149551310Y-81253591D01*
X149538689Y-81258298D01*
X149528511Y-81267118D01*
X149506593Y-81270269D01*
X149485846Y-81278008D01*
X149472685Y-81275145D01*
X149459353Y-81277062D01*
X149439209Y-81267862D01*
X149417573Y-81263156D01*
X149399847Y-81249887D01*
X149395797Y-81248037D01*
X149389319Y-81242005D01*
X149371819Y-81224505D01*
X149338334Y-81163182D01*
X149335500Y-81136824D01*
X149335500Y-80707000D01*
X149355185Y-80639961D01*
X149407989Y-80594206D01*
X149459500Y-80583000D01*
X149477000Y-80583000D01*
X149544039Y-80602685D01*
G37*
%TD.AperFunction*%
%TA.AperFunction,Conductor*%
G36*
X181642539Y-70320185D02*
G01*
X181688294Y-70372989D01*
X181699500Y-70424500D01*
X181699500Y-80584259D01*
X181679815Y-80651298D01*
X181627011Y-80697053D01*
X181557853Y-80706997D01*
X181494297Y-80677972D01*
X181456523Y-80619194D01*
X181453027Y-80603657D01*
X181427990Y-80445582D01*
X181364755Y-80250968D01*
X181271859Y-80068650D01*
X181239474Y-80024077D01*
X181239474Y-80024076D01*
X180560000Y-80703551D01*
X180560000Y-80697339D01*
X180532741Y-80595606D01*
X180480080Y-80504394D01*
X180405606Y-80429920D01*
X180314394Y-80377259D01*
X180212661Y-80350000D01*
X180206446Y-80350000D01*
X180885922Y-79670524D01*
X180885921Y-79670523D01*
X180841359Y-79638147D01*
X180841350Y-79638141D01*
X180659031Y-79545244D01*
X180464417Y-79482009D01*
X180262317Y-79450000D01*
X180057683Y-79450000D01*
X179855582Y-79482009D01*
X179660968Y-79545244D01*
X179478644Y-79638143D01*
X179434077Y-79670523D01*
X179434077Y-79670524D01*
X180113554Y-80350000D01*
X180107339Y-80350000D01*
X180005606Y-80377259D01*
X179914394Y-80429920D01*
X179839920Y-80504394D01*
X179787259Y-80595606D01*
X179760000Y-80697339D01*
X179760000Y-80703553D01*
X179080524Y-80024077D01*
X179080523Y-80024077D01*
X179048143Y-80068644D01*
X178955244Y-80250968D01*
X178892009Y-80445582D01*
X178860000Y-80647682D01*
X178860000Y-80852317D01*
X178892009Y-81054417D01*
X178955244Y-81249031D01*
X179048141Y-81431350D01*
X179048147Y-81431359D01*
X179080523Y-81475921D01*
X179080524Y-81475922D01*
X179760000Y-80796446D01*
X179760000Y-80802661D01*
X179787259Y-80904394D01*
X179839920Y-80995606D01*
X179914394Y-81070080D01*
X180005606Y-81122741D01*
X180107339Y-81150000D01*
X180113553Y-81150000D01*
X179434076Y-81829474D01*
X179478650Y-81861859D01*
X179660968Y-81954755D01*
X179855582Y-82017990D01*
X180057683Y-82050000D01*
X180262317Y-82050000D01*
X180464417Y-82017990D01*
X180659031Y-81954755D01*
X180841349Y-81861859D01*
X180885921Y-81829474D01*
X180206447Y-81150000D01*
X180212661Y-81150000D01*
X180314394Y-81122741D01*
X180405606Y-81070080D01*
X180480080Y-80995606D01*
X180532741Y-80904394D01*
X180560000Y-80802661D01*
X180560000Y-80796447D01*
X181239474Y-81475921D01*
X181271859Y-81431349D01*
X181364755Y-81249031D01*
X181427990Y-81054417D01*
X181453027Y-80896342D01*
X181482956Y-80833207D01*
X181542268Y-80796276D01*
X181612130Y-80797274D01*
X181670363Y-80835884D01*
X181698477Y-80899848D01*
X181699500Y-80915740D01*
X181699500Y-104575500D01*
X181679815Y-104642539D01*
X181627011Y-104688294D01*
X181575500Y-104699500D01*
X117994643Y-104699500D01*
X117927604Y-104679815D01*
X117881849Y-104627011D01*
X117871905Y-104557853D01*
X117900930Y-104494297D01*
X117956323Y-104457569D01*
X118002290Y-104442634D01*
X118185803Y-104349129D01*
X118352430Y-104228068D01*
X118498068Y-104082430D01*
X118619129Y-103915803D01*
X118712634Y-103732290D01*
X118776280Y-103536408D01*
X118808500Y-103332981D01*
X118808500Y-103127019D01*
X118788715Y-103002105D01*
X118776280Y-102923591D01*
X118742647Y-102820080D01*
X118712634Y-102727710D01*
X118712632Y-102727707D01*
X118712632Y-102727705D01*
X118675277Y-102654394D01*
X118619129Y-102544197D01*
X118587018Y-102500000D01*
X118577587Y-102487019D01*
X121491500Y-102487019D01*
X121491500Y-102692980D01*
X121523719Y-102896408D01*
X121587367Y-103092294D01*
X121651671Y-103218496D01*
X121672788Y-103259940D01*
X121680873Y-103275806D01*
X121801926Y-103442423D01*
X121801930Y-103442428D01*
X121947571Y-103588069D01*
X121947576Y-103588073D01*
X122092908Y-103693661D01*
X122114197Y-103709129D01*
X122229718Y-103767990D01*
X122297705Y-103802632D01*
X122297707Y-103802632D01*
X122297710Y-103802634D01*
X122402707Y-103836749D01*
X122493591Y-103866280D01*
X122595305Y-103882390D01*
X122697019Y-103898500D01*
X122697020Y-103898500D01*
X122902980Y-103898500D01*
X122902981Y-103898500D01*
X123106408Y-103866280D01*
X123302290Y-103802634D01*
X123485803Y-103709129D01*
X123652430Y-103588068D01*
X123798068Y-103442430D01*
X123919129Y-103275803D01*
X124012634Y-103092290D01*
X124076280Y-102896408D01*
X124108500Y-102692981D01*
X124108500Y-102487019D01*
X124094350Y-102397682D01*
X125700000Y-102397682D01*
X125700000Y-102602317D01*
X125732009Y-102804417D01*
X125795244Y-102999031D01*
X125888141Y-103181350D01*
X125888147Y-103181359D01*
X125920523Y-103225921D01*
X125920524Y-103225922D01*
X126600000Y-102546446D01*
X126600000Y-102552661D01*
X126627259Y-102654394D01*
X126679920Y-102745606D01*
X126754394Y-102820080D01*
X126845606Y-102872741D01*
X126947339Y-102900000D01*
X126953553Y-102900000D01*
X126274076Y-103579474D01*
X126318650Y-103611859D01*
X126500968Y-103704755D01*
X126695582Y-103767990D01*
X126897683Y-103800000D01*
X127102317Y-103800000D01*
X127304417Y-103767990D01*
X127499031Y-103704755D01*
X127681349Y-103611859D01*
X127725921Y-103579474D01*
X127046447Y-102900000D01*
X127052661Y-102900000D01*
X127154394Y-102872741D01*
X127245606Y-102820080D01*
X127320080Y-102745606D01*
X127372741Y-102654394D01*
X127400000Y-102552661D01*
X127400000Y-102546448D01*
X128079474Y-103225922D01*
X128079474Y-103225921D01*
X128111859Y-103181349D01*
X128204755Y-102999031D01*
X128267990Y-102804417D01*
X128300000Y-102602317D01*
X128300000Y-102397682D01*
X128267990Y-102195582D01*
X128204755Y-102000968D01*
X128111859Y-101818650D01*
X128079474Y-101774077D01*
X128079474Y-101774076D01*
X127400000Y-102453551D01*
X127400000Y-102447339D01*
X127372741Y-102345606D01*
X127320080Y-102254394D01*
X127245606Y-102179920D01*
X127154394Y-102127259D01*
X127052661Y-102100000D01*
X127046446Y-102100000D01*
X127725922Y-101420524D01*
X127725921Y-101420523D01*
X127681359Y-101388147D01*
X127681350Y-101388141D01*
X127499031Y-101295244D01*
X127304417Y-101232009D01*
X127102317Y-101200000D01*
X126897683Y-101200000D01*
X126695582Y-101232009D01*
X126500968Y-101295244D01*
X126318644Y-101388143D01*
X126274077Y-101420523D01*
X126274077Y-101420524D01*
X126953554Y-102100000D01*
X126947339Y-102100000D01*
X126845606Y-102127259D01*
X126754394Y-102179920D01*
X126679920Y-102254394D01*
X126627259Y-102345606D01*
X126600000Y-102447339D01*
X126600000Y-102453553D01*
X125920524Y-101774077D01*
X125920523Y-101774077D01*
X125888143Y-101818644D01*
X125795244Y-102000968D01*
X125732009Y-102195582D01*
X125700000Y-102397682D01*
X124094350Y-102397682D01*
X124076280Y-102283592D01*
X124070958Y-102267214D01*
X124037138Y-102163125D01*
X124012634Y-102087710D01*
X124012632Y-102087707D01*
X124012632Y-102087705D01*
X123976792Y-102017366D01*
X123919129Y-101904197D01*
X123875986Y-101844815D01*
X123798073Y-101737576D01*
X123798069Y-101737571D01*
X123652428Y-101591930D01*
X123619630Y-101568101D01*
X123619628Y-101568099D01*
X123485806Y-101470873D01*
X123485805Y-101470872D01*
X123485803Y-101470871D01*
X123428496Y-101441671D01*
X123302294Y-101377367D01*
X123106408Y-101313719D01*
X122930794Y-101285905D01*
X122902981Y-101281500D01*
X122697019Y-101281500D01*
X122672550Y-101285375D01*
X122493591Y-101313719D01*
X122297705Y-101377367D01*
X122114193Y-101470873D01*
X121947576Y-101591926D01*
X121947571Y-101591930D01*
X121801930Y-101737571D01*
X121801926Y-101737576D01*
X121680873Y-101904193D01*
X121587367Y-102087705D01*
X121523719Y-102283591D01*
X121491500Y-102487019D01*
X118577587Y-102487019D01*
X118498073Y-102377576D01*
X118498069Y-102377571D01*
X118352428Y-102231930D01*
X118352423Y-102231926D01*
X118185806Y-102110873D01*
X118185805Y-102110872D01*
X118185803Y-102110871D01*
X118128496Y-102081671D01*
X118002294Y-102017367D01*
X117806408Y-101953719D01*
X117623147Y-101924694D01*
X117602981Y-101921500D01*
X117397019Y-101921500D01*
X117272105Y-101941284D01*
X117202812Y-101932329D01*
X117165027Y-101906492D01*
X116215592Y-100957056D01*
X116215589Y-100957053D01*
X116197397Y-100944898D01*
X116197395Y-100944896D01*
X116101098Y-100880552D01*
X116101096Y-100880551D01*
X115973895Y-100827863D01*
X115973891Y-100827862D01*
X115900044Y-100813173D01*
X115869445Y-100807086D01*
X115838847Y-100801000D01*
X115838846Y-100801000D01*
X115838845Y-100801000D01*
X114076603Y-100801000D01*
X114009564Y-100781315D01*
X113963809Y-100728511D01*
X113953865Y-100659353D01*
X113962042Y-100629547D01*
X114031570Y-100461689D01*
X114031572Y-100461681D01*
X114069999Y-100268495D01*
X114070000Y-100268492D01*
X114070000Y-99870000D01*
X113370000Y-99870000D01*
X113370000Y-99370000D01*
X114070000Y-99370000D01*
X114070000Y-98971508D01*
X114069999Y-98971504D01*
X114031572Y-98778318D01*
X114031569Y-98778306D01*
X113956192Y-98596328D01*
X113956185Y-98596315D01*
X113846751Y-98432537D01*
X113846748Y-98432533D01*
X113707466Y-98293251D01*
X113707462Y-98293248D01*
X113543684Y-98183814D01*
X113543671Y-98183807D01*
X113361691Y-98108429D01*
X113361683Y-98108427D01*
X113320000Y-98100135D01*
X113320000Y-98903011D01*
X113310060Y-98885795D01*
X113254205Y-98829940D01*
X113185796Y-98790444D01*
X113109496Y-98770000D01*
X113030504Y-98770000D01*
X112954204Y-98790444D01*
X112885795Y-98829940D01*
X112829940Y-98885795D01*
X112820000Y-98903011D01*
X112820000Y-98099918D01*
X112781001Y-98042666D01*
X112775000Y-98004558D01*
X112775000Y-96932172D01*
X112774999Y-96932155D01*
X112768598Y-96872627D01*
X112768596Y-96872620D01*
X112718354Y-96737913D01*
X112718350Y-96737906D01*
X112632190Y-96622812D01*
X112632187Y-96622809D01*
X112517093Y-96536649D01*
X112517086Y-96536645D01*
X112382379Y-96486403D01*
X112382372Y-96486401D01*
X112322844Y-96480000D01*
X112225000Y-96480000D01*
X112225000Y-98081000D01*
X112222449Y-98089685D01*
X112223738Y-98098647D01*
X112212759Y-98122687D01*
X112205315Y-98148039D01*
X112198474Y-98153966D01*
X112194713Y-98162203D01*
X112172478Y-98176492D01*
X112152511Y-98193794D01*
X112141996Y-98196081D01*
X112135935Y-98199977D01*
X112101000Y-98205000D01*
X112014458Y-98205000D01*
X111947419Y-98185315D01*
X111901664Y-98132511D01*
X111892841Y-98105196D01*
X111872138Y-98001109D01*
X111836506Y-97915085D01*
X111819448Y-97873903D01*
X111819447Y-97873901D01*
X111794289Y-97836250D01*
X111745898Y-97763827D01*
X111725020Y-97697149D01*
X111725000Y-97694936D01*
X111725000Y-96480000D01*
X111627155Y-96480000D01*
X111567627Y-96486401D01*
X111567620Y-96486403D01*
X111432913Y-96536645D01*
X111432910Y-96536647D01*
X111333811Y-96610833D01*
X111268347Y-96635250D01*
X111200074Y-96620398D01*
X111150668Y-96570993D01*
X111135500Y-96511566D01*
X111135500Y-93764595D01*
X111155185Y-93697556D01*
X111171819Y-93676914D01*
X114176914Y-90671819D01*
X114238237Y-90638334D01*
X114264595Y-90635500D01*
X114531142Y-90635500D01*
X114598181Y-90655185D01*
X114631460Y-90686615D01*
X114751926Y-90852423D01*
X114751930Y-90852428D01*
X114897571Y-90998069D01*
X114897576Y-90998073D01*
X115009616Y-91079474D01*
X115064197Y-91119129D01*
X115166329Y-91171168D01*
X115247705Y-91212632D01*
X115247707Y-91212632D01*
X115247710Y-91212634D01*
X115352707Y-91246749D01*
X115443591Y-91276280D01*
X115513592Y-91287367D01*
X115647019Y-91308500D01*
X115647020Y-91308500D01*
X115852980Y-91308500D01*
X115852981Y-91308500D01*
X116056408Y-91276280D01*
X116252290Y-91212634D01*
X116435803Y-91119129D01*
X116602430Y-90998068D01*
X116748068Y-90852430D01*
X116869129Y-90685803D01*
X116962634Y-90502290D01*
X117026280Y-90306408D01*
X117058500Y-90102981D01*
X117058500Y-89897019D01*
X117038715Y-89772105D01*
X117026280Y-89693591D01*
X116986089Y-89569896D01*
X116962634Y-89497710D01*
X116962632Y-89497707D01*
X116962632Y-89497705D01*
X116927234Y-89428234D01*
X116869129Y-89314197D01*
X116839980Y-89274077D01*
X116748073Y-89147576D01*
X116748069Y-89147571D01*
X116602428Y-89001930D01*
X116602423Y-89001926D01*
X116435806Y-88880873D01*
X116435805Y-88880872D01*
X116435803Y-88880871D01*
X116378496Y-88851671D01*
X116252294Y-88787367D01*
X116056408Y-88723719D01*
X115880794Y-88695905D01*
X115852981Y-88691500D01*
X115647019Y-88691500D01*
X115637959Y-88692935D01*
X115443591Y-88723719D01*
X115247705Y-88787367D01*
X115064193Y-88880873D01*
X114897576Y-89001926D01*
X114897571Y-89001930D01*
X114751930Y-89147571D01*
X114751926Y-89147576D01*
X114631460Y-89313385D01*
X114576130Y-89356051D01*
X114531142Y-89364500D01*
X113887404Y-89364500D01*
X113764638Y-89388920D01*
X113764626Y-89388923D01*
X113648984Y-89436823D01*
X113648971Y-89436830D01*
X113544892Y-89506374D01*
X113544888Y-89506377D01*
X110320181Y-92731085D01*
X110258858Y-92764570D01*
X110189166Y-92759586D01*
X110133233Y-92717714D01*
X110108816Y-92652250D01*
X110108500Y-92643404D01*
X110108500Y-90533411D01*
X110128185Y-90466372D01*
X110144819Y-90445730D01*
X118029819Y-82560730D01*
X118091142Y-82527245D01*
X118160834Y-82532229D01*
X118216767Y-82574101D01*
X118241184Y-82639565D01*
X118241500Y-82648411D01*
X118241500Y-83398654D01*
X118248011Y-83459202D01*
X118248011Y-83459204D01*
X118299111Y-83596206D01*
X118299112Y-83596207D01*
X118366766Y-83686580D01*
X118374504Y-83707325D01*
X118386477Y-83725956D01*
X118389628Y-83747873D01*
X118391184Y-83752044D01*
X118391500Y-83760891D01*
X118391500Y-83972324D01*
X118371815Y-84039363D01*
X118355181Y-84060005D01*
X118294324Y-84120861D01*
X118294321Y-84120865D01*
X118194901Y-84269657D01*
X118194896Y-84269667D01*
X118126413Y-84434999D01*
X118126411Y-84435007D01*
X118091500Y-84610516D01*
X118091500Y-84789483D01*
X118126411Y-84964992D01*
X118126413Y-84965000D01*
X118194896Y-85130332D01*
X118194900Y-85130340D01*
X118294321Y-85279134D01*
X118294324Y-85279138D01*
X118420861Y-85405675D01*
X118420865Y-85405678D01*
X118569657Y-85505098D01*
X118569661Y-85505100D01*
X118569664Y-85505102D01*
X118574213Y-85506986D01*
X118628618Y-85550825D01*
X118650686Y-85617118D01*
X118633410Y-85684818D01*
X118582274Y-85732431D01*
X118565084Y-85739480D01*
X118417706Y-85787367D01*
X118234193Y-85880873D01*
X118067576Y-86001926D01*
X118067571Y-86001930D01*
X117921930Y-86147571D01*
X117921926Y-86147576D01*
X117800873Y-86314193D01*
X117707367Y-86497705D01*
X117643719Y-86693591D01*
X117627985Y-86792935D01*
X117611500Y-86897019D01*
X117611500Y-87102981D01*
X117613124Y-87113233D01*
X117643719Y-87306408D01*
X117707367Y-87502294D01*
X117761721Y-87608968D01*
X117777204Y-87639355D01*
X117800873Y-87685806D01*
X117921926Y-87852423D01*
X117921930Y-87852428D01*
X118067571Y-87998069D01*
X118067576Y-87998073D01*
X118198341Y-88093078D01*
X118234197Y-88119129D01*
X118351128Y-88178709D01*
X118417705Y-88212632D01*
X118417707Y-88212632D01*
X118417710Y-88212634D01*
X118497425Y-88238535D01*
X118613591Y-88276280D01*
X118715305Y-88292390D01*
X118817019Y-88308500D01*
X118817020Y-88308500D01*
X119022980Y-88308500D01*
X119022981Y-88308500D01*
X119226408Y-88276280D01*
X119422290Y-88212634D01*
X119605803Y-88119129D01*
X119772430Y-87998068D01*
X119918068Y-87852430D01*
X120039129Y-87685803D01*
X120132634Y-87502290D01*
X120196280Y-87306408D01*
X120228500Y-87102981D01*
X120228500Y-86897019D01*
X120211787Y-86791500D01*
X120196280Y-86693591D01*
X120140845Y-86522981D01*
X120132634Y-86497710D01*
X120132632Y-86497707D01*
X120132632Y-86497705D01*
X120081454Y-86397264D01*
X120039129Y-86314197D01*
X120000888Y-86261563D01*
X119918073Y-86147576D01*
X119918069Y-86147571D01*
X119772428Y-86001930D01*
X119772423Y-86001926D01*
X119605806Y-85880873D01*
X119605805Y-85880872D01*
X119605803Y-85880871D01*
X119422290Y-85787366D01*
X119364579Y-85768614D01*
X119306904Y-85729177D01*
X119279706Y-85664819D01*
X119291621Y-85595972D01*
X119338865Y-85544497D01*
X119355445Y-85536123D01*
X119379237Y-85526268D01*
X119430336Y-85505102D01*
X119579135Y-85405678D01*
X119705678Y-85279135D01*
X119777705Y-85171339D01*
X119805100Y-85130340D01*
X119805102Y-85130336D01*
X119873587Y-84965000D01*
X119908500Y-84789479D01*
X119908500Y-84610521D01*
X119873587Y-84435000D01*
X119805102Y-84269664D01*
X119805100Y-84269661D01*
X119805098Y-84269657D01*
X119705678Y-84120865D01*
X119705675Y-84120861D01*
X119644819Y-84060005D01*
X119630115Y-84033077D01*
X119613523Y-84007259D01*
X119612631Y-84001058D01*
X119611334Y-83998682D01*
X119608500Y-83972324D01*
X119608500Y-83853753D01*
X119628185Y-83786714D01*
X119658185Y-83754490D01*
X119713261Y-83713261D01*
X119800889Y-83596204D01*
X119851989Y-83459201D01*
X119855591Y-83425692D01*
X119858499Y-83398654D01*
X119858500Y-83398637D01*
X119858500Y-82601362D01*
X119858499Y-82601345D01*
X119855157Y-82570270D01*
X119851989Y-82540799D01*
X119848001Y-82530108D01*
X119812499Y-82434924D01*
X119800889Y-82403796D01*
X119713261Y-82286739D01*
X119596204Y-82199111D01*
X119565318Y-82187591D01*
X119459203Y-82148011D01*
X119398654Y-82141500D01*
X119398638Y-82141500D01*
X118748411Y-82141500D01*
X118727165Y-82135261D01*
X118705077Y-82133682D01*
X118694293Y-82125609D01*
X118681372Y-82121815D01*
X118666872Y-82105081D01*
X118649144Y-82091810D01*
X118644436Y-82079189D01*
X118635617Y-82069011D01*
X118632465Y-82047093D01*
X118624727Y-82026346D01*
X118627589Y-82013185D01*
X118625673Y-81999853D01*
X118634872Y-81979709D01*
X118639579Y-81958073D01*
X118652847Y-81940347D01*
X118654698Y-81936297D01*
X118660730Y-81929819D01*
X118695730Y-81894819D01*
X118757053Y-81861334D01*
X118783411Y-81858500D01*
X119398638Y-81858500D01*
X119398654Y-81858499D01*
X119425692Y-81855591D01*
X119459201Y-81851989D01*
X119464537Y-81849999D01*
X119481703Y-81843596D01*
X119596204Y-81800889D01*
X119713261Y-81713261D01*
X119713263Y-81713257D01*
X119718391Y-81708131D01*
X119779714Y-81674646D01*
X119849406Y-81679630D01*
X119885161Y-81702609D01*
X119885712Y-81701875D01*
X120007906Y-81793350D01*
X120007913Y-81793354D01*
X120142620Y-81843596D01*
X120142627Y-81843598D01*
X120202155Y-81849999D01*
X120202172Y-81850000D01*
X120500000Y-81850000D01*
X121000000Y-81850000D01*
X121297828Y-81850000D01*
X121297844Y-81849999D01*
X121357372Y-81843598D01*
X121357379Y-81843596D01*
X121492086Y-81793354D01*
X121492093Y-81793350D01*
X121607187Y-81707190D01*
X121607190Y-81707187D01*
X121693350Y-81592093D01*
X121693354Y-81592086D01*
X121743596Y-81457379D01*
X121743598Y-81457372D01*
X121749999Y-81397844D01*
X121750000Y-81397827D01*
X121750000Y-81250000D01*
X121000000Y-81250000D01*
X121000000Y-81850000D01*
X120500000Y-81850000D01*
X120500000Y-80750000D01*
X121000000Y-80750000D01*
X121750000Y-80750000D01*
X121750000Y-80602172D01*
X121749999Y-80602155D01*
X121743598Y-80542627D01*
X121743596Y-80542620D01*
X121693354Y-80407913D01*
X121693350Y-80407906D01*
X121607190Y-80292812D01*
X121607187Y-80292809D01*
X121492093Y-80206649D01*
X121492086Y-80206645D01*
X121357379Y-80156403D01*
X121357372Y-80156401D01*
X121297844Y-80150000D01*
X121000000Y-80150000D01*
X121000000Y-80750000D01*
X120500000Y-80750000D01*
X120500000Y-80150000D01*
X120202155Y-80150000D01*
X120142627Y-80156401D01*
X120142617Y-80156403D01*
X120017269Y-80203155D01*
X119947578Y-80208139D01*
X119886255Y-80174653D01*
X119852771Y-80113330D01*
X119857756Y-80043638D01*
X119886254Y-79999294D01*
X120065730Y-79819819D01*
X120127053Y-79786334D01*
X120153411Y-79783500D01*
X122046589Y-79783500D01*
X122113628Y-79803185D01*
X122134270Y-79819819D01*
X122601798Y-80287347D01*
X122635283Y-80348670D01*
X122632049Y-80413343D01*
X122628721Y-80423586D01*
X122628720Y-80423590D01*
X122596500Y-80627019D01*
X122596500Y-80832980D01*
X122628719Y-81036408D01*
X122692367Y-81232294D01*
X122730114Y-81306375D01*
X122781469Y-81407164D01*
X122785873Y-81415806D01*
X122906926Y-81582423D01*
X122906930Y-81582428D01*
X123052571Y-81728069D01*
X123052576Y-81728073D01*
X123152800Y-81800889D01*
X123219197Y-81849129D01*
X123328347Y-81904744D01*
X123402705Y-81942632D01*
X123402707Y-81942632D01*
X123402710Y-81942634D01*
X123464264Y-81962634D01*
X123598591Y-82006280D01*
X123653647Y-82015000D01*
X123802019Y-82038500D01*
X123802020Y-82038500D01*
X124007980Y-82038500D01*
X124007981Y-82038500D01*
X124211408Y-82006280D01*
X124407290Y-81942634D01*
X124590803Y-81849129D01*
X124757430Y-81728068D01*
X124903068Y-81582430D01*
X125024129Y-81415803D01*
X125117634Y-81232290D01*
X125181280Y-81036408D01*
X125213500Y-80832981D01*
X125213500Y-80627019D01*
X125204441Y-80569826D01*
X125181280Y-80423591D01*
X125135579Y-80282939D01*
X125117634Y-80227710D01*
X125117632Y-80227707D01*
X125117632Y-80227705D01*
X125081300Y-80156401D01*
X125024129Y-80044197D01*
X124987945Y-79994394D01*
X124903073Y-79877576D01*
X124903069Y-79877571D01*
X124757428Y-79731930D01*
X124757423Y-79731926D01*
X124590806Y-79610873D01*
X124590805Y-79610872D01*
X124590803Y-79610871D01*
X124480939Y-79554892D01*
X124407294Y-79517367D01*
X124211408Y-79453719D01*
X124032491Y-79425382D01*
X124007981Y-79421500D01*
X123802019Y-79421500D01*
X123739425Y-79431414D01*
X123598590Y-79453720D01*
X123598586Y-79453721D01*
X123588343Y-79457049D01*
X123518501Y-79459042D01*
X123462347Y-79426798D01*
X122723629Y-78688080D01*
X122723627Y-78688078D01*
X122584873Y-78607968D01*
X122507491Y-78587234D01*
X122507490Y-78587233D01*
X122450671Y-78572009D01*
X122430111Y-78566500D01*
X119769889Y-78566500D01*
X119615128Y-78607968D01*
X119615125Y-78607969D01*
X119476376Y-78688075D01*
X119476371Y-78688079D01*
X118563080Y-79601370D01*
X118563078Y-79601373D01*
X118484380Y-79737682D01*
X118482968Y-79740127D01*
X118470587Y-79786334D01*
X118465683Y-79804637D01*
X118441500Y-79894889D01*
X118441500Y-80183675D01*
X118421815Y-80250714D01*
X118391815Y-80282939D01*
X118386740Y-80286738D01*
X118299111Y-80403795D01*
X118248011Y-80540795D01*
X118248011Y-80540797D01*
X118242972Y-80587662D01*
X118216233Y-80652213D01*
X118207364Y-80662086D01*
X109013080Y-89856370D01*
X109013076Y-89856376D01*
X108932967Y-89995128D01*
X108930931Y-90002728D01*
X108930931Y-90002730D01*
X108891500Y-90149889D01*
X108891500Y-94946589D01*
X108885261Y-94967834D01*
X108883682Y-94989923D01*
X108875609Y-95000706D01*
X108871815Y-95013628D01*
X108855081Y-95028127D01*
X108841810Y-95045856D01*
X108829189Y-95050563D01*
X108819011Y-95059383D01*
X108797093Y-95062534D01*
X108776346Y-95070273D01*
X108763185Y-95067410D01*
X108749853Y-95069327D01*
X108729709Y-95060127D01*
X108708073Y-95055421D01*
X108690347Y-95042152D01*
X108686297Y-95040302D01*
X108679819Y-95034270D01*
X108644819Y-94999270D01*
X108611334Y-94937947D01*
X108608500Y-94911589D01*
X108608500Y-87728411D01*
X108628185Y-87661372D01*
X108644819Y-87640730D01*
X113590730Y-82694819D01*
X113652053Y-82661334D01*
X113678411Y-82658500D01*
X113764480Y-82658500D01*
X113764481Y-82658499D01*
X113940000Y-82623587D01*
X114105336Y-82555102D01*
X114254135Y-82455678D01*
X114380678Y-82329135D01*
X114480102Y-82180336D01*
X114548587Y-82015000D01*
X114583500Y-81839479D01*
X114583500Y-81660521D01*
X114548587Y-81485000D01*
X114480102Y-81319664D01*
X114480100Y-81319661D01*
X114480098Y-81319657D01*
X114380678Y-81170865D01*
X114380675Y-81170861D01*
X114254135Y-81044321D01*
X114150862Y-80975317D01*
X114105342Y-80944901D01*
X114105332Y-80944896D01*
X113940000Y-80876413D01*
X113939992Y-80876411D01*
X113764483Y-80841500D01*
X113764479Y-80841500D01*
X113585521Y-80841500D01*
X113585516Y-80841500D01*
X113410007Y-80876411D01*
X113409999Y-80876413D01*
X113244667Y-80944896D01*
X113244657Y-80944901D01*
X113095865Y-81044321D01*
X113095861Y-81044324D01*
X112969324Y-81170861D01*
X112969321Y-81170865D01*
X112869901Y-81319657D01*
X112869896Y-81319667D01*
X112801413Y-81484999D01*
X112801411Y-81485007D01*
X112766500Y-81660516D01*
X112766500Y-81746589D01*
X112746815Y-81813628D01*
X112730181Y-81834270D01*
X107513080Y-87051370D01*
X107513078Y-87051373D01*
X107432967Y-87190127D01*
X107432967Y-87190128D01*
X107428044Y-87208499D01*
X107428045Y-87208500D01*
X107391500Y-87344889D01*
X107391500Y-95193404D01*
X107371815Y-95260443D01*
X107319011Y-95306198D01*
X107249853Y-95316142D01*
X107186297Y-95287117D01*
X107179819Y-95281085D01*
X106405111Y-94506377D01*
X106405107Y-94506374D01*
X106301028Y-94436830D01*
X106301015Y-94436823D01*
X106185373Y-94388923D01*
X106185361Y-94388920D01*
X106062595Y-94364500D01*
X106062591Y-94364500D01*
X104718858Y-94364500D01*
X104651819Y-94344815D01*
X104618540Y-94313385D01*
X104498073Y-94147576D01*
X104498069Y-94147571D01*
X104352428Y-94001930D01*
X104352423Y-94001926D01*
X104185806Y-93880873D01*
X104185805Y-93880872D01*
X104185803Y-93880871D01*
X104128496Y-93851671D01*
X104002294Y-93787367D01*
X103806408Y-93723719D01*
X103630794Y-93695905D01*
X103602981Y-93691500D01*
X103397019Y-93691500D01*
X103372550Y-93695375D01*
X103193591Y-93723719D01*
X102997705Y-93787367D01*
X102814193Y-93880873D01*
X102647576Y-94001926D01*
X102647571Y-94001930D01*
X102501930Y-94147571D01*
X102501926Y-94147576D01*
X102380873Y-94314193D01*
X102287367Y-94497705D01*
X102223719Y-94693591D01*
X102191500Y-94897019D01*
X102191500Y-95102980D01*
X102223719Y-95306408D01*
X102287367Y-95502294D01*
X102335671Y-95597094D01*
X102380423Y-95684924D01*
X102380873Y-95685806D01*
X102501926Y-95852423D01*
X102501930Y-95852428D01*
X102647571Y-95998069D01*
X102647576Y-95998073D01*
X102744988Y-96068846D01*
X102814197Y-96119129D01*
X102926778Y-96176492D01*
X102997705Y-96212632D01*
X102997707Y-96212632D01*
X102997710Y-96212634D01*
X103084048Y-96240687D01*
X103193591Y-96276280D01*
X103263592Y-96287367D01*
X103397019Y-96308500D01*
X103397020Y-96308500D01*
X103602980Y-96308500D01*
X103602981Y-96308500D01*
X103806408Y-96276280D01*
X104002290Y-96212634D01*
X104185803Y-96119129D01*
X104352430Y-95998068D01*
X104498068Y-95852430D01*
X104528567Y-95810452D01*
X104618540Y-95686615D01*
X104673870Y-95643949D01*
X104718858Y-95635500D01*
X105685405Y-95635500D01*
X105752444Y-95655185D01*
X105773086Y-95671819D01*
X106694086Y-96592819D01*
X106727571Y-96654142D01*
X106722587Y-96723834D01*
X106680715Y-96779767D01*
X106615251Y-96804184D01*
X106606405Y-96804500D01*
X106378286Y-96804500D01*
X106311247Y-96784815D01*
X106273974Y-96744781D01*
X106273669Y-96745011D01*
X106271538Y-96742164D01*
X106269453Y-96739925D01*
X106268351Y-96737908D01*
X106182190Y-96622812D01*
X106182187Y-96622809D01*
X106067093Y-96536649D01*
X106067086Y-96536645D01*
X105932379Y-96486403D01*
X105932372Y-96486401D01*
X105872844Y-96480000D01*
X105775000Y-96480000D01*
X105775000Y-97694936D01*
X105755315Y-97761975D01*
X105754102Y-97763827D01*
X105680552Y-97873901D01*
X105680551Y-97873903D01*
X105627863Y-98001104D01*
X105627862Y-98001108D01*
X105627862Y-98001109D01*
X105607158Y-98105192D01*
X105592443Y-98133324D01*
X105579255Y-98162203D01*
X105576366Y-98164059D01*
X105574775Y-98167102D01*
X105547187Y-98182811D01*
X105520477Y-98199977D01*
X105515882Y-98200637D01*
X105514059Y-98201676D01*
X105485542Y-98205000D01*
X105399000Y-98205000D01*
X105331961Y-98185315D01*
X105286206Y-98132511D01*
X105275000Y-98081000D01*
X105275000Y-96480000D01*
X105177155Y-96480000D01*
X105117627Y-96486401D01*
X105117620Y-96486403D01*
X104982913Y-96536645D01*
X104982906Y-96536649D01*
X104867812Y-96622809D01*
X104867809Y-96622812D01*
X104781649Y-96737906D01*
X104781645Y-96737913D01*
X104731403Y-96872620D01*
X104731401Y-96872627D01*
X104725000Y-96932155D01*
X104725000Y-98004558D01*
X104705315Y-98071597D01*
X104680000Y-98100034D01*
X104680000Y-98903011D01*
X104670060Y-98885795D01*
X104614205Y-98829940D01*
X104545796Y-98790444D01*
X104469496Y-98770000D01*
X104390504Y-98770000D01*
X104314204Y-98790444D01*
X104245795Y-98829940D01*
X104189940Y-98885795D01*
X104180000Y-98903011D01*
X104180000Y-98100136D01*
X104179999Y-98100135D01*
X104138316Y-98108427D01*
X104138308Y-98108429D01*
X103956328Y-98183807D01*
X103956315Y-98183814D01*
X103792537Y-98293248D01*
X103792533Y-98293251D01*
X103653251Y-98432533D01*
X103653248Y-98432537D01*
X103543814Y-98596315D01*
X103543807Y-98596328D01*
X103468430Y-98778306D01*
X103468427Y-98778318D01*
X103430000Y-98971504D01*
X103430000Y-99370000D01*
X104130000Y-99370000D01*
X104130000Y-99870000D01*
X103430000Y-99870000D01*
X103430000Y-100268495D01*
X103468427Y-100461681D01*
X103468430Y-100461693D01*
X103543807Y-100643671D01*
X103543814Y-100643684D01*
X103653248Y-100807462D01*
X103653251Y-100807466D01*
X103792533Y-100946748D01*
X103792537Y-100946751D01*
X103956315Y-101056185D01*
X103956328Y-101056192D01*
X104138308Y-101131569D01*
X104180000Y-101139862D01*
X104180000Y-100336988D01*
X104189940Y-100354205D01*
X104245795Y-100410060D01*
X104314204Y-100449556D01*
X104390504Y-100470000D01*
X104469496Y-100470000D01*
X104545796Y-100449556D01*
X104614205Y-100410060D01*
X104670060Y-100354205D01*
X104680000Y-100336988D01*
X104680000Y-101139862D01*
X104721690Y-101131569D01*
X104721692Y-101131569D01*
X104903671Y-101056192D01*
X104903684Y-101056185D01*
X105067462Y-100946751D01*
X105067466Y-100946748D01*
X105206748Y-100807466D01*
X105206751Y-100807462D01*
X105319574Y-100638613D01*
X105321007Y-100639570D01*
X105364198Y-100595580D01*
X105432332Y-100580103D01*
X105498018Y-100603919D01*
X105500089Y-100605697D01*
X105500189Y-100605568D01*
X105506630Y-100610510D01*
X105506635Y-100610515D01*
X105637865Y-100686281D01*
X105784234Y-100725500D01*
X105784236Y-100725500D01*
X105935764Y-100725500D01*
X105935766Y-100725500D01*
X106082135Y-100686281D01*
X106213365Y-100610515D01*
X106226987Y-100596892D01*
X106288305Y-100563407D01*
X106357997Y-100568388D01*
X106402350Y-100596891D01*
X107018402Y-101212944D01*
X107018405Y-101212947D01*
X107065958Y-101244721D01*
X107065961Y-101244722D01*
X107070432Y-101247710D01*
X107132894Y-101289446D01*
X107185587Y-101311272D01*
X107191866Y-101313873D01*
X107191870Y-101313875D01*
X107221242Y-101326041D01*
X107260105Y-101342139D01*
X107395149Y-101369000D01*
X107395150Y-101369000D01*
X108409103Y-101369000D01*
X108476142Y-101388685D01*
X108496784Y-101405319D01*
X109037051Y-101945586D01*
X109134414Y-102042949D01*
X109154557Y-102056408D01*
X109248899Y-102119446D01*
X109248900Y-102119446D01*
X109248901Y-102119447D01*
X109248903Y-102119448D01*
X109354364Y-102163131D01*
X109376109Y-102172138D01*
X109511149Y-102198999D01*
X109511153Y-102199000D01*
X109511154Y-102199000D01*
X109511155Y-102199000D01*
X115429103Y-102199000D01*
X115496142Y-102218685D01*
X115516784Y-102235319D01*
X116176492Y-102895027D01*
X116209977Y-102956350D01*
X116211284Y-103002105D01*
X116191500Y-103127018D01*
X116191500Y-103332980D01*
X116223719Y-103536408D01*
X116287367Y-103732294D01*
X116380873Y-103915806D01*
X116501926Y-104082423D01*
X116501930Y-104082428D01*
X116647571Y-104228069D01*
X116647576Y-104228073D01*
X116724836Y-104284205D01*
X116814197Y-104349129D01*
X116931128Y-104408709D01*
X116997705Y-104442632D01*
X116997707Y-104442632D01*
X116997710Y-104442634D01*
X117043676Y-104457569D01*
X117101351Y-104497007D01*
X117128549Y-104561366D01*
X117116634Y-104630212D01*
X117069390Y-104681688D01*
X117005357Y-104699500D01*
X114089651Y-104699500D01*
X114022612Y-104679815D01*
X113976857Y-104627011D01*
X113966913Y-104557853D01*
X113975090Y-104528048D01*
X114031569Y-104391693D01*
X114031572Y-104391681D01*
X114069999Y-104198495D01*
X114070000Y-104198492D01*
X114070000Y-104050000D01*
X113370000Y-104050000D01*
X113370000Y-103550000D01*
X114070000Y-103550000D01*
X114070000Y-103401508D01*
X114069999Y-103401504D01*
X114031572Y-103208318D01*
X114031569Y-103208306D01*
X113956192Y-103026328D01*
X113956185Y-103026315D01*
X113846751Y-102862537D01*
X113846748Y-102862533D01*
X113707466Y-102723251D01*
X113707462Y-102723248D01*
X113543684Y-102613814D01*
X113543671Y-102613807D01*
X113361691Y-102538429D01*
X113361683Y-102538427D01*
X113320000Y-102530135D01*
X113320000Y-103333011D01*
X113310060Y-103315795D01*
X113254205Y-103259940D01*
X113185796Y-103220444D01*
X113109496Y-103200000D01*
X113030504Y-103200000D01*
X112954204Y-103220444D01*
X112885795Y-103259940D01*
X112829940Y-103315795D01*
X112820000Y-103333011D01*
X112820000Y-102530136D01*
X112819999Y-102530135D01*
X112778316Y-102538427D01*
X112778308Y-102538429D01*
X112596328Y-102613807D01*
X112596315Y-102613814D01*
X112432537Y-102723248D01*
X112432533Y-102723251D01*
X112293251Y-102862533D01*
X112293248Y-102862537D01*
X112183814Y-103026315D01*
X112183807Y-103026328D01*
X112108430Y-103208306D01*
X112108427Y-103208318D01*
X112070000Y-103401504D01*
X112070000Y-103550000D01*
X112770000Y-103550000D01*
X112770000Y-104050000D01*
X112070000Y-104050000D01*
X112070000Y-104198495D01*
X112108427Y-104391681D01*
X112108430Y-104391693D01*
X112164910Y-104528048D01*
X112172379Y-104597517D01*
X112141104Y-104659996D01*
X112081015Y-104695648D01*
X112050349Y-104699500D01*
X105449651Y-104699500D01*
X105382612Y-104679815D01*
X105336857Y-104627011D01*
X105326913Y-104557853D01*
X105335090Y-104528048D01*
X105391569Y-104391693D01*
X105391572Y-104391681D01*
X105429999Y-104198495D01*
X105430000Y-104198492D01*
X105430000Y-104050000D01*
X104730000Y-104050000D01*
X104730000Y-103550000D01*
X105430000Y-103550000D01*
X105430000Y-103401508D01*
X105429999Y-103401504D01*
X105391572Y-103208318D01*
X105391569Y-103208306D01*
X105316192Y-103026328D01*
X105316185Y-103026315D01*
X105206751Y-102862537D01*
X105206748Y-102862533D01*
X105067466Y-102723251D01*
X105067462Y-102723248D01*
X104903684Y-102613814D01*
X104903671Y-102613807D01*
X104721691Y-102538429D01*
X104721683Y-102538427D01*
X104680000Y-102530135D01*
X104680000Y-103333011D01*
X104670060Y-103315795D01*
X104614205Y-103259940D01*
X104545796Y-103220444D01*
X104469496Y-103200000D01*
X104390504Y-103200000D01*
X104314204Y-103220444D01*
X104245795Y-103259940D01*
X104189940Y-103315795D01*
X104180000Y-103333011D01*
X104180000Y-102530136D01*
X104179999Y-102530135D01*
X104138316Y-102538427D01*
X104138308Y-102538429D01*
X103956328Y-102613807D01*
X103956315Y-102613814D01*
X103792537Y-102723248D01*
X103792533Y-102723251D01*
X103653251Y-102862533D01*
X103653248Y-102862537D01*
X103543814Y-103026315D01*
X103543807Y-103026328D01*
X103468430Y-103208306D01*
X103468427Y-103208318D01*
X103430000Y-103401504D01*
X103430000Y-103550000D01*
X104130000Y-103550000D01*
X104130000Y-104050000D01*
X103430000Y-104050000D01*
X103430000Y-104198495D01*
X103468427Y-104391681D01*
X103468430Y-104391693D01*
X103524910Y-104528048D01*
X103532379Y-104597517D01*
X103501104Y-104659996D01*
X103441015Y-104695648D01*
X103410349Y-104699500D01*
X101424500Y-104699500D01*
X101357461Y-104679815D01*
X101311706Y-104627011D01*
X101300500Y-104575500D01*
X101300500Y-83535807D01*
X101320185Y-83468768D01*
X101372989Y-83423013D01*
X101442147Y-83413069D01*
X101498814Y-83436542D01*
X101507913Y-83443354D01*
X101642620Y-83493596D01*
X101642627Y-83493598D01*
X101702155Y-83499999D01*
X101702172Y-83500000D01*
X102751270Y-83500000D01*
X102818309Y-83519685D01*
X102864064Y-83572489D01*
X102874008Y-83641647D01*
X102844983Y-83705203D01*
X102822102Y-83724601D01*
X102822592Y-83725276D01*
X102774077Y-83760523D01*
X102774077Y-83760524D01*
X103453554Y-84440000D01*
X103447339Y-84440000D01*
X103345606Y-84467259D01*
X103254394Y-84519920D01*
X103179920Y-84594394D01*
X103127259Y-84685606D01*
X103100000Y-84787339D01*
X103100000Y-84793553D01*
X102420524Y-84114077D01*
X102420523Y-84114077D01*
X102388143Y-84158644D01*
X102295244Y-84340968D01*
X102232009Y-84535582D01*
X102200000Y-84737682D01*
X102200000Y-84942317D01*
X102232009Y-85144417D01*
X102295244Y-85339031D01*
X102388141Y-85521350D01*
X102388147Y-85521359D01*
X102420523Y-85565921D01*
X102420524Y-85565922D01*
X103100000Y-84886446D01*
X103100000Y-84892661D01*
X103127259Y-84994394D01*
X103179920Y-85085606D01*
X103254394Y-85160080D01*
X103345606Y-85212741D01*
X103447339Y-85240000D01*
X103453553Y-85240000D01*
X102774076Y-85919474D01*
X102818650Y-85951859D01*
X103000968Y-86044755D01*
X103195582Y-86107990D01*
X103397683Y-86140000D01*
X103602317Y-86140000D01*
X103804417Y-86107990D01*
X103999031Y-86044755D01*
X104181349Y-85951859D01*
X104225921Y-85919474D01*
X103546447Y-85240000D01*
X103552661Y-85240000D01*
X103654394Y-85212741D01*
X103745606Y-85160080D01*
X103820080Y-85085606D01*
X103872741Y-84994394D01*
X103900000Y-84892661D01*
X103900000Y-84886448D01*
X104579474Y-85565922D01*
X104579474Y-85565921D01*
X104611859Y-85521349D01*
X104704755Y-85339031D01*
X104767990Y-85144417D01*
X104800000Y-84942317D01*
X104800000Y-84737682D01*
X104767990Y-84535582D01*
X104704755Y-84340968D01*
X104611859Y-84158650D01*
X104579474Y-84114077D01*
X104579474Y-84114076D01*
X103900000Y-84793551D01*
X103900000Y-84787339D01*
X103872741Y-84685606D01*
X103820080Y-84594394D01*
X103745606Y-84519920D01*
X103654394Y-84467259D01*
X103552661Y-84440000D01*
X103546446Y-84440000D01*
X104225922Y-83760524D01*
X104225921Y-83760523D01*
X104177408Y-83725276D01*
X104178526Y-83723736D01*
X104137074Y-83677937D01*
X104125638Y-83609010D01*
X104153283Y-83544842D01*
X104211231Y-83505806D01*
X104248729Y-83500000D01*
X104875000Y-83500000D01*
X104875000Y-82034776D01*
X104990636Y-82050000D01*
X105259364Y-82050000D01*
X105375000Y-82034776D01*
X105375000Y-83500000D01*
X108547828Y-83500000D01*
X108547844Y-83499999D01*
X108607372Y-83493598D01*
X108607379Y-83493596D01*
X108742086Y-83443354D01*
X108742093Y-83443350D01*
X108857187Y-83357190D01*
X108857190Y-83357187D01*
X108943350Y-83242093D01*
X108943354Y-83242086D01*
X108993596Y-83107379D01*
X108993598Y-83107372D01*
X108999999Y-83047844D01*
X109000000Y-83047827D01*
X109000000Y-80250000D01*
X107159776Y-80250000D01*
X107175000Y-80134364D01*
X107175000Y-79865636D01*
X107159776Y-79750000D01*
X109000000Y-79750000D01*
X109000000Y-79737682D01*
X114450000Y-79737682D01*
X114450000Y-79942317D01*
X114482009Y-80144417D01*
X114545244Y-80339031D01*
X114638141Y-80521350D01*
X114638147Y-80521359D01*
X114670523Y-80565921D01*
X114670524Y-80565922D01*
X115350000Y-79886446D01*
X115350000Y-79892661D01*
X115377259Y-79994394D01*
X115429920Y-80085606D01*
X115504394Y-80160080D01*
X115595606Y-80212741D01*
X115697339Y-80240000D01*
X115703553Y-80240000D01*
X115024076Y-80919474D01*
X115068650Y-80951859D01*
X115250968Y-81044755D01*
X115445582Y-81107990D01*
X115647683Y-81140000D01*
X115852317Y-81140000D01*
X116054417Y-81107990D01*
X116249031Y-81044755D01*
X116431349Y-80951859D01*
X116475921Y-80919474D01*
X115796447Y-80240000D01*
X115802661Y-80240000D01*
X115904394Y-80212741D01*
X115995606Y-80160080D01*
X116070080Y-80085606D01*
X116122741Y-79994394D01*
X116150000Y-79892661D01*
X116150000Y-79886448D01*
X116829474Y-80565922D01*
X116829474Y-80565921D01*
X116861859Y-80521349D01*
X116954755Y-80339031D01*
X117017990Y-80144417D01*
X117050000Y-79942317D01*
X117050000Y-79737682D01*
X117017990Y-79535582D01*
X116954755Y-79340968D01*
X116861859Y-79158650D01*
X116829474Y-79114077D01*
X116829474Y-79114076D01*
X116150000Y-79793551D01*
X116150000Y-79787339D01*
X116122741Y-79685606D01*
X116070080Y-79594394D01*
X115995606Y-79519920D01*
X115904394Y-79467259D01*
X115802661Y-79440000D01*
X115796446Y-79440000D01*
X116475922Y-78760524D01*
X116475921Y-78760523D01*
X116431359Y-78728147D01*
X116431350Y-78728141D01*
X116249031Y-78635244D01*
X116054417Y-78572009D01*
X115852317Y-78540000D01*
X115647683Y-78540000D01*
X115445582Y-78572009D01*
X115250968Y-78635244D01*
X115068644Y-78728143D01*
X115024077Y-78760523D01*
X115024077Y-78760524D01*
X115703554Y-79440000D01*
X115697339Y-79440000D01*
X115595606Y-79467259D01*
X115504394Y-79519920D01*
X115429920Y-79594394D01*
X115377259Y-79685606D01*
X115350000Y-79787339D01*
X115350000Y-79793553D01*
X114670524Y-79114077D01*
X114670523Y-79114077D01*
X114638143Y-79158644D01*
X114545244Y-79340968D01*
X114482009Y-79535582D01*
X114450000Y-79737682D01*
X109000000Y-79737682D01*
X109000000Y-76952172D01*
X108999999Y-76952155D01*
X108993598Y-76892627D01*
X108993596Y-76892620D01*
X108943354Y-76757913D01*
X108943350Y-76757906D01*
X108857190Y-76642812D01*
X108857187Y-76642809D01*
X108742093Y-76556649D01*
X108742086Y-76556645D01*
X108645473Y-76520611D01*
X108607379Y-76506403D01*
X108607372Y-76506401D01*
X108547844Y-76500000D01*
X105375000Y-76500000D01*
X105375000Y-77965223D01*
X105259364Y-77950000D01*
X104990636Y-77950000D01*
X104875000Y-77965223D01*
X104875000Y-76500000D01*
X101702155Y-76500000D01*
X101642627Y-76506401D01*
X101642620Y-76506403D01*
X101507913Y-76556645D01*
X101507911Y-76556646D01*
X101498810Y-76563460D01*
X101433345Y-76587876D01*
X101365072Y-76573024D01*
X101315667Y-76523618D01*
X101300500Y-76464192D01*
X101300500Y-76410516D01*
X109591500Y-76410516D01*
X109591500Y-76589483D01*
X109626411Y-76764992D01*
X109626413Y-76765000D01*
X109694896Y-76930332D01*
X109694901Y-76930342D01*
X109794321Y-77079134D01*
X109794324Y-77079138D01*
X109920861Y-77205675D01*
X109920865Y-77205678D01*
X110069657Y-77305098D01*
X110069661Y-77305100D01*
X110069664Y-77305102D01*
X110235000Y-77373587D01*
X110410516Y-77408499D01*
X110410520Y-77408500D01*
X110410521Y-77408500D01*
X110589480Y-77408500D01*
X110589481Y-77408499D01*
X110765000Y-77373587D01*
X110930336Y-77305102D01*
X111079135Y-77205678D01*
X111205678Y-77079135D01*
X111305102Y-76930336D01*
X111373587Y-76765000D01*
X111408500Y-76589479D01*
X111408500Y-76541595D01*
X111428185Y-76474556D01*
X111444819Y-76453914D01*
X112951914Y-74946819D01*
X113013237Y-74913334D01*
X113039595Y-74910500D01*
X131935405Y-74910500D01*
X132002444Y-74930185D01*
X132023086Y-74946819D01*
X135165910Y-78089643D01*
X135199395Y-78150966D01*
X135194411Y-78220658D01*
X135152539Y-78276591D01*
X135087075Y-78301008D01*
X135074938Y-78300845D01*
X135074938Y-78301000D01*
X132931149Y-78301000D01*
X132806152Y-78325863D01*
X132806153Y-78325864D01*
X132796113Y-78327861D01*
X132796105Y-78327863D01*
X132668903Y-78380551D01*
X132632150Y-78405109D01*
X132554410Y-78457052D01*
X128321100Y-82690362D01*
X128259777Y-82723847D01*
X128211402Y-82723332D01*
X128211220Y-82724482D01*
X128056647Y-82700000D01*
X128002981Y-82691500D01*
X127797019Y-82691500D01*
X127776064Y-82694819D01*
X127593591Y-82723719D01*
X127397705Y-82787367D01*
X127214193Y-82880873D01*
X127047576Y-83001926D01*
X127047571Y-83001930D01*
X126901930Y-83147571D01*
X126901926Y-83147576D01*
X126780873Y-83314193D01*
X126687367Y-83497705D01*
X126623719Y-83693591D01*
X126597922Y-83856471D01*
X126591500Y-83897019D01*
X126591500Y-84102981D01*
X126594332Y-84120861D01*
X126624482Y-84311220D01*
X126622911Y-84311468D01*
X126619755Y-84374283D01*
X126590362Y-84421101D01*
X125087680Y-85923783D01*
X125026357Y-85957268D01*
X124956665Y-85952284D01*
X124912318Y-85923783D01*
X121794819Y-82806284D01*
X121761334Y-82744961D01*
X121758500Y-82718603D01*
X121758500Y-82601362D01*
X121758499Y-82601345D01*
X121755157Y-82570270D01*
X121751989Y-82540799D01*
X121748001Y-82530108D01*
X121712499Y-82434924D01*
X121700889Y-82403796D01*
X121613261Y-82286739D01*
X121496204Y-82199111D01*
X121465318Y-82187591D01*
X121359203Y-82148011D01*
X121298654Y-82141500D01*
X121298638Y-82141500D01*
X120601362Y-82141500D01*
X120601345Y-82141500D01*
X120540797Y-82148011D01*
X120540795Y-82148011D01*
X120403795Y-82199111D01*
X120286739Y-82286739D01*
X120199111Y-82403795D01*
X120148011Y-82540795D01*
X120148011Y-82540797D01*
X120141500Y-82601345D01*
X120141500Y-83398654D01*
X120148011Y-83459202D01*
X120148011Y-83459204D01*
X120199111Y-83596204D01*
X120286739Y-83713261D01*
X120403796Y-83800889D01*
X120540799Y-83851989D01*
X120568050Y-83854918D01*
X120601345Y-83858499D01*
X120601362Y-83858500D01*
X120818603Y-83858500D01*
X120885642Y-83878185D01*
X120906284Y-83894819D01*
X123923784Y-86912319D01*
X123957269Y-86973642D01*
X123952285Y-87043334D01*
X123923784Y-87087681D01*
X119246784Y-91764681D01*
X119185461Y-91798166D01*
X119159103Y-91801000D01*
X118672722Y-91801000D01*
X118605683Y-91781315D01*
X118572405Y-91749887D01*
X118498068Y-91647570D01*
X118352430Y-91501932D01*
X118352428Y-91501930D01*
X118352423Y-91501926D01*
X118185806Y-91380873D01*
X118185805Y-91380872D01*
X118185803Y-91380871D01*
X118127178Y-91351000D01*
X118002294Y-91287367D01*
X117806408Y-91223719D01*
X117630794Y-91195905D01*
X117602981Y-91191500D01*
X117397019Y-91191500D01*
X117372550Y-91195375D01*
X117193591Y-91223719D01*
X116997705Y-91287367D01*
X116814193Y-91380873D01*
X116647576Y-91501926D01*
X116647571Y-91501930D01*
X116501930Y-91647571D01*
X116501926Y-91647576D01*
X116380873Y-91814193D01*
X116287367Y-91997705D01*
X116223719Y-92193591D01*
X116198627Y-92352019D01*
X116191500Y-92397019D01*
X116191500Y-92602981D01*
X116195905Y-92630794D01*
X116223719Y-92806408D01*
X116287367Y-93002294D01*
X116347060Y-93119446D01*
X116373908Y-93172138D01*
X116380873Y-93185806D01*
X116501926Y-93352423D01*
X116501930Y-93352428D01*
X116647571Y-93498069D01*
X116647576Y-93498073D01*
X116792908Y-93603661D01*
X116814197Y-93619129D01*
X116901113Y-93663415D01*
X116997705Y-93712632D01*
X116997707Y-93712632D01*
X116997710Y-93712634D01*
X117066795Y-93735081D01*
X117193591Y-93776280D01*
X117285267Y-93790800D01*
X117397019Y-93808500D01*
X117397020Y-93808500D01*
X117602980Y-93808500D01*
X117602981Y-93808500D01*
X117806408Y-93776280D01*
X118002290Y-93712634D01*
X118185803Y-93619129D01*
X118352430Y-93498068D01*
X118498068Y-93352430D01*
X118572405Y-93250113D01*
X118627733Y-93207449D01*
X118672722Y-93199000D01*
X119568847Y-93199000D01*
X119568848Y-93198999D01*
X119703891Y-93172138D01*
X119831101Y-93119446D01*
X119945587Y-93042948D01*
X124662319Y-88326216D01*
X124723642Y-88292731D01*
X124793334Y-88297715D01*
X124837681Y-88326216D01*
X126176492Y-89665027D01*
X126209977Y-89726350D01*
X126211284Y-89772105D01*
X126191500Y-89897018D01*
X126191500Y-90102980D01*
X126223719Y-90306408D01*
X126287367Y-90502294D01*
X126332821Y-90591500D01*
X126378602Y-90681350D01*
X126380873Y-90685806D01*
X126501926Y-90852423D01*
X126501930Y-90852428D01*
X126647573Y-90998071D01*
X126749885Y-91072404D01*
X126792551Y-91127733D01*
X126801000Y-91172722D01*
X126801000Y-92877277D01*
X126781315Y-92944316D01*
X126749885Y-92977595D01*
X126647576Y-93051926D01*
X126647571Y-93051930D01*
X126501930Y-93197571D01*
X126501926Y-93197576D01*
X126380873Y-93364193D01*
X126287367Y-93547705D01*
X126223719Y-93743591D01*
X126191500Y-93947019D01*
X126191500Y-94152980D01*
X126223719Y-94356408D01*
X126287367Y-94552294D01*
X126310355Y-94597409D01*
X126379302Y-94732724D01*
X126380873Y-94735806D01*
X126501926Y-94902423D01*
X126501930Y-94902428D01*
X126647573Y-95048071D01*
X126749885Y-95122404D01*
X126792551Y-95177733D01*
X126801000Y-95222722D01*
X126801000Y-95659102D01*
X126781315Y-95726141D01*
X126764681Y-95746783D01*
X126334971Y-96176492D01*
X126273648Y-96209977D01*
X126227892Y-96211284D01*
X126178217Y-96203416D01*
X126102981Y-96191500D01*
X125897019Y-96191500D01*
X125872550Y-96195375D01*
X125693591Y-96223719D01*
X125497705Y-96287367D01*
X125314193Y-96380873D01*
X125147576Y-96501926D01*
X125147571Y-96501930D01*
X125001930Y-96647571D01*
X125001926Y-96647576D01*
X124880873Y-96814193D01*
X124787367Y-96997705D01*
X124723719Y-97193591D01*
X124691500Y-97397019D01*
X124691500Y-97602980D01*
X124723719Y-97806408D01*
X124787367Y-98002294D01*
X124837110Y-98099918D01*
X124880622Y-98185315D01*
X124880873Y-98185806D01*
X125001926Y-98352423D01*
X125001930Y-98352428D01*
X125147571Y-98498069D01*
X125147576Y-98498073D01*
X125205534Y-98540182D01*
X125248200Y-98595511D01*
X125254179Y-98665125D01*
X125221574Y-98726920D01*
X125160735Y-98761277D01*
X125132649Y-98764500D01*
X124884595Y-98764500D01*
X124817556Y-98744815D01*
X124796914Y-98728181D01*
X123471819Y-97403086D01*
X123438334Y-97341763D01*
X123435500Y-97315405D01*
X123435500Y-93648857D01*
X123455185Y-93581818D01*
X123486611Y-93548541D01*
X123652430Y-93428068D01*
X123798068Y-93282430D01*
X123919129Y-93115803D01*
X124012634Y-92932290D01*
X124076280Y-92736408D01*
X124108500Y-92532981D01*
X124108500Y-92327019D01*
X124076280Y-92123592D01*
X124069367Y-92102317D01*
X124035233Y-91997264D01*
X124012634Y-91927710D01*
X124012632Y-91927707D01*
X124012632Y-91927705D01*
X123977980Y-91859699D01*
X123919129Y-91744197D01*
X123848930Y-91647576D01*
X123798073Y-91577576D01*
X123798069Y-91577571D01*
X123652428Y-91431930D01*
X123652423Y-91431926D01*
X123485806Y-91310873D01*
X123485805Y-91310872D01*
X123485803Y-91310871D01*
X123395777Y-91265000D01*
X123302294Y-91217367D01*
X123106408Y-91153719D01*
X122930794Y-91125905D01*
X122902981Y-91121500D01*
X122697019Y-91121500D01*
X122672550Y-91125375D01*
X122493591Y-91153719D01*
X122297705Y-91217367D01*
X122114193Y-91310873D01*
X121947576Y-91431926D01*
X121947571Y-91431930D01*
X121801930Y-91577571D01*
X121801926Y-91577576D01*
X121680873Y-91744193D01*
X121587367Y-91927705D01*
X121523719Y-92123591D01*
X121491500Y-92327019D01*
X121491500Y-92532980D01*
X121523719Y-92736408D01*
X121587367Y-92932294D01*
X121623035Y-93002294D01*
X121678861Y-93111859D01*
X121680873Y-93115806D01*
X121801926Y-93282423D01*
X121801930Y-93282428D01*
X121801932Y-93282430D01*
X121947570Y-93428068D01*
X122113386Y-93548540D01*
X122156051Y-93603868D01*
X122164500Y-93648857D01*
X122164500Y-97692595D01*
X122188920Y-97815361D01*
X122188923Y-97815373D01*
X122236823Y-97931015D01*
X122236830Y-97931028D01*
X122306374Y-98035107D01*
X122306377Y-98035111D01*
X124164888Y-99893622D01*
X124164892Y-99893625D01*
X124268971Y-99963169D01*
X124268984Y-99963176D01*
X124357886Y-100000000D01*
X124384631Y-100011078D01*
X124507404Y-100035499D01*
X124507408Y-100035500D01*
X124507409Y-100035500D01*
X126962592Y-100035500D01*
X126962593Y-100035499D01*
X127085369Y-100011078D01*
X127201022Y-99963173D01*
X127305108Y-99893625D01*
X129513755Y-97684977D01*
X129575076Y-97651494D01*
X129644767Y-97656478D01*
X129700701Y-97698350D01*
X129723907Y-97753261D01*
X129732010Y-97804418D01*
X129795244Y-97999031D01*
X129888141Y-98181350D01*
X129888147Y-98181359D01*
X129920523Y-98225921D01*
X129920524Y-98225922D01*
X130600000Y-97546446D01*
X130600000Y-97552661D01*
X130627259Y-97654394D01*
X130679920Y-97745606D01*
X130754394Y-97820080D01*
X130845606Y-97872741D01*
X130947339Y-97900000D01*
X130953553Y-97900000D01*
X130274076Y-98579474D01*
X130318650Y-98611859D01*
X130500968Y-98704755D01*
X130695582Y-98767990D01*
X130897683Y-98800000D01*
X131102317Y-98800000D01*
X131304417Y-98767990D01*
X131499031Y-98704755D01*
X131681349Y-98611859D01*
X131725921Y-98579474D01*
X131046447Y-97900000D01*
X131052661Y-97900000D01*
X131154394Y-97872741D01*
X131245606Y-97820080D01*
X131320080Y-97745606D01*
X131372741Y-97654394D01*
X131400000Y-97552661D01*
X131400000Y-97546447D01*
X132079474Y-98225921D01*
X132111859Y-98181349D01*
X132204755Y-97999031D01*
X132267990Y-97804417D01*
X132300000Y-97602317D01*
X132300000Y-97397682D01*
X132267990Y-97195582D01*
X132237549Y-97101896D01*
X132235554Y-97032055D01*
X132271634Y-96972222D01*
X132334335Y-96941393D01*
X132355480Y-96939577D01*
X133529482Y-96939577D01*
X133596521Y-96959262D01*
X133617163Y-96975896D01*
X135213681Y-98572414D01*
X135247166Y-98633737D01*
X135250000Y-98660095D01*
X135250000Y-99624722D01*
X135173694Y-99580667D01*
X135059244Y-99550000D01*
X134940756Y-99550000D01*
X134826306Y-99580667D01*
X134750000Y-99624722D01*
X134750000Y-98600000D01*
X134052155Y-98600000D01*
X133992627Y-98606401D01*
X133992620Y-98606403D01*
X133857913Y-98656645D01*
X133857906Y-98656649D01*
X133742812Y-98742809D01*
X133742809Y-98742812D01*
X133656649Y-98857906D01*
X133656645Y-98857913D01*
X133606403Y-98992620D01*
X133606401Y-98992627D01*
X133600000Y-99052155D01*
X133600000Y-99750000D01*
X134624722Y-99750000D01*
X134580667Y-99826306D01*
X134550000Y-99940756D01*
X134550000Y-100059244D01*
X134580667Y-100173694D01*
X134624722Y-100250000D01*
X133600000Y-100250000D01*
X133600000Y-100947844D01*
X133606401Y-101007372D01*
X133606403Y-101007379D01*
X133656645Y-101142086D01*
X133656649Y-101142093D01*
X133742809Y-101257187D01*
X133742812Y-101257190D01*
X133857906Y-101343350D01*
X133857913Y-101343354D01*
X133992620Y-101393596D01*
X133992627Y-101393598D01*
X134052155Y-101399999D01*
X134052172Y-101400000D01*
X134750000Y-101400000D01*
X134750000Y-100375277D01*
X134826306Y-100419333D01*
X134940756Y-100450000D01*
X135059244Y-100450000D01*
X135173694Y-100419333D01*
X135250000Y-100375277D01*
X135250000Y-101400000D01*
X135947828Y-101400000D01*
X135947844Y-101399999D01*
X136007372Y-101393598D01*
X136007379Y-101393596D01*
X136142086Y-101343354D01*
X136142093Y-101343350D01*
X136257187Y-101257190D01*
X136257190Y-101257187D01*
X136343350Y-101142093D01*
X136343354Y-101142086D01*
X136370140Y-101070270D01*
X136412011Y-101014336D01*
X136477475Y-100989919D01*
X136545748Y-101004770D01*
X136574003Y-101025922D01*
X136622424Y-101074343D01*
X136801785Y-101204657D01*
X136880415Y-101244721D01*
X136999319Y-101305306D01*
X136999321Y-101305306D01*
X136999324Y-101305308D01*
X137210176Y-101373818D01*
X137429149Y-101408500D01*
X137429150Y-101408500D01*
X137650850Y-101408500D01*
X137650851Y-101408500D01*
X137869824Y-101373818D01*
X138080676Y-101305308D01*
X138278215Y-101204657D01*
X138457576Y-101074343D01*
X138614343Y-100917576D01*
X138744657Y-100738215D01*
X138845308Y-100540676D01*
X138913818Y-100329824D01*
X138948500Y-100110851D01*
X138948500Y-99889149D01*
X138913818Y-99670176D01*
X138845308Y-99459324D01*
X138845306Y-99459321D01*
X138845306Y-99459319D01*
X138759069Y-99290070D01*
X138744657Y-99261785D01*
X138614343Y-99082424D01*
X138457576Y-98925657D01*
X138278215Y-98795343D01*
X138244778Y-98778306D01*
X138080680Y-98694693D01*
X137869824Y-98626182D01*
X137779392Y-98611859D01*
X137650851Y-98591500D01*
X137429149Y-98591500D01*
X137356158Y-98603060D01*
X137210174Y-98626182D01*
X137172802Y-98638324D01*
X137102961Y-98640317D01*
X137046806Y-98608073D01*
X134249188Y-95810454D01*
X134249184Y-95810451D01*
X134145105Y-95740907D01*
X134145092Y-95740900D01*
X134029450Y-95693000D01*
X134029438Y-95692997D01*
X133906672Y-95668577D01*
X133906668Y-95668577D01*
X130058514Y-95668577D01*
X129933332Y-95668577D01*
X129933327Y-95668577D01*
X129810561Y-95692997D01*
X129810549Y-95693000D01*
X129694907Y-95740900D01*
X129694894Y-95740907D01*
X129590815Y-95810451D01*
X129590811Y-95810454D01*
X127486180Y-97915085D01*
X127424857Y-97948570D01*
X127355165Y-97943586D01*
X127299232Y-97901714D01*
X127274815Y-97836250D01*
X127276026Y-97808006D01*
X127276278Y-97806413D01*
X127276280Y-97806408D01*
X127308500Y-97602981D01*
X127308500Y-97397019D01*
X127288715Y-97272105D01*
X127297669Y-97202812D01*
X127323504Y-97165029D01*
X128042948Y-96445587D01*
X128047779Y-96438358D01*
X128119446Y-96331101D01*
X128172138Y-96203891D01*
X128199000Y-96068845D01*
X128199000Y-95222722D01*
X128199456Y-95221168D01*
X128199039Y-95219603D01*
X128209267Y-95187754D01*
X128218685Y-95155683D01*
X128220067Y-95154127D01*
X128220404Y-95153080D01*
X128227616Y-95145632D01*
X128244180Y-95126996D01*
X128247078Y-95124609D01*
X128352430Y-95048068D01*
X128498068Y-94902430D01*
X128619129Y-94735803D01*
X128712634Y-94552290D01*
X128776280Y-94356408D01*
X128808500Y-94152981D01*
X128808500Y-93947019D01*
X128783072Y-93786476D01*
X128776280Y-93743591D01*
X128733224Y-93611079D01*
X128712634Y-93547710D01*
X128712632Y-93547707D01*
X128712632Y-93547705D01*
X128666962Y-93458075D01*
X128619129Y-93364197D01*
X128570114Y-93296733D01*
X128498073Y-93197576D01*
X128498069Y-93197571D01*
X128461179Y-93160681D01*
X128427694Y-93099358D01*
X128432678Y-93029666D01*
X128474550Y-92973733D01*
X128540014Y-92949316D01*
X128548860Y-92949000D01*
X131701190Y-92949000D01*
X131768229Y-92968685D01*
X131788871Y-92985319D01*
X132453553Y-93650000D01*
X132447339Y-93650000D01*
X132345606Y-93677259D01*
X132254394Y-93729920D01*
X132179920Y-93804394D01*
X132127259Y-93895606D01*
X132100000Y-93997339D01*
X132100000Y-94003553D01*
X131420524Y-93324077D01*
X131420523Y-93324077D01*
X131388143Y-93368644D01*
X131295244Y-93550968D01*
X131232009Y-93745582D01*
X131200000Y-93947682D01*
X131200000Y-94152317D01*
X131232009Y-94354417D01*
X131295244Y-94549031D01*
X131388141Y-94731350D01*
X131388147Y-94731359D01*
X131420523Y-94775921D01*
X131420524Y-94775922D01*
X132100000Y-94096446D01*
X132100000Y-94102661D01*
X132127259Y-94204394D01*
X132179920Y-94295606D01*
X132254394Y-94370080D01*
X132345606Y-94422741D01*
X132447339Y-94450000D01*
X132453553Y-94450000D01*
X131774076Y-95129474D01*
X131818650Y-95161859D01*
X132000968Y-95254755D01*
X132195582Y-95317990D01*
X132397683Y-95350000D01*
X132602317Y-95350000D01*
X132804417Y-95317990D01*
X132999031Y-95254755D01*
X133181349Y-95161859D01*
X133225921Y-95129474D01*
X132546447Y-94450000D01*
X132552661Y-94450000D01*
X132654394Y-94422741D01*
X132745606Y-94370080D01*
X132820080Y-94295606D01*
X132872741Y-94204394D01*
X132900000Y-94102661D01*
X132900000Y-94096446D01*
X133579474Y-94775921D01*
X133611859Y-94731349D01*
X133704755Y-94549031D01*
X133767990Y-94354417D01*
X133800000Y-94152317D01*
X133800000Y-93947685D01*
X133792111Y-93897881D01*
X133801065Y-93828587D01*
X133846060Y-93775135D01*
X133912811Y-93754494D01*
X133980125Y-93773218D01*
X134002265Y-93790800D01*
X137057051Y-96845586D01*
X137122988Y-96911523D01*
X137154415Y-96942950D01*
X137214757Y-96983269D01*
X137231565Y-96994500D01*
X137268899Y-97019446D01*
X137268900Y-97019446D01*
X137268901Y-97019447D01*
X137268903Y-97019448D01*
X137396104Y-97072136D01*
X137396109Y-97072138D01*
X137531149Y-97098999D01*
X137531153Y-97099000D01*
X137531154Y-97099000D01*
X143049496Y-97099000D01*
X143049497Y-97098999D01*
X143184540Y-97072138D01*
X143311750Y-97019446D01*
X143349084Y-96994500D01*
X143426235Y-96942949D01*
X143523598Y-96845586D01*
X143582157Y-96787027D01*
X143582168Y-96787014D01*
X144424866Y-95944319D01*
X144451793Y-95929615D01*
X144477612Y-95913023D01*
X144483812Y-95912131D01*
X144486189Y-95910834D01*
X144512547Y-95908000D01*
X144740500Y-95908000D01*
X144807539Y-95927685D01*
X144853294Y-95980489D01*
X144864500Y-96032000D01*
X144864500Y-97745404D01*
X144844815Y-97812443D01*
X144828181Y-97833085D01*
X143678794Y-98982471D01*
X143617471Y-99015956D01*
X143571715Y-99017263D01*
X143409051Y-98991500D01*
X143409046Y-98991500D01*
X143210954Y-98991500D01*
X143210949Y-98991500D01*
X143015299Y-99022487D01*
X142826898Y-99083703D01*
X142650401Y-99173634D01*
X142558967Y-99240065D01*
X142490142Y-99290070D01*
X142490140Y-99290072D01*
X142490139Y-99290072D01*
X142350072Y-99430139D01*
X142350072Y-99430140D01*
X142350070Y-99430142D01*
X142344972Y-99437159D01*
X142233634Y-99590401D01*
X142143703Y-99766898D01*
X142082487Y-99955299D01*
X142051500Y-100150948D01*
X142051500Y-100349052D01*
X142077263Y-100511717D01*
X142068308Y-100581010D01*
X142042471Y-100618795D01*
X140833086Y-101828181D01*
X140771763Y-101861666D01*
X140745405Y-101864500D01*
X133218858Y-101864500D01*
X133151819Y-101844815D01*
X133118540Y-101813385D01*
X132998073Y-101647576D01*
X132998069Y-101647571D01*
X132852428Y-101501930D01*
X132852423Y-101501926D01*
X132685806Y-101380873D01*
X132685805Y-101380872D01*
X132685803Y-101380871D01*
X132612172Y-101343354D01*
X132502294Y-101287367D01*
X132306408Y-101223719D01*
X132130794Y-101195905D01*
X132102981Y-101191500D01*
X131897019Y-101191500D01*
X131872550Y-101195375D01*
X131693591Y-101223719D01*
X131497705Y-101287367D01*
X131314193Y-101380873D01*
X131147576Y-101501926D01*
X131147571Y-101501930D01*
X131001930Y-101647571D01*
X131001926Y-101647576D01*
X130880873Y-101814193D01*
X130787367Y-101997705D01*
X130723719Y-102193591D01*
X130691500Y-102397019D01*
X130691500Y-102602980D01*
X130723719Y-102806408D01*
X130787367Y-103002294D01*
X130842797Y-103111079D01*
X130878602Y-103181350D01*
X130880873Y-103185806D01*
X131001926Y-103352423D01*
X131001930Y-103352428D01*
X131147571Y-103498069D01*
X131147576Y-103498073D01*
X131259616Y-103579474D01*
X131314197Y-103619129D01*
X131431128Y-103678709D01*
X131497705Y-103712632D01*
X131497707Y-103712632D01*
X131497710Y-103712634D01*
X131602707Y-103746749D01*
X131693591Y-103776280D01*
X131795305Y-103792390D01*
X131897019Y-103808500D01*
X131897020Y-103808500D01*
X132102980Y-103808500D01*
X132102981Y-103808500D01*
X132306408Y-103776280D01*
X132502290Y-103712634D01*
X132685803Y-103619129D01*
X132852430Y-103498068D01*
X132998068Y-103352430D01*
X133024685Y-103315795D01*
X133118540Y-103186615D01*
X133173870Y-103143949D01*
X133218858Y-103135500D01*
X141122592Y-103135500D01*
X141122593Y-103135499D01*
X141245369Y-103111078D01*
X141361022Y-103063173D01*
X141465108Y-102993625D01*
X142941203Y-101517527D01*
X143002526Y-101484043D01*
X143048282Y-101482736D01*
X143210949Y-101508500D01*
X143210954Y-101508500D01*
X143409051Y-101508500D01*
X143604700Y-101477512D01*
X143793097Y-101416298D01*
X143969598Y-101326366D01*
X144129858Y-101209930D01*
X144269930Y-101069858D01*
X144386366Y-100909598D01*
X144476298Y-100733097D01*
X144537512Y-100544700D01*
X144544059Y-100503365D01*
X144568500Y-100349051D01*
X144568500Y-100150948D01*
X144542736Y-99988282D01*
X144551691Y-99918989D01*
X144577525Y-99881206D01*
X145662320Y-98796411D01*
X145723641Y-98762928D01*
X145793333Y-98767912D01*
X145837680Y-98796413D01*
X146922471Y-99881204D01*
X146955956Y-99942527D01*
X146957263Y-99988282D01*
X146931500Y-100150947D01*
X146931500Y-100349051D01*
X146962487Y-100544700D01*
X147023703Y-100733101D01*
X147098834Y-100880551D01*
X147113634Y-100909598D01*
X147230070Y-101069858D01*
X147370142Y-101209930D01*
X147530402Y-101326366D01*
X147563735Y-101343350D01*
X147706898Y-101416296D01*
X147706900Y-101416296D01*
X147706903Y-101416298D01*
X147790905Y-101443592D01*
X147895299Y-101477512D01*
X148090949Y-101508500D01*
X148090954Y-101508500D01*
X148289051Y-101508500D01*
X148451716Y-101482736D01*
X148521009Y-101491690D01*
X148558795Y-101517528D01*
X149942034Y-102900766D01*
X149942055Y-102900789D01*
X150034888Y-102993622D01*
X150034892Y-102993625D01*
X150138971Y-103063169D01*
X150138984Y-103063176D01*
X150209282Y-103092294D01*
X150254631Y-103111078D01*
X150275001Y-103115130D01*
X150326205Y-103125315D01*
X150377408Y-103135501D01*
X150377409Y-103135501D01*
X150508705Y-103135501D01*
X150508725Y-103135500D01*
X158781142Y-103135500D01*
X158848181Y-103155185D01*
X158881460Y-103186615D01*
X159001926Y-103352423D01*
X159001930Y-103352428D01*
X159147571Y-103498069D01*
X159147576Y-103498073D01*
X159259616Y-103579474D01*
X159314197Y-103619129D01*
X159431128Y-103678709D01*
X159497705Y-103712632D01*
X159497707Y-103712632D01*
X159497710Y-103712634D01*
X159602707Y-103746749D01*
X159693591Y-103776280D01*
X159795305Y-103792390D01*
X159897019Y-103808500D01*
X159897020Y-103808500D01*
X160102980Y-103808500D01*
X160102981Y-103808500D01*
X160306408Y-103776280D01*
X160502290Y-103712634D01*
X160685803Y-103619129D01*
X160852430Y-103498068D01*
X160998068Y-103352430D01*
X161119129Y-103185803D01*
X161212634Y-103002290D01*
X161276280Y-102806408D01*
X161308500Y-102602981D01*
X161308500Y-102397682D01*
X163700000Y-102397682D01*
X163700000Y-102602317D01*
X163732009Y-102804417D01*
X163795244Y-102999031D01*
X163888141Y-103181350D01*
X163888147Y-103181359D01*
X163920523Y-103225921D01*
X163920524Y-103225922D01*
X164600000Y-102546446D01*
X164600000Y-102552661D01*
X164627259Y-102654394D01*
X164679920Y-102745606D01*
X164754394Y-102820080D01*
X164845606Y-102872741D01*
X164947339Y-102900000D01*
X164953553Y-102900000D01*
X164274076Y-103579474D01*
X164318650Y-103611859D01*
X164500968Y-103704755D01*
X164695582Y-103767990D01*
X164897683Y-103800000D01*
X165102317Y-103800000D01*
X165304417Y-103767990D01*
X165499031Y-103704755D01*
X165681349Y-103611859D01*
X165725921Y-103579474D01*
X165046447Y-102900000D01*
X165052661Y-102900000D01*
X165154394Y-102872741D01*
X165245606Y-102820080D01*
X165320080Y-102745606D01*
X165372741Y-102654394D01*
X165400000Y-102552661D01*
X165400000Y-102546447D01*
X166079474Y-103225921D01*
X166111859Y-103181349D01*
X166204755Y-102999031D01*
X166267990Y-102804417D01*
X166300000Y-102602317D01*
X166300000Y-102397682D01*
X166267990Y-102195582D01*
X166204755Y-102000968D01*
X166111859Y-101818650D01*
X166079474Y-101774077D01*
X166079474Y-101774076D01*
X165400000Y-102453551D01*
X165400000Y-102447339D01*
X165372741Y-102345606D01*
X165320080Y-102254394D01*
X165245606Y-102179920D01*
X165154394Y-102127259D01*
X165052661Y-102100000D01*
X165046446Y-102100000D01*
X165725922Y-101420524D01*
X165725921Y-101420523D01*
X165681359Y-101388147D01*
X165681350Y-101388141D01*
X165499031Y-101295244D01*
X165304417Y-101232009D01*
X165102317Y-101200000D01*
X164897683Y-101200000D01*
X164695582Y-101232009D01*
X164500968Y-101295244D01*
X164318644Y-101388143D01*
X164274077Y-101420523D01*
X164274077Y-101420524D01*
X164953554Y-102100000D01*
X164947339Y-102100000D01*
X164845606Y-102127259D01*
X164754394Y-102179920D01*
X164679920Y-102254394D01*
X164627259Y-102345606D01*
X164600000Y-102447339D01*
X164600000Y-102453553D01*
X163920524Y-101774077D01*
X163920523Y-101774077D01*
X163888143Y-101818644D01*
X163795244Y-102000968D01*
X163732009Y-102195582D01*
X163700000Y-102397682D01*
X161308500Y-102397682D01*
X161308500Y-102397019D01*
X161306465Y-102384171D01*
X161276280Y-102193591D01*
X161228804Y-102047476D01*
X161212634Y-101997710D01*
X161212632Y-101997707D01*
X161212632Y-101997705D01*
X161166156Y-101906492D01*
X161119129Y-101814197D01*
X161019257Y-101676734D01*
X160998073Y-101647576D01*
X160998069Y-101647571D01*
X160852428Y-101501930D01*
X160852423Y-101501926D01*
X160685806Y-101380873D01*
X160685805Y-101380872D01*
X160685803Y-101380871D01*
X160612172Y-101343354D01*
X160502294Y-101287367D01*
X160306408Y-101223719D01*
X160130794Y-101195905D01*
X160102981Y-101191500D01*
X159897019Y-101191500D01*
X159872550Y-101195375D01*
X159693591Y-101223719D01*
X159497705Y-101287367D01*
X159314193Y-101380873D01*
X159147576Y-101501926D01*
X159147571Y-101501930D01*
X159001930Y-101647571D01*
X159001926Y-101647576D01*
X158881460Y-101813385D01*
X158826130Y-101856051D01*
X158781142Y-101864500D01*
X150754594Y-101864500D01*
X150687555Y-101844815D01*
X150666913Y-101828181D01*
X149457528Y-100618795D01*
X149424043Y-100557472D01*
X149422736Y-100511716D01*
X149448500Y-100349051D01*
X149448500Y-100150948D01*
X149417512Y-99955299D01*
X149366243Y-99797511D01*
X149356298Y-99766903D01*
X149356296Y-99766900D01*
X149356296Y-99766898D01*
X149307012Y-99670175D01*
X149266366Y-99590402D01*
X149149930Y-99430142D01*
X149009858Y-99290070D01*
X148929728Y-99231852D01*
X148849596Y-99173632D01*
X148821537Y-99159336D01*
X148784696Y-99140564D01*
X148673101Y-99083703D01*
X148576008Y-99052155D01*
X152600000Y-99052155D01*
X152600000Y-99750000D01*
X153624722Y-99750000D01*
X153580667Y-99826306D01*
X153550000Y-99940756D01*
X153550000Y-100059244D01*
X153580667Y-100173694D01*
X153624722Y-100250000D01*
X152600000Y-100250000D01*
X152600000Y-100947844D01*
X152606401Y-101007372D01*
X152606403Y-101007379D01*
X152656645Y-101142086D01*
X152656649Y-101142093D01*
X152742809Y-101257187D01*
X152742812Y-101257190D01*
X152857906Y-101343350D01*
X152857913Y-101343354D01*
X152992620Y-101393596D01*
X152992627Y-101393598D01*
X153052155Y-101399999D01*
X153052172Y-101400000D01*
X153750000Y-101400000D01*
X153750000Y-100375277D01*
X153826306Y-100419333D01*
X153940756Y-100450000D01*
X154059244Y-100450000D01*
X154173694Y-100419333D01*
X154250000Y-100375277D01*
X154250000Y-101400000D01*
X154947828Y-101400000D01*
X154947844Y-101399999D01*
X155007372Y-101393598D01*
X155007379Y-101393596D01*
X155142086Y-101343354D01*
X155142093Y-101343350D01*
X155257187Y-101257190D01*
X155257190Y-101257187D01*
X155343350Y-101142093D01*
X155343354Y-101142086D01*
X155370140Y-101070270D01*
X155412011Y-101014336D01*
X155477475Y-100989919D01*
X155545748Y-101004770D01*
X155574003Y-101025922D01*
X155622424Y-101074343D01*
X155801785Y-101204657D01*
X155880415Y-101244721D01*
X155999319Y-101305306D01*
X155999321Y-101305306D01*
X155999324Y-101305308D01*
X156210176Y-101373818D01*
X156429149Y-101408500D01*
X156429150Y-101408500D01*
X156650850Y-101408500D01*
X156650851Y-101408500D01*
X156869824Y-101373818D01*
X157080676Y-101305308D01*
X157278215Y-101204657D01*
X157457576Y-101074343D01*
X157614343Y-100917576D01*
X157744657Y-100738215D01*
X157762495Y-100703205D01*
X157810469Y-100652410D01*
X157872980Y-100635500D01*
X167964640Y-100635500D01*
X168031679Y-100655185D01*
X168077434Y-100707989D01*
X168087378Y-100777147D01*
X168058353Y-100840703D01*
X168052321Y-100847181D01*
X168001930Y-100897571D01*
X168001926Y-100897576D01*
X167880873Y-101064193D01*
X167787367Y-101247707D01*
X167787366Y-101247709D01*
X167787366Y-101247710D01*
X167741737Y-101388143D01*
X167722215Y-101448224D01*
X167721558Y-101448010D01*
X167706532Y-101482353D01*
X167653929Y-101561080D01*
X167653928Y-101561082D01*
X167606026Y-101676729D01*
X167606023Y-101676741D01*
X167581603Y-101799507D01*
X167581603Y-101924698D01*
X167606023Y-102047464D01*
X167606026Y-102047476D01*
X167653926Y-102163118D01*
X167653933Y-102163131D01*
X167723477Y-102267210D01*
X167723480Y-102267214D01*
X167811993Y-102355727D01*
X167819837Y-102360968D01*
X167827656Y-102366192D01*
X167869253Y-102413001D01*
X167880873Y-102435807D01*
X168001926Y-102602423D01*
X168001930Y-102602428D01*
X168147571Y-102748069D01*
X168147576Y-102748073D01*
X168292758Y-102853553D01*
X168314197Y-102869129D01*
X168421084Y-102923591D01*
X168497705Y-102962632D01*
X168497707Y-102962632D01*
X168497710Y-102962634D01*
X168593081Y-102993622D01*
X168693591Y-103026280D01*
X168795305Y-103042390D01*
X168897019Y-103058500D01*
X168897020Y-103058500D01*
X169102980Y-103058500D01*
X169102981Y-103058500D01*
X169306408Y-103026280D01*
X169502290Y-102962634D01*
X169685803Y-102869129D01*
X169852430Y-102748068D01*
X169998068Y-102602430D01*
X170037091Y-102548718D01*
X170092420Y-102506052D01*
X170137410Y-102497603D01*
X173740489Y-102497603D01*
X173740490Y-102497602D01*
X173863266Y-102473181D01*
X173978919Y-102425276D01*
X174083005Y-102355728D01*
X175046808Y-101391923D01*
X175108129Y-101358440D01*
X175172804Y-101361674D01*
X175210176Y-101373818D01*
X175429149Y-101408500D01*
X175429150Y-101408500D01*
X175650850Y-101408500D01*
X175650851Y-101408500D01*
X175869824Y-101373818D01*
X176080676Y-101305308D01*
X176278215Y-101204657D01*
X176457576Y-101074343D01*
X176614343Y-100917576D01*
X176744657Y-100738215D01*
X176845308Y-100540676D01*
X176913818Y-100329824D01*
X176948500Y-100110851D01*
X176948500Y-99889149D01*
X176913818Y-99670176D01*
X176845308Y-99459324D01*
X176845306Y-99459321D01*
X176845306Y-99459319D01*
X176759069Y-99290070D01*
X176744657Y-99261785D01*
X176614343Y-99082424D01*
X176457576Y-98925657D01*
X176278215Y-98795343D01*
X176244778Y-98778306D01*
X176080680Y-98694693D01*
X175869824Y-98626182D01*
X175779392Y-98611859D01*
X175650851Y-98591500D01*
X175429149Y-98591500D01*
X175324511Y-98608073D01*
X175210175Y-98626182D01*
X174999319Y-98694693D01*
X174801784Y-98795343D01*
X174715675Y-98857906D01*
X174622424Y-98925657D01*
X174622422Y-98925659D01*
X174622420Y-98925660D01*
X174574002Y-98974078D01*
X174512679Y-99007562D01*
X174442987Y-99002577D01*
X174387054Y-98960705D01*
X174370140Y-98929729D01*
X174343354Y-98857913D01*
X174343350Y-98857906D01*
X174257190Y-98742812D01*
X174257187Y-98742809D01*
X174142093Y-98656649D01*
X174142086Y-98656645D01*
X174007379Y-98606403D01*
X174007372Y-98606401D01*
X173947844Y-98600000D01*
X173250000Y-98600000D01*
X173250000Y-99624722D01*
X173173694Y-99580667D01*
X173059244Y-99550000D01*
X172940756Y-99550000D01*
X172826306Y-99580667D01*
X172750000Y-99624722D01*
X172750000Y-98600000D01*
X172052155Y-98600000D01*
X171992627Y-98606401D01*
X171992620Y-98606403D01*
X171857913Y-98656645D01*
X171857906Y-98656649D01*
X171742812Y-98742809D01*
X171742809Y-98742812D01*
X171656649Y-98857906D01*
X171656645Y-98857913D01*
X171606403Y-98992620D01*
X171606401Y-98992627D01*
X171600000Y-99052155D01*
X171600000Y-99750000D01*
X172624722Y-99750000D01*
X172580667Y-99826306D01*
X172550000Y-99940756D01*
X172550000Y-100059244D01*
X172580667Y-100173694D01*
X172624722Y-100250000D01*
X171600000Y-100250000D01*
X171600000Y-100947844D01*
X171606401Y-101007372D01*
X171606403Y-101007379D01*
X171625757Y-101059270D01*
X171630741Y-101128962D01*
X171597256Y-101190285D01*
X171535933Y-101223769D01*
X171509575Y-101226603D01*
X170277867Y-101226603D01*
X170210828Y-101206918D01*
X170167382Y-101158898D01*
X170152128Y-101128962D01*
X170119129Y-101064197D01*
X170077849Y-101007379D01*
X169998073Y-100897576D01*
X169998069Y-100897571D01*
X169852428Y-100751930D01*
X169852423Y-100751926D01*
X169685807Y-100630873D01*
X169680850Y-100628347D01*
X169577562Y-100575719D01*
X169526768Y-100527747D01*
X169509973Y-100459926D01*
X169532510Y-100393791D01*
X169546178Y-100377555D01*
X170962563Y-98961170D01*
X176292462Y-93631272D01*
X177491500Y-93631272D01*
X177491500Y-93868727D01*
X177528643Y-94103241D01*
X177602019Y-94329067D01*
X177663638Y-94450000D01*
X177709815Y-94540627D01*
X177849380Y-94732722D01*
X178017278Y-94900620D01*
X178209373Y-95040185D01*
X178309328Y-95091114D01*
X178420932Y-95147980D01*
X178420934Y-95147980D01*
X178420937Y-95147982D01*
X178512501Y-95177733D01*
X178646758Y-95221356D01*
X178881273Y-95258500D01*
X178881278Y-95258500D01*
X179118727Y-95258500D01*
X179353241Y-95221356D01*
X179414982Y-95201295D01*
X179579063Y-95147982D01*
X179790627Y-95040185D01*
X179982722Y-94900620D01*
X180150620Y-94732722D01*
X180290185Y-94540627D01*
X180397982Y-94329063D01*
X180471356Y-94103241D01*
X180477650Y-94063500D01*
X180508500Y-93868727D01*
X180508500Y-93631272D01*
X180471356Y-93396758D01*
X180434206Y-93282423D01*
X180397982Y-93170937D01*
X180397980Y-93170934D01*
X180397980Y-93170932D01*
X180303405Y-92985319D01*
X180290185Y-92959373D01*
X180150620Y-92767278D01*
X179982722Y-92599380D01*
X179790627Y-92459815D01*
X179761196Y-92444819D01*
X179579067Y-92352019D01*
X179353241Y-92278643D01*
X179118727Y-92241500D01*
X179118722Y-92241500D01*
X178881278Y-92241500D01*
X178881273Y-92241500D01*
X178646758Y-92278643D01*
X178420932Y-92352019D01*
X178209372Y-92459815D01*
X178017275Y-92599382D01*
X177849382Y-92767275D01*
X177709815Y-92959372D01*
X177602019Y-93170932D01*
X177528643Y-93396758D01*
X177491500Y-93631272D01*
X176292462Y-93631272D01*
X176385009Y-93538725D01*
X177993622Y-91930111D01*
X177993625Y-91930108D01*
X178063173Y-91826022D01*
X178111078Y-91710369D01*
X178135500Y-91587591D01*
X178135500Y-91462409D01*
X178135500Y-90695354D01*
X178155185Y-90628315D01*
X178207989Y-90582560D01*
X178277147Y-90572616D01*
X178315795Y-90584869D01*
X178424197Y-90640102D01*
X178648752Y-90713065D01*
X178648751Y-90713065D01*
X178881948Y-90750000D01*
X179118052Y-90750000D01*
X179351247Y-90713065D01*
X179575802Y-90640102D01*
X179786163Y-90532918D01*
X179786169Y-90532914D01*
X179869104Y-90472658D01*
X179869105Y-90472658D01*
X179170234Y-89773787D01*
X179212292Y-89762518D01*
X179337708Y-89690110D01*
X179440110Y-89587708D01*
X179512518Y-89462292D01*
X179523787Y-89420234D01*
X180222658Y-90119105D01*
X180222658Y-90119104D01*
X180282914Y-90036169D01*
X180282918Y-90036163D01*
X180390102Y-89825802D01*
X180463065Y-89601247D01*
X180500000Y-89368052D01*
X180500000Y-89131947D01*
X180463065Y-88898752D01*
X180390102Y-88674197D01*
X180282914Y-88463828D01*
X180222658Y-88380894D01*
X180222658Y-88380893D01*
X179523787Y-89079765D01*
X179512518Y-89037708D01*
X179440110Y-88912292D01*
X179337708Y-88809890D01*
X179212292Y-88737482D01*
X179170233Y-88726212D01*
X179869105Y-88027340D01*
X179869104Y-88027338D01*
X179786174Y-87967087D01*
X179575802Y-87859897D01*
X179351247Y-87786934D01*
X179351248Y-87786934D01*
X179118052Y-87750000D01*
X178881948Y-87750000D01*
X178648752Y-87786934D01*
X178424194Y-87859898D01*
X178315794Y-87915130D01*
X178247125Y-87928026D01*
X178182385Y-87901749D01*
X178142128Y-87844642D01*
X178135500Y-87804645D01*
X178135500Y-85018857D01*
X178155185Y-84951818D01*
X178186611Y-84918541D01*
X178352430Y-84798068D01*
X178498068Y-84652430D01*
X178619129Y-84485803D01*
X178712634Y-84302290D01*
X178776280Y-84106408D01*
X178808500Y-83902981D01*
X178808500Y-83697019D01*
X178778215Y-83505806D01*
X178776280Y-83493591D01*
X178744402Y-83395483D01*
X178712634Y-83297710D01*
X178712632Y-83297707D01*
X178712632Y-83297705D01*
X178643789Y-83162595D01*
X178619129Y-83114197D01*
X178561295Y-83034595D01*
X178498073Y-82947576D01*
X178498069Y-82947571D01*
X178352428Y-82801930D01*
X178352423Y-82801926D01*
X178185806Y-82680873D01*
X178185805Y-82680872D01*
X178185803Y-82680871D01*
X178110698Y-82642603D01*
X178002294Y-82587367D01*
X177806408Y-82523719D01*
X177630794Y-82495905D01*
X177602981Y-82491500D01*
X177397019Y-82491500D01*
X177372550Y-82495375D01*
X177193591Y-82523719D01*
X176997705Y-82587367D01*
X176814193Y-82680873D01*
X176647576Y-82801926D01*
X176647571Y-82801930D01*
X176501930Y-82947571D01*
X176501926Y-82947576D01*
X176380873Y-83114193D01*
X176287367Y-83297705D01*
X176223719Y-83493591D01*
X176191500Y-83697019D01*
X176191500Y-83902980D01*
X176223719Y-84106408D01*
X176287367Y-84302294D01*
X176351671Y-84428496D01*
X176371422Y-84467259D01*
X176380873Y-84485806D01*
X176501926Y-84652423D01*
X176501930Y-84652428D01*
X176501932Y-84652430D01*
X176647570Y-84798068D01*
X176813386Y-84918540D01*
X176856051Y-84973868D01*
X176864500Y-85018857D01*
X176864500Y-91210404D01*
X176844815Y-91277443D01*
X176828181Y-91298085D01*
X174220181Y-93906085D01*
X174158858Y-93939570D01*
X174089166Y-93934586D01*
X174033233Y-93892714D01*
X174008816Y-93827250D01*
X174008500Y-93818404D01*
X174008500Y-93631272D01*
X173971356Y-93396758D01*
X173934206Y-93282423D01*
X173897982Y-93170937D01*
X173897980Y-93170934D01*
X173897980Y-93170932D01*
X173803405Y-92985319D01*
X173790185Y-92959373D01*
X173650620Y-92767278D01*
X173482722Y-92599380D01*
X173290627Y-92459815D01*
X173261196Y-92444819D01*
X173079067Y-92352019D01*
X172853241Y-92278643D01*
X172618727Y-92241500D01*
X172618722Y-92241500D01*
X172381278Y-92241500D01*
X172381273Y-92241500D01*
X172146758Y-92278643D01*
X171920932Y-92352019D01*
X171709372Y-92459815D01*
X171517275Y-92599382D01*
X171349382Y-92767275D01*
X171209815Y-92959372D01*
X171102019Y-93170932D01*
X171028643Y-93396758D01*
X170991500Y-93631272D01*
X170991500Y-93658404D01*
X170971815Y-93725443D01*
X170955181Y-93746085D01*
X169353180Y-95348085D01*
X169291857Y-95381570D01*
X169222165Y-95376586D01*
X169209210Y-95370892D01*
X169202290Y-95367366D01*
X169006408Y-95303719D01*
X168830794Y-95275905D01*
X168802981Y-95271500D01*
X168597019Y-95271500D01*
X168572550Y-95275375D01*
X168393591Y-95303719D01*
X168197705Y-95367367D01*
X168014193Y-95460873D01*
X167847576Y-95581926D01*
X167847571Y-95581930D01*
X167701930Y-95727571D01*
X167701926Y-95727576D01*
X167580873Y-95894193D01*
X167487367Y-96077705D01*
X167423719Y-96273591D01*
X167391500Y-96477019D01*
X167391500Y-96682980D01*
X167423719Y-96886408D01*
X167487367Y-97082294D01*
X167580873Y-97265806D01*
X167701926Y-97432423D01*
X167701930Y-97432428D01*
X167847571Y-97578069D01*
X167847576Y-97578073D01*
X167964712Y-97663176D01*
X168014197Y-97699129D01*
X168105413Y-97745606D01*
X168197705Y-97792632D01*
X168197707Y-97792632D01*
X168197710Y-97792634D01*
X168282180Y-97820080D01*
X168393591Y-97856280D01*
X168495305Y-97872390D01*
X168597019Y-97888500D01*
X168597020Y-97888500D01*
X168802980Y-97888500D01*
X168802981Y-97888500D01*
X169006408Y-97856280D01*
X169202290Y-97792634D01*
X169385803Y-97699129D01*
X169552430Y-97578068D01*
X169698068Y-97432430D01*
X169819129Y-97265803D01*
X169912634Y-97082290D01*
X169976280Y-96886408D01*
X170008500Y-96682981D01*
X170008500Y-96541594D01*
X170028185Y-96474555D01*
X170044814Y-96453918D01*
X171489211Y-95009520D01*
X171550532Y-94976037D01*
X171620224Y-94981021D01*
X171649776Y-94996885D01*
X171709373Y-95040185D01*
X171809328Y-95091114D01*
X171920932Y-95147980D01*
X171920934Y-95147980D01*
X171920937Y-95147982D01*
X172012501Y-95177733D01*
X172146758Y-95221356D01*
X172381273Y-95258500D01*
X172568404Y-95258500D01*
X172635443Y-95278185D01*
X172681198Y-95330989D01*
X172691142Y-95400147D01*
X172662117Y-95463703D01*
X172656085Y-95470181D01*
X168798086Y-99328181D01*
X168736763Y-99361666D01*
X168710405Y-99364500D01*
X157872980Y-99364500D01*
X157805941Y-99344815D01*
X157762495Y-99296794D01*
X157744658Y-99261786D01*
X157680611Y-99173634D01*
X157614343Y-99082424D01*
X157457576Y-98925657D01*
X157278215Y-98795343D01*
X157244778Y-98778306D01*
X157080680Y-98694693D01*
X156869824Y-98626182D01*
X156779392Y-98611859D01*
X156650851Y-98591500D01*
X156429149Y-98591500D01*
X156324511Y-98608073D01*
X156210175Y-98626182D01*
X155999319Y-98694693D01*
X155801784Y-98795343D01*
X155715675Y-98857906D01*
X155622424Y-98925657D01*
X155622422Y-98925659D01*
X155622420Y-98925660D01*
X155574002Y-98974078D01*
X155512679Y-99007562D01*
X155442987Y-99002577D01*
X155387054Y-98960705D01*
X155370140Y-98929729D01*
X155343354Y-98857913D01*
X155343350Y-98857906D01*
X155257190Y-98742812D01*
X155257187Y-98742809D01*
X155142093Y-98656649D01*
X155142086Y-98656645D01*
X155007379Y-98606403D01*
X155007372Y-98606401D01*
X154947844Y-98600000D01*
X154250000Y-98600000D01*
X154250000Y-99624722D01*
X154173694Y-99580667D01*
X154059244Y-99550000D01*
X153940756Y-99550000D01*
X153826306Y-99580667D01*
X153750000Y-99624722D01*
X153750000Y-98600000D01*
X153052155Y-98600000D01*
X152992627Y-98606401D01*
X152992620Y-98606403D01*
X152857913Y-98656645D01*
X152857906Y-98656649D01*
X152742812Y-98742809D01*
X152742809Y-98742812D01*
X152656649Y-98857906D01*
X152656645Y-98857913D01*
X152606403Y-98992620D01*
X152606401Y-98992627D01*
X152600000Y-99052155D01*
X148576008Y-99052155D01*
X148484700Y-99022487D01*
X148289051Y-98991500D01*
X148289046Y-98991500D01*
X148090954Y-98991500D01*
X148090947Y-98991500D01*
X147928282Y-99017263D01*
X147858989Y-99008308D01*
X147821204Y-98982471D01*
X146971819Y-98133086D01*
X146938334Y-98071763D01*
X146935500Y-98045405D01*
X146935500Y-96032500D01*
X146955185Y-95965461D01*
X147007989Y-95919706D01*
X147059500Y-95908500D01*
X147302724Y-95908500D01*
X147302730Y-95908500D01*
X147339360Y-95905617D01*
X147378682Y-95894193D01*
X147465405Y-95868998D01*
X147534595Y-95868998D01*
X147660632Y-95905615D01*
X147660634Y-95905615D01*
X147660640Y-95905617D01*
X147697270Y-95908500D01*
X147697276Y-95908500D01*
X148102724Y-95908500D01*
X148102730Y-95908500D01*
X148139360Y-95905617D01*
X148178682Y-95894193D01*
X148265405Y-95868998D01*
X148334595Y-95868998D01*
X148460632Y-95905615D01*
X148460634Y-95905615D01*
X148460640Y-95905617D01*
X148497270Y-95908500D01*
X148497276Y-95908500D01*
X148902724Y-95908500D01*
X148902730Y-95908500D01*
X148939360Y-95905617D01*
X148978682Y-95894193D01*
X149065405Y-95868998D01*
X149134595Y-95868998D01*
X149260632Y-95905615D01*
X149260634Y-95905615D01*
X149260640Y-95905617D01*
X149297270Y-95908500D01*
X149297276Y-95908500D01*
X149702724Y-95908500D01*
X149702730Y-95908500D01*
X149739360Y-95905617D01*
X149778682Y-95894193D01*
X149865405Y-95868998D01*
X149934595Y-95868998D01*
X150060632Y-95905615D01*
X150060634Y-95905615D01*
X150060640Y-95905617D01*
X150097270Y-95908500D01*
X150340500Y-95908500D01*
X150349185Y-95911050D01*
X150358147Y-95909762D01*
X150382187Y-95920740D01*
X150407539Y-95928185D01*
X150413466Y-95935025D01*
X150421703Y-95938787D01*
X150435992Y-95961021D01*
X150453294Y-95980989D01*
X150455581Y-95991503D01*
X150459477Y-95997565D01*
X150464500Y-96032500D01*
X150464500Y-96189324D01*
X150444815Y-96256363D01*
X150428181Y-96277005D01*
X150394324Y-96310861D01*
X150394321Y-96310865D01*
X150294901Y-96459657D01*
X150294896Y-96459667D01*
X150226413Y-96624999D01*
X150226411Y-96625007D01*
X150191500Y-96800516D01*
X150191500Y-96979483D01*
X150226411Y-97154992D01*
X150226413Y-97155000D01*
X150294896Y-97320332D01*
X150294901Y-97320342D01*
X150394321Y-97469134D01*
X150394324Y-97469138D01*
X150520861Y-97595675D01*
X150520865Y-97595678D01*
X150669657Y-97695098D01*
X150669661Y-97695100D01*
X150669664Y-97695102D01*
X150835000Y-97763587D01*
X151001809Y-97796767D01*
X151010516Y-97798499D01*
X151010520Y-97798500D01*
X151010521Y-97798500D01*
X151189480Y-97798500D01*
X151189481Y-97798499D01*
X151365000Y-97763587D01*
X151530336Y-97695102D01*
X151679135Y-97595678D01*
X151805678Y-97469135D01*
X151905102Y-97320336D01*
X151973587Y-97155000D01*
X152007746Y-96983265D01*
X152040130Y-96921357D01*
X152100846Y-96886783D01*
X152170615Y-96890522D01*
X152217044Y-96919778D01*
X152890888Y-97593622D01*
X152890892Y-97593625D01*
X152994971Y-97663169D01*
X152994984Y-97663176D01*
X153110626Y-97711076D01*
X153110631Y-97711078D01*
X153233404Y-97735499D01*
X153233408Y-97735500D01*
X153233409Y-97735500D01*
X164962592Y-97735500D01*
X164962593Y-97735499D01*
X165085369Y-97711078D01*
X165201022Y-97663173D01*
X165305108Y-97593625D01*
X167833625Y-95065108D01*
X167903173Y-94961022D01*
X167951078Y-94845369D01*
X167975500Y-94722591D01*
X167975500Y-94597409D01*
X167975500Y-89131947D01*
X171000000Y-89131947D01*
X171000000Y-89368052D01*
X171036934Y-89601247D01*
X171109897Y-89825802D01*
X171217087Y-90036174D01*
X171277338Y-90119104D01*
X171277340Y-90119105D01*
X171976212Y-89420233D01*
X171987482Y-89462292D01*
X172059890Y-89587708D01*
X172162292Y-89690110D01*
X172287708Y-89762518D01*
X172329765Y-89773787D01*
X171630893Y-90472658D01*
X171713828Y-90532914D01*
X171924197Y-90640102D01*
X172148752Y-90713065D01*
X172148751Y-90713065D01*
X172381948Y-90750000D01*
X172618052Y-90750000D01*
X172851247Y-90713065D01*
X173075802Y-90640102D01*
X173286163Y-90532918D01*
X173286169Y-90532914D01*
X173369104Y-90472658D01*
X173369105Y-90472658D01*
X172670233Y-89773787D01*
X172712292Y-89762518D01*
X172837708Y-89690110D01*
X172940110Y-89587708D01*
X173012518Y-89462292D01*
X173023787Y-89420234D01*
X173722658Y-90119105D01*
X173722658Y-90119104D01*
X173782914Y-90036169D01*
X173782918Y-90036163D01*
X173890102Y-89825802D01*
X173963065Y-89601247D01*
X174000000Y-89368052D01*
X174000000Y-89131947D01*
X173963065Y-88898752D01*
X173890102Y-88674197D01*
X173782914Y-88463828D01*
X173722658Y-88380894D01*
X173722658Y-88380893D01*
X173023787Y-89079765D01*
X173012518Y-89037708D01*
X172940110Y-88912292D01*
X172837708Y-88809890D01*
X172712292Y-88737482D01*
X172670234Y-88726212D01*
X173369105Y-88027340D01*
X173369104Y-88027338D01*
X173286174Y-87967087D01*
X173075802Y-87859897D01*
X172851247Y-87786934D01*
X172851248Y-87786934D01*
X172618052Y-87750000D01*
X172381948Y-87750000D01*
X172148752Y-87786934D01*
X171924197Y-87859897D01*
X171713830Y-87967084D01*
X171630894Y-88027340D01*
X172329766Y-88726212D01*
X172287708Y-88737482D01*
X172162292Y-88809890D01*
X172059890Y-88912292D01*
X171987482Y-89037708D01*
X171976212Y-89079766D01*
X171277340Y-88380894D01*
X171217084Y-88463830D01*
X171109897Y-88674197D01*
X171036934Y-88898752D01*
X171000000Y-89131947D01*
X167975500Y-89131947D01*
X167975500Y-87721762D01*
X167995185Y-87654723D01*
X168047989Y-87608968D01*
X168117147Y-87599024D01*
X168155796Y-87611278D01*
X168197703Y-87632631D01*
X168197706Y-87632631D01*
X168197710Y-87632634D01*
X168333001Y-87676592D01*
X168393591Y-87696280D01*
X168495305Y-87712390D01*
X168597019Y-87728500D01*
X168597020Y-87728500D01*
X168802980Y-87728500D01*
X168802981Y-87728500D01*
X169006408Y-87696280D01*
X169202290Y-87632634D01*
X169385803Y-87539129D01*
X169552430Y-87418068D01*
X169698068Y-87272430D01*
X169819129Y-87105803D01*
X169912634Y-86922290D01*
X169976280Y-86726408D01*
X170008500Y-86522981D01*
X170008500Y-86317019D01*
X169999717Y-86261563D01*
X169976280Y-86113591D01*
X169923868Y-85952284D01*
X169912634Y-85917710D01*
X169912632Y-85917707D01*
X169912632Y-85917705D01*
X169878709Y-85851128D01*
X169819129Y-85734197D01*
X169768723Y-85664819D01*
X169698073Y-85567576D01*
X169698069Y-85567571D01*
X169552428Y-85421930D01*
X169552423Y-85421926D01*
X169385806Y-85300873D01*
X169385805Y-85300872D01*
X169385803Y-85300871D01*
X169298393Y-85256333D01*
X169202294Y-85207367D01*
X169006408Y-85143719D01*
X168822976Y-85114667D01*
X168802981Y-85111500D01*
X168597019Y-85111500D01*
X168577024Y-85114667D01*
X168393591Y-85143719D01*
X168197702Y-85207368D01*
X168155794Y-85228722D01*
X168153089Y-85229229D01*
X168151011Y-85231031D01*
X168118955Y-85235640D01*
X168087124Y-85241618D01*
X168084575Y-85240583D01*
X168081853Y-85240975D01*
X168052395Y-85227522D01*
X168022384Y-85215341D01*
X168020799Y-85213092D01*
X168018297Y-85211950D01*
X168000786Y-85184702D01*
X167982128Y-85158234D01*
X167981555Y-85154778D01*
X167980523Y-85153172D01*
X167975500Y-85118237D01*
X167975500Y-85018857D01*
X167995185Y-84951818D01*
X168026611Y-84918541D01*
X168192430Y-84798068D01*
X168338068Y-84652430D01*
X168459129Y-84485803D01*
X168552634Y-84302290D01*
X168616280Y-84106408D01*
X168648500Y-83902981D01*
X168648500Y-83697019D01*
X168618215Y-83505806D01*
X168616280Y-83493591D01*
X168584402Y-83395483D01*
X168552634Y-83297710D01*
X168552632Y-83297707D01*
X168552632Y-83297705D01*
X168483789Y-83162595D01*
X168459129Y-83114197D01*
X168401295Y-83034595D01*
X168338073Y-82947576D01*
X168338069Y-82947571D01*
X168192428Y-82801930D01*
X168192423Y-82801926D01*
X168025806Y-82680873D01*
X168025805Y-82680872D01*
X168025803Y-82680871D01*
X167950698Y-82642603D01*
X167842294Y-82587367D01*
X167646408Y-82523719D01*
X167470794Y-82495905D01*
X167442981Y-82491500D01*
X167237019Y-82491500D01*
X167212550Y-82495375D01*
X167033591Y-82523719D01*
X166837705Y-82587367D01*
X166654193Y-82680873D01*
X166487576Y-82801926D01*
X166487571Y-82801930D01*
X166341930Y-82947571D01*
X166341926Y-82947576D01*
X166220873Y-83114193D01*
X166127367Y-83297705D01*
X166063719Y-83493591D01*
X166031500Y-83697019D01*
X166031500Y-83902980D01*
X166063719Y-84106408D01*
X166127367Y-84302294D01*
X166191671Y-84428496D01*
X166211422Y-84467259D01*
X166220873Y-84485806D01*
X166341926Y-84652423D01*
X166341930Y-84652428D01*
X166341932Y-84652430D01*
X166487570Y-84798068D01*
X166653386Y-84918540D01*
X166696051Y-84973868D01*
X166704500Y-85018857D01*
X166704500Y-90467500D01*
X166701949Y-90476185D01*
X166703238Y-90485147D01*
X166692259Y-90509187D01*
X166684815Y-90534539D01*
X166677974Y-90540466D01*
X166674213Y-90548703D01*
X166651978Y-90562992D01*
X166632011Y-90580294D01*
X166621496Y-90582581D01*
X166615435Y-90586477D01*
X166580500Y-90591500D01*
X166485563Y-90591500D01*
X166418524Y-90571815D01*
X166372769Y-90519011D01*
X166371002Y-90514953D01*
X166338436Y-90436334D01*
X166338435Y-90436331D01*
X166338433Y-90436328D01*
X166338431Y-90436324D01*
X166239011Y-90287532D01*
X166239008Y-90287528D01*
X166112471Y-90160991D01*
X166112467Y-90160988D01*
X165963675Y-90061568D01*
X165963665Y-90061563D01*
X165798333Y-89993080D01*
X165798325Y-89993078D01*
X165622816Y-89958167D01*
X165622812Y-89958167D01*
X165518897Y-89958167D01*
X165451858Y-89938482D01*
X165406103Y-89885678D01*
X165404336Y-89881620D01*
X165375428Y-89811830D01*
X165371769Y-89802997D01*
X165371767Y-89802994D01*
X165371765Y-89802990D01*
X165272345Y-89654198D01*
X165272342Y-89654194D01*
X165145805Y-89527657D01*
X165145801Y-89527654D01*
X164997009Y-89428234D01*
X164996999Y-89428229D01*
X164831667Y-89359746D01*
X164831659Y-89359744D01*
X164656150Y-89324833D01*
X164656146Y-89324833D01*
X164552230Y-89324833D01*
X164485191Y-89305148D01*
X164439436Y-89252344D01*
X164437669Y-89248286D01*
X164409025Y-89179135D01*
X164405102Y-89169664D01*
X164405100Y-89169661D01*
X164405098Y-89169657D01*
X164305678Y-89020865D01*
X164305675Y-89020861D01*
X164179138Y-88894324D01*
X164179134Y-88894321D01*
X164030342Y-88794901D01*
X164030332Y-88794896D01*
X163865000Y-88726413D01*
X163864992Y-88726411D01*
X163689483Y-88691500D01*
X163689479Y-88691500D01*
X163585563Y-88691500D01*
X163518524Y-88671815D01*
X163472769Y-88619011D01*
X163471002Y-88614953D01*
X163443644Y-88548907D01*
X163438435Y-88536331D01*
X163438433Y-88536328D01*
X163438431Y-88536324D01*
X163339011Y-88387532D01*
X163339008Y-88387528D01*
X163212471Y-88260991D01*
X163212467Y-88260988D01*
X163063675Y-88161568D01*
X163063665Y-88161563D01*
X162898333Y-88093080D01*
X162898325Y-88093078D01*
X162722816Y-88058167D01*
X162722812Y-88058167D01*
X162618897Y-88058167D01*
X162551858Y-88038482D01*
X162506103Y-87985678D01*
X162504336Y-87981620D01*
X162482136Y-87928026D01*
X162471769Y-87902997D01*
X162471767Y-87902994D01*
X162471765Y-87902990D01*
X162372345Y-87754198D01*
X162372342Y-87754194D01*
X162245805Y-87627657D01*
X162245801Y-87627654D01*
X162097009Y-87528234D01*
X162096999Y-87528229D01*
X161931667Y-87459746D01*
X161931659Y-87459744D01*
X161756150Y-87424833D01*
X161756146Y-87424833D01*
X161652230Y-87424833D01*
X161585191Y-87405148D01*
X161539436Y-87352344D01*
X161537669Y-87348286D01*
X161505103Y-87269667D01*
X161505102Y-87269664D01*
X161505100Y-87269661D01*
X161505098Y-87269657D01*
X161405678Y-87120865D01*
X161405675Y-87120861D01*
X161279138Y-86994324D01*
X161279134Y-86994321D01*
X161130342Y-86894901D01*
X161130332Y-86894896D01*
X160965000Y-86826413D01*
X160964992Y-86826411D01*
X160789483Y-86791500D01*
X160789479Y-86791500D01*
X160685563Y-86791500D01*
X160618524Y-86771815D01*
X160572769Y-86719011D01*
X160571002Y-86714953D01*
X160549834Y-86663850D01*
X160538435Y-86636331D01*
X160538433Y-86636328D01*
X160538431Y-86636324D01*
X160439011Y-86487532D01*
X160439008Y-86487528D01*
X160312471Y-86360991D01*
X160312467Y-86360988D01*
X160163675Y-86261568D01*
X160163665Y-86261563D01*
X159998333Y-86193080D01*
X159998325Y-86193078D01*
X159822816Y-86158167D01*
X159822812Y-86158167D01*
X159718897Y-86158167D01*
X159651858Y-86138482D01*
X159606103Y-86085678D01*
X159604336Y-86081620D01*
X159586829Y-86039355D01*
X159571769Y-86002997D01*
X159571767Y-86002994D01*
X159571765Y-86002990D01*
X159472345Y-85854198D01*
X159472342Y-85854194D01*
X159345805Y-85727657D01*
X159345801Y-85727654D01*
X159197009Y-85628234D01*
X159196999Y-85628229D01*
X159031667Y-85559746D01*
X159031659Y-85559744D01*
X158856150Y-85524833D01*
X158856146Y-85524833D01*
X158830261Y-85524833D01*
X158763222Y-85505148D01*
X158717467Y-85452344D01*
X158707523Y-85383186D01*
X158736548Y-85319630D01*
X158742580Y-85313152D01*
X160654705Y-83401028D01*
X162633914Y-81421819D01*
X162695237Y-81388334D01*
X162721595Y-81385500D01*
X168781142Y-81385500D01*
X168848181Y-81405185D01*
X168881460Y-81436615D01*
X169001926Y-81602423D01*
X169001930Y-81602428D01*
X169147571Y-81748069D01*
X169147576Y-81748073D01*
X169277592Y-81842534D01*
X169314197Y-81869129D01*
X169427735Y-81926980D01*
X169497705Y-81962632D01*
X169497707Y-81962632D01*
X169497710Y-81962634D01*
X169583082Y-81990373D01*
X169693591Y-82026280D01*
X169770745Y-82038500D01*
X169897019Y-82058500D01*
X169897020Y-82058500D01*
X170102980Y-82058500D01*
X170102981Y-82058500D01*
X170306408Y-82026280D01*
X170502290Y-81962634D01*
X170685803Y-81869129D01*
X170852430Y-81748068D01*
X170998068Y-81602430D01*
X171119129Y-81435803D01*
X171212634Y-81252290D01*
X171276280Y-81056408D01*
X171308500Y-80852981D01*
X171308500Y-80647019D01*
X171298560Y-80584259D01*
X171276280Y-80443591D01*
X171245438Y-80348670D01*
X171212634Y-80247710D01*
X171212632Y-80247707D01*
X171212632Y-80247705D01*
X171167984Y-80160080D01*
X171119129Y-80064197D01*
X171084573Y-80016634D01*
X170998073Y-79897576D01*
X170998069Y-79897571D01*
X170852428Y-79751930D01*
X170852423Y-79751926D01*
X170685806Y-79630873D01*
X170685805Y-79630872D01*
X170685803Y-79630871D01*
X170614213Y-79594394D01*
X170502294Y-79537367D01*
X170306408Y-79473719D01*
X170130794Y-79445905D01*
X170102981Y-79441500D01*
X169897019Y-79441500D01*
X169872550Y-79445375D01*
X169693591Y-79473719D01*
X169497705Y-79537367D01*
X169314193Y-79630873D01*
X169147576Y-79751926D01*
X169147571Y-79751930D01*
X169001930Y-79897571D01*
X169001926Y-79897576D01*
X168881460Y-80063385D01*
X168826130Y-80106051D01*
X168781142Y-80114500D01*
X162344404Y-80114500D01*
X162221638Y-80138920D01*
X162221626Y-80138923D01*
X162105984Y-80186823D01*
X162105977Y-80186827D01*
X162081541Y-80203155D01*
X162043447Y-80228609D01*
X162043446Y-80228610D01*
X162001889Y-80256376D01*
X162001888Y-80256377D01*
X160097181Y-82161085D01*
X160035858Y-82194570D01*
X159966166Y-82189586D01*
X159910233Y-82147714D01*
X159885816Y-82082250D01*
X159885500Y-82073404D01*
X159885500Y-79897408D01*
X159885499Y-79897404D01*
X159879619Y-79867842D01*
X159861078Y-79774631D01*
X159841763Y-79728000D01*
X159813176Y-79658984D01*
X159813169Y-79658971D01*
X159743626Y-79554893D01*
X159706099Y-79517366D01*
X159655108Y-79466375D01*
X156944819Y-76756086D01*
X156911334Y-76694763D01*
X156908500Y-76668405D01*
X156908500Y-76590520D01*
X156908499Y-76590516D01*
X156891768Y-76506403D01*
X156873587Y-76415000D01*
X156805102Y-76249664D01*
X156805100Y-76249661D01*
X156805098Y-76249657D01*
X156705678Y-76100865D01*
X156705675Y-76100861D01*
X156579138Y-75974324D01*
X156579134Y-75974321D01*
X156430342Y-75874901D01*
X156430332Y-75874896D01*
X156265000Y-75806413D01*
X156264992Y-75806411D01*
X156089483Y-75771500D01*
X156089479Y-75771500D01*
X155910521Y-75771500D01*
X155910516Y-75771500D01*
X155735007Y-75806411D01*
X155734999Y-75806413D01*
X155569667Y-75874896D01*
X155569657Y-75874901D01*
X155420865Y-75974321D01*
X155338806Y-76056380D01*
X155277482Y-76089864D01*
X155207791Y-76084880D01*
X155163444Y-76056379D01*
X154338443Y-75231377D01*
X154338439Y-75231374D01*
X154234360Y-75161830D01*
X154234347Y-75161823D01*
X154118705Y-75113923D01*
X154118693Y-75113920D01*
X153995927Y-75089500D01*
X153995923Y-75089500D01*
X151963175Y-75089500D01*
X151896136Y-75069815D01*
X151875493Y-75053180D01*
X151841638Y-75019324D01*
X151841634Y-75019321D01*
X151692842Y-74919901D01*
X151692832Y-74919896D01*
X151527500Y-74851413D01*
X151527492Y-74851411D01*
X151351983Y-74816500D01*
X151351979Y-74816500D01*
X151173021Y-74816500D01*
X151173016Y-74816500D01*
X150997507Y-74851411D01*
X150997499Y-74851413D01*
X150832167Y-74919896D01*
X150832157Y-74919901D01*
X150683365Y-75019321D01*
X150683361Y-75019324D01*
X150556824Y-75145861D01*
X150556821Y-75145865D01*
X150457401Y-75294657D01*
X150457396Y-75294667D01*
X150388913Y-75459999D01*
X150388911Y-75460007D01*
X150354000Y-75635516D01*
X150354000Y-75814483D01*
X150388911Y-75989992D01*
X150388913Y-75990000D01*
X150457396Y-76155332D01*
X150457402Y-76155344D01*
X150468270Y-76171608D01*
X150471307Y-76181308D01*
X150477963Y-76188989D01*
X150481571Y-76214087D01*
X150489149Y-76238285D01*
X150486460Y-76248085D01*
X150487907Y-76258147D01*
X150477372Y-76281214D01*
X150470665Y-76305665D01*
X150463104Y-76312456D01*
X150458882Y-76321703D01*
X150437548Y-76335413D01*
X150418687Y-76352356D01*
X150407089Y-76354987D01*
X150400104Y-76359477D01*
X150365169Y-76364500D01*
X150327095Y-76364500D01*
X150260056Y-76344815D01*
X150239414Y-76328181D01*
X149682319Y-75771086D01*
X149648834Y-75709763D01*
X149646000Y-75683405D01*
X149646000Y-75635520D01*
X149645999Y-75635516D01*
X149636680Y-75588666D01*
X149611087Y-75460000D01*
X149542602Y-75294664D01*
X149542600Y-75294661D01*
X149542598Y-75294657D01*
X149443178Y-75145865D01*
X149443175Y-75145861D01*
X149316638Y-75019324D01*
X149316634Y-75019321D01*
X149167842Y-74919901D01*
X149167832Y-74919896D01*
X149002500Y-74851413D01*
X149002492Y-74851411D01*
X148826983Y-74816500D01*
X148826979Y-74816500D01*
X148648021Y-74816500D01*
X148648016Y-74816500D01*
X148472507Y-74851411D01*
X148472499Y-74851413D01*
X148307167Y-74919896D01*
X148307157Y-74919901D01*
X148158365Y-75019321D01*
X148158361Y-75019324D01*
X148031824Y-75145861D01*
X148031821Y-75145865D01*
X147932401Y-75294657D01*
X147932396Y-75294667D01*
X147863913Y-75459999D01*
X147863911Y-75460007D01*
X147829000Y-75635516D01*
X147829000Y-75814483D01*
X147863911Y-75989992D01*
X147863913Y-75990000D01*
X147932396Y-76155332D01*
X147932401Y-76155342D01*
X148031821Y-76304134D01*
X148031824Y-76304138D01*
X148158361Y-76430675D01*
X148158365Y-76430678D01*
X148307157Y-76530098D01*
X148307161Y-76530100D01*
X148307164Y-76530102D01*
X148472500Y-76598587D01*
X148648016Y-76633499D01*
X148648020Y-76633500D01*
X148648021Y-76633500D01*
X148695905Y-76633500D01*
X148762944Y-76653185D01*
X148783586Y-76669819D01*
X149266586Y-77152819D01*
X149300071Y-77214142D01*
X149295087Y-77283834D01*
X149253215Y-77339767D01*
X149187751Y-77364184D01*
X149178905Y-77364500D01*
X143752095Y-77364500D01*
X143685056Y-77344815D01*
X143664414Y-77328181D01*
X142107319Y-75771086D01*
X142073834Y-75709763D01*
X142071000Y-75683405D01*
X142071000Y-75635520D01*
X142070999Y-75635516D01*
X142061680Y-75588666D01*
X142036087Y-75460000D01*
X141967602Y-75294664D01*
X141967600Y-75294661D01*
X141967598Y-75294657D01*
X141868178Y-75145865D01*
X141868175Y-75145861D01*
X141741638Y-75019324D01*
X141741634Y-75019321D01*
X141592842Y-74919901D01*
X141592832Y-74919896D01*
X141427500Y-74851413D01*
X141427492Y-74851411D01*
X141251983Y-74816500D01*
X141251979Y-74816500D01*
X141073021Y-74816500D01*
X141073016Y-74816500D01*
X140897507Y-74851411D01*
X140897499Y-74851413D01*
X140732167Y-74919896D01*
X140732157Y-74919901D01*
X140583365Y-75019321D01*
X140583361Y-75019324D01*
X140456824Y-75145861D01*
X140456821Y-75145865D01*
X140357401Y-75294657D01*
X140357396Y-75294667D01*
X140288913Y-75459999D01*
X140288911Y-75460007D01*
X140254000Y-75635516D01*
X140254000Y-75814483D01*
X140288911Y-75989992D01*
X140288913Y-75990000D01*
X140357396Y-76155332D01*
X140357401Y-76155342D01*
X140456821Y-76304134D01*
X140456824Y-76304138D01*
X140583361Y-76430675D01*
X140583365Y-76430678D01*
X140732157Y-76530098D01*
X140732161Y-76530100D01*
X140732164Y-76530102D01*
X140897500Y-76598587D01*
X141073016Y-76633499D01*
X141073020Y-76633500D01*
X141073021Y-76633500D01*
X141120905Y-76633500D01*
X141187944Y-76653185D01*
X141208586Y-76669819D01*
X142418586Y-77879819D01*
X142452071Y-77941142D01*
X142447087Y-78010834D01*
X142405215Y-78066767D01*
X142339751Y-78091184D01*
X142330905Y-78091500D01*
X142097264Y-78091500D01*
X142060644Y-78094382D01*
X142060638Y-78094383D01*
X141933698Y-78131262D01*
X141864510Y-78131262D01*
X141739279Y-78094879D01*
X141702693Y-78092000D01*
X141297306Y-78092000D01*
X141260720Y-78094879D01*
X141260714Y-78094880D01*
X141135490Y-78131262D01*
X141066300Y-78131262D01*
X140939367Y-78094384D01*
X140939355Y-78094382D01*
X140902735Y-78091500D01*
X140902730Y-78091500D01*
X140497270Y-78091500D01*
X140497264Y-78091500D01*
X140460644Y-78094382D01*
X140460633Y-78094384D01*
X140303908Y-78139917D01*
X140303902Y-78139919D01*
X140221365Y-78188732D01*
X140158244Y-78206000D01*
X138541745Y-78206000D01*
X138474706Y-78186315D01*
X138472854Y-78185102D01*
X138345342Y-78099901D01*
X138345332Y-78099896D01*
X138180000Y-78031413D01*
X138179992Y-78031411D01*
X138004483Y-77996500D01*
X138004479Y-77996500D01*
X137825521Y-77996500D01*
X137825516Y-77996500D01*
X137650007Y-78031411D01*
X137649999Y-78031413D01*
X137484667Y-78099896D01*
X137484657Y-78099901D01*
X137335865Y-78199321D01*
X137335860Y-78199325D01*
X137292139Y-78243046D01*
X137230816Y-78276530D01*
X137161124Y-78271545D01*
X137116778Y-78243045D01*
X132655111Y-73781377D01*
X132655107Y-73781374D01*
X132551028Y-73711830D01*
X132551015Y-73711823D01*
X132435373Y-73663923D01*
X132435361Y-73663920D01*
X132312595Y-73639500D01*
X132312591Y-73639500D01*
X112787591Y-73639500D01*
X112662409Y-73639500D01*
X112662404Y-73639500D01*
X112539638Y-73663920D01*
X112539626Y-73663923D01*
X112423984Y-73711823D01*
X112423971Y-73711830D01*
X112319892Y-73781374D01*
X112319888Y-73781377D01*
X110546086Y-75555181D01*
X110484763Y-75588666D01*
X110458405Y-75591500D01*
X110410516Y-75591500D01*
X110235007Y-75626411D01*
X110234999Y-75626413D01*
X110069667Y-75694896D01*
X110069657Y-75694901D01*
X109920865Y-75794321D01*
X109920861Y-75794324D01*
X109794324Y-75920861D01*
X109794321Y-75920865D01*
X109694901Y-76069657D01*
X109694896Y-76069667D01*
X109626413Y-76234999D01*
X109626411Y-76235007D01*
X109591500Y-76410516D01*
X101300500Y-76410516D01*
X101300500Y-70424500D01*
X101320185Y-70357461D01*
X101372989Y-70311706D01*
X101424500Y-70300500D01*
X181575500Y-70300500D01*
X181642539Y-70320185D01*
G37*
%TD.AperFunction*%
M02*
