%TF.GenerationSoftware,KiCad,Pcbnew,9.0.2*%
%TF.CreationDate,2025-06-17T12:35:59-07:00*%
%TF.ProjectId,controller,636f6e74-726f-46c6-9c65-722e6b696361,rev?*%
%TF.SameCoordinates,Original*%
%TF.FileFunction,Drillmap*%
%TF.FilePolarity,Positive*%
%FSLAX45Y45*%
G04 Gerber Fmt 4.5, Leading zero omitted, Abs format (unit mm)*
G04 Created by KiCad (PCBNEW 9.0.2) date 2025-06-17 12:35:59*
%MOMM*%
%LPD*%
G01*
G04 APERTURE LIST*
%ADD10C,0.050000*%
%ADD11C,0.200000*%
%ADD12C,0.100000*%
G04 APERTURE END LIST*
D10*
X10100000Y-7000000D02*
X18200000Y-7000000D01*
X18200000Y-10500000D01*
X10100000Y-10500000D01*
X10100000Y-7000000D01*
D11*
D12*
X10553500Y-9982500D02*
X10618500Y-10047500D01*
X10618500Y-9982500D02*
X10553500Y-10047500D01*
X11131500Y-9982500D02*
X11196500Y-10047500D01*
X11196500Y-9982500D02*
X11131500Y-10047500D01*
D11*
X10358277Y-10813984D02*
X10358277Y-10613984D01*
X10358277Y-10613984D02*
X10405896Y-10613984D01*
X10405896Y-10613984D02*
X10434467Y-10623508D01*
X10434467Y-10623508D02*
X10453515Y-10642555D01*
X10453515Y-10642555D02*
X10463039Y-10661603D01*
X10463039Y-10661603D02*
X10472563Y-10699698D01*
X10472563Y-10699698D02*
X10472563Y-10728270D01*
X10472563Y-10728270D02*
X10463039Y-10766365D01*
X10463039Y-10766365D02*
X10453515Y-10785412D01*
X10453515Y-10785412D02*
X10434467Y-10804460D01*
X10434467Y-10804460D02*
X10405896Y-10813984D01*
X10405896Y-10813984D02*
X10358277Y-10813984D01*
X10558277Y-10813984D02*
X10558277Y-10680650D01*
X10558277Y-10718746D02*
X10567801Y-10699698D01*
X10567801Y-10699698D02*
X10577324Y-10690174D01*
X10577324Y-10690174D02*
X10596372Y-10680650D01*
X10596372Y-10680650D02*
X10615420Y-10680650D01*
X10682086Y-10813984D02*
X10682086Y-10680650D01*
X10682086Y-10613984D02*
X10672563Y-10623508D01*
X10672563Y-10623508D02*
X10682086Y-10633031D01*
X10682086Y-10633031D02*
X10691610Y-10623508D01*
X10691610Y-10623508D02*
X10682086Y-10613984D01*
X10682086Y-10613984D02*
X10682086Y-10633031D01*
X10805896Y-10813984D02*
X10786848Y-10804460D01*
X10786848Y-10804460D02*
X10777324Y-10785412D01*
X10777324Y-10785412D02*
X10777324Y-10613984D01*
X10910658Y-10813984D02*
X10891610Y-10804460D01*
X10891610Y-10804460D02*
X10882086Y-10785412D01*
X10882086Y-10785412D02*
X10882086Y-10613984D01*
X11139229Y-10813984D02*
X11139229Y-10613984D01*
X11139229Y-10613984D02*
X11205896Y-10756841D01*
X11205896Y-10756841D02*
X11272562Y-10613984D01*
X11272562Y-10613984D02*
X11272562Y-10813984D01*
X11453515Y-10813984D02*
X11453515Y-10709222D01*
X11453515Y-10709222D02*
X11443991Y-10690174D01*
X11443991Y-10690174D02*
X11424943Y-10680650D01*
X11424943Y-10680650D02*
X11386848Y-10680650D01*
X11386848Y-10680650D02*
X11367801Y-10690174D01*
X11453515Y-10804460D02*
X11434467Y-10813984D01*
X11434467Y-10813984D02*
X11386848Y-10813984D01*
X11386848Y-10813984D02*
X11367801Y-10804460D01*
X11367801Y-10804460D02*
X11358277Y-10785412D01*
X11358277Y-10785412D02*
X11358277Y-10766365D01*
X11358277Y-10766365D02*
X11367801Y-10747317D01*
X11367801Y-10747317D02*
X11386848Y-10737793D01*
X11386848Y-10737793D02*
X11434467Y-10737793D01*
X11434467Y-10737793D02*
X11453515Y-10728270D01*
X11548753Y-10680650D02*
X11548753Y-10880650D01*
X11548753Y-10690174D02*
X11567801Y-10680650D01*
X11567801Y-10680650D02*
X11605896Y-10680650D01*
X11605896Y-10680650D02*
X11624943Y-10690174D01*
X11624943Y-10690174D02*
X11634467Y-10699698D01*
X11634467Y-10699698D02*
X11643991Y-10718746D01*
X11643991Y-10718746D02*
X11643991Y-10775889D01*
X11643991Y-10775889D02*
X11634467Y-10794936D01*
X11634467Y-10794936D02*
X11624943Y-10804460D01*
X11624943Y-10804460D02*
X11605896Y-10813984D01*
X11605896Y-10813984D02*
X11567801Y-10813984D01*
X11567801Y-10813984D02*
X11548753Y-10804460D01*
X11729705Y-10794936D02*
X11739229Y-10804460D01*
X11739229Y-10804460D02*
X11729705Y-10813984D01*
X11729705Y-10813984D02*
X11720182Y-10804460D01*
X11720182Y-10804460D02*
X11729705Y-10794936D01*
X11729705Y-10794936D02*
X11729705Y-10813984D01*
X11729705Y-10690174D02*
X11739229Y-10699698D01*
X11739229Y-10699698D02*
X11729705Y-10709222D01*
X11729705Y-10709222D02*
X11720182Y-10699698D01*
X11720182Y-10699698D02*
X11729705Y-10690174D01*
X11729705Y-10690174D02*
X11729705Y-10709222D01*
D12*
X10032500Y-11110000D02*
X10097500Y-11175000D01*
X10097500Y-11110000D02*
X10032500Y-11175000D01*
D11*
X10396372Y-11033984D02*
X10415420Y-11033984D01*
X10415420Y-11033984D02*
X10434467Y-11043508D01*
X10434467Y-11043508D02*
X10443991Y-11053031D01*
X10443991Y-11053031D02*
X10453515Y-11072079D01*
X10453515Y-11072079D02*
X10463039Y-11110174D01*
X10463039Y-11110174D02*
X10463039Y-11157793D01*
X10463039Y-11157793D02*
X10453515Y-11195888D01*
X10453515Y-11195888D02*
X10443991Y-11214936D01*
X10443991Y-11214936D02*
X10434467Y-11224460D01*
X10434467Y-11224460D02*
X10415420Y-11233984D01*
X10415420Y-11233984D02*
X10396372Y-11233984D01*
X10396372Y-11233984D02*
X10377324Y-11224460D01*
X10377324Y-11224460D02*
X10367801Y-11214936D01*
X10367801Y-11214936D02*
X10358277Y-11195888D01*
X10358277Y-11195888D02*
X10348753Y-11157793D01*
X10348753Y-11157793D02*
X10348753Y-11110174D01*
X10348753Y-11110174D02*
X10358277Y-11072079D01*
X10358277Y-11072079D02*
X10367801Y-11053031D01*
X10367801Y-11053031D02*
X10377324Y-11043508D01*
X10377324Y-11043508D02*
X10396372Y-11033984D01*
X10548753Y-11214936D02*
X10558277Y-11224460D01*
X10558277Y-11224460D02*
X10548753Y-11233984D01*
X10548753Y-11233984D02*
X10539229Y-11224460D01*
X10539229Y-11224460D02*
X10548753Y-11214936D01*
X10548753Y-11214936D02*
X10548753Y-11233984D01*
X10729705Y-11033984D02*
X10691610Y-11033984D01*
X10691610Y-11033984D02*
X10672563Y-11043508D01*
X10672563Y-11043508D02*
X10663039Y-11053031D01*
X10663039Y-11053031D02*
X10643991Y-11081603D01*
X10643991Y-11081603D02*
X10634467Y-11119698D01*
X10634467Y-11119698D02*
X10634467Y-11195888D01*
X10634467Y-11195888D02*
X10643991Y-11214936D01*
X10643991Y-11214936D02*
X10653515Y-11224460D01*
X10653515Y-11224460D02*
X10672563Y-11233984D01*
X10672563Y-11233984D02*
X10710658Y-11233984D01*
X10710658Y-11233984D02*
X10729705Y-11224460D01*
X10729705Y-11224460D02*
X10739229Y-11214936D01*
X10739229Y-11214936D02*
X10748753Y-11195888D01*
X10748753Y-11195888D02*
X10748753Y-11148270D01*
X10748753Y-11148270D02*
X10739229Y-11129222D01*
X10739229Y-11129222D02*
X10729705Y-11119698D01*
X10729705Y-11119698D02*
X10710658Y-11110174D01*
X10710658Y-11110174D02*
X10672563Y-11110174D01*
X10672563Y-11110174D02*
X10653515Y-11119698D01*
X10653515Y-11119698D02*
X10643991Y-11129222D01*
X10643991Y-11129222D02*
X10634467Y-11148270D01*
X10929705Y-11033984D02*
X10834467Y-11033984D01*
X10834467Y-11033984D02*
X10824944Y-11129222D01*
X10824944Y-11129222D02*
X10834467Y-11119698D01*
X10834467Y-11119698D02*
X10853515Y-11110174D01*
X10853515Y-11110174D02*
X10901134Y-11110174D01*
X10901134Y-11110174D02*
X10920182Y-11119698D01*
X10920182Y-11119698D02*
X10929705Y-11129222D01*
X10929705Y-11129222D02*
X10939229Y-11148270D01*
X10939229Y-11148270D02*
X10939229Y-11195888D01*
X10939229Y-11195888D02*
X10929705Y-11214936D01*
X10929705Y-11214936D02*
X10920182Y-11224460D01*
X10920182Y-11224460D02*
X10901134Y-11233984D01*
X10901134Y-11233984D02*
X10853515Y-11233984D01*
X10853515Y-11233984D02*
X10834467Y-11224460D01*
X10834467Y-11224460D02*
X10824944Y-11214936D01*
X11063039Y-11033984D02*
X11082086Y-11033984D01*
X11082086Y-11033984D02*
X11101134Y-11043508D01*
X11101134Y-11043508D02*
X11110658Y-11053031D01*
X11110658Y-11053031D02*
X11120182Y-11072079D01*
X11120182Y-11072079D02*
X11129705Y-11110174D01*
X11129705Y-11110174D02*
X11129705Y-11157793D01*
X11129705Y-11157793D02*
X11120182Y-11195888D01*
X11120182Y-11195888D02*
X11110658Y-11214936D01*
X11110658Y-11214936D02*
X11101134Y-11224460D01*
X11101134Y-11224460D02*
X11082086Y-11233984D01*
X11082086Y-11233984D02*
X11063039Y-11233984D01*
X11063039Y-11233984D02*
X11043991Y-11224460D01*
X11043991Y-11224460D02*
X11034467Y-11214936D01*
X11034467Y-11214936D02*
X11024944Y-11195888D01*
X11024944Y-11195888D02*
X11015420Y-11157793D01*
X11015420Y-11157793D02*
X11015420Y-11110174D01*
X11015420Y-11110174D02*
X11024944Y-11072079D01*
X11024944Y-11072079D02*
X11034467Y-11053031D01*
X11034467Y-11053031D02*
X11043991Y-11043508D01*
X11043991Y-11043508D02*
X11063039Y-11033984D01*
X11215420Y-11233984D02*
X11215420Y-11100650D01*
X11215420Y-11119698D02*
X11224943Y-11110174D01*
X11224943Y-11110174D02*
X11243991Y-11100650D01*
X11243991Y-11100650D02*
X11272563Y-11100650D01*
X11272563Y-11100650D02*
X11291610Y-11110174D01*
X11291610Y-11110174D02*
X11301134Y-11129222D01*
X11301134Y-11129222D02*
X11301134Y-11233984D01*
X11301134Y-11129222D02*
X11310658Y-11110174D01*
X11310658Y-11110174D02*
X11329705Y-11100650D01*
X11329705Y-11100650D02*
X11358277Y-11100650D01*
X11358277Y-11100650D02*
X11377324Y-11110174D01*
X11377324Y-11110174D02*
X11386848Y-11129222D01*
X11386848Y-11129222D02*
X11386848Y-11233984D01*
X11482086Y-11233984D02*
X11482086Y-11100650D01*
X11482086Y-11119698D02*
X11491610Y-11110174D01*
X11491610Y-11110174D02*
X11510658Y-11100650D01*
X11510658Y-11100650D02*
X11539229Y-11100650D01*
X11539229Y-11100650D02*
X11558277Y-11110174D01*
X11558277Y-11110174D02*
X11567801Y-11129222D01*
X11567801Y-11129222D02*
X11567801Y-11233984D01*
X11567801Y-11129222D02*
X11577324Y-11110174D01*
X11577324Y-11110174D02*
X11596372Y-11100650D01*
X11596372Y-11100650D02*
X11624943Y-11100650D01*
X11624943Y-11100650D02*
X11643991Y-11110174D01*
X11643991Y-11110174D02*
X11653515Y-11129222D01*
X11653515Y-11129222D02*
X11653515Y-11233984D01*
X12043991Y-11024460D02*
X11872563Y-11281603D01*
X12301134Y-11033984D02*
X12320182Y-11033984D01*
X12320182Y-11033984D02*
X12339229Y-11043508D01*
X12339229Y-11043508D02*
X12348753Y-11053031D01*
X12348753Y-11053031D02*
X12358277Y-11072079D01*
X12358277Y-11072079D02*
X12367801Y-11110174D01*
X12367801Y-11110174D02*
X12367801Y-11157793D01*
X12367801Y-11157793D02*
X12358277Y-11195888D01*
X12358277Y-11195888D02*
X12348753Y-11214936D01*
X12348753Y-11214936D02*
X12339229Y-11224460D01*
X12339229Y-11224460D02*
X12320182Y-11233984D01*
X12320182Y-11233984D02*
X12301134Y-11233984D01*
X12301134Y-11233984D02*
X12282086Y-11224460D01*
X12282086Y-11224460D02*
X12272563Y-11214936D01*
X12272563Y-11214936D02*
X12263039Y-11195888D01*
X12263039Y-11195888D02*
X12253515Y-11157793D01*
X12253515Y-11157793D02*
X12253515Y-11110174D01*
X12253515Y-11110174D02*
X12263039Y-11072079D01*
X12263039Y-11072079D02*
X12272563Y-11053031D01*
X12272563Y-11053031D02*
X12282086Y-11043508D01*
X12282086Y-11043508D02*
X12301134Y-11033984D01*
X12453515Y-11214936D02*
X12463039Y-11224460D01*
X12463039Y-11224460D02*
X12453515Y-11233984D01*
X12453515Y-11233984D02*
X12443991Y-11224460D01*
X12443991Y-11224460D02*
X12453515Y-11214936D01*
X12453515Y-11214936D02*
X12453515Y-11233984D01*
X12586848Y-11033984D02*
X12605896Y-11033984D01*
X12605896Y-11033984D02*
X12624944Y-11043508D01*
X12624944Y-11043508D02*
X12634467Y-11053031D01*
X12634467Y-11053031D02*
X12643991Y-11072079D01*
X12643991Y-11072079D02*
X12653515Y-11110174D01*
X12653515Y-11110174D02*
X12653515Y-11157793D01*
X12653515Y-11157793D02*
X12643991Y-11195888D01*
X12643991Y-11195888D02*
X12634467Y-11214936D01*
X12634467Y-11214936D02*
X12624944Y-11224460D01*
X12624944Y-11224460D02*
X12605896Y-11233984D01*
X12605896Y-11233984D02*
X12586848Y-11233984D01*
X12586848Y-11233984D02*
X12567801Y-11224460D01*
X12567801Y-11224460D02*
X12558277Y-11214936D01*
X12558277Y-11214936D02*
X12548753Y-11195888D01*
X12548753Y-11195888D02*
X12539229Y-11157793D01*
X12539229Y-11157793D02*
X12539229Y-11110174D01*
X12539229Y-11110174D02*
X12548753Y-11072079D01*
X12548753Y-11072079D02*
X12558277Y-11053031D01*
X12558277Y-11053031D02*
X12567801Y-11043508D01*
X12567801Y-11043508D02*
X12586848Y-11033984D01*
X12729706Y-11053031D02*
X12739229Y-11043508D01*
X12739229Y-11043508D02*
X12758277Y-11033984D01*
X12758277Y-11033984D02*
X12805896Y-11033984D01*
X12805896Y-11033984D02*
X12824944Y-11043508D01*
X12824944Y-11043508D02*
X12834467Y-11053031D01*
X12834467Y-11053031D02*
X12843991Y-11072079D01*
X12843991Y-11072079D02*
X12843991Y-11091127D01*
X12843991Y-11091127D02*
X12834467Y-11119698D01*
X12834467Y-11119698D02*
X12720182Y-11233984D01*
X12720182Y-11233984D02*
X12843991Y-11233984D01*
X13024944Y-11033984D02*
X12929706Y-11033984D01*
X12929706Y-11033984D02*
X12920182Y-11129222D01*
X12920182Y-11129222D02*
X12929706Y-11119698D01*
X12929706Y-11119698D02*
X12948753Y-11110174D01*
X12948753Y-11110174D02*
X12996372Y-11110174D01*
X12996372Y-11110174D02*
X13015420Y-11119698D01*
X13015420Y-11119698D02*
X13024944Y-11129222D01*
X13024944Y-11129222D02*
X13034467Y-11148270D01*
X13034467Y-11148270D02*
X13034467Y-11195888D01*
X13034467Y-11195888D02*
X13024944Y-11214936D01*
X13024944Y-11214936D02*
X13015420Y-11224460D01*
X13015420Y-11224460D02*
X12996372Y-11233984D01*
X12996372Y-11233984D02*
X12948753Y-11233984D01*
X12948753Y-11233984D02*
X12929706Y-11224460D01*
X12929706Y-11224460D02*
X12920182Y-11214936D01*
X13205896Y-11033984D02*
X13167801Y-11033984D01*
X13167801Y-11033984D02*
X13148753Y-11043508D01*
X13148753Y-11043508D02*
X13139229Y-11053031D01*
X13139229Y-11053031D02*
X13120182Y-11081603D01*
X13120182Y-11081603D02*
X13110658Y-11119698D01*
X13110658Y-11119698D02*
X13110658Y-11195888D01*
X13110658Y-11195888D02*
X13120182Y-11214936D01*
X13120182Y-11214936D02*
X13129706Y-11224460D01*
X13129706Y-11224460D02*
X13148753Y-11233984D01*
X13148753Y-11233984D02*
X13186848Y-11233984D01*
X13186848Y-11233984D02*
X13205896Y-11224460D01*
X13205896Y-11224460D02*
X13215420Y-11214936D01*
X13215420Y-11214936D02*
X13224944Y-11195888D01*
X13224944Y-11195888D02*
X13224944Y-11148270D01*
X13224944Y-11148270D02*
X13215420Y-11129222D01*
X13215420Y-11129222D02*
X13205896Y-11119698D01*
X13205896Y-11119698D02*
X13186848Y-11110174D01*
X13186848Y-11110174D02*
X13148753Y-11110174D01*
X13148753Y-11110174D02*
X13129706Y-11119698D01*
X13129706Y-11119698D02*
X13120182Y-11129222D01*
X13120182Y-11129222D02*
X13110658Y-11148270D01*
X13301134Y-11033984D02*
X13301134Y-11072079D01*
X13377325Y-11033984D02*
X13377325Y-11072079D01*
X13672563Y-11310174D02*
X13663039Y-11300650D01*
X13663039Y-11300650D02*
X13643991Y-11272079D01*
X13643991Y-11272079D02*
X13634468Y-11253031D01*
X13634468Y-11253031D02*
X13624944Y-11224460D01*
X13624944Y-11224460D02*
X13615420Y-11176841D01*
X13615420Y-11176841D02*
X13615420Y-11138746D01*
X13615420Y-11138746D02*
X13624944Y-11091127D01*
X13624944Y-11091127D02*
X13634468Y-11062555D01*
X13634468Y-11062555D02*
X13643991Y-11043508D01*
X13643991Y-11043508D02*
X13663039Y-11014936D01*
X13663039Y-11014936D02*
X13672563Y-11005412D01*
X13739229Y-11053031D02*
X13748753Y-11043508D01*
X13748753Y-11043508D02*
X13767801Y-11033984D01*
X13767801Y-11033984D02*
X13815420Y-11033984D01*
X13815420Y-11033984D02*
X13834468Y-11043508D01*
X13834468Y-11043508D02*
X13843991Y-11053031D01*
X13843991Y-11053031D02*
X13853515Y-11072079D01*
X13853515Y-11072079D02*
X13853515Y-11091127D01*
X13853515Y-11091127D02*
X13843991Y-11119698D01*
X13843991Y-11119698D02*
X13729706Y-11233984D01*
X13729706Y-11233984D02*
X13853515Y-11233984D01*
X14091610Y-11233984D02*
X14091610Y-11033984D01*
X14177325Y-11233984D02*
X14177325Y-11129222D01*
X14177325Y-11129222D02*
X14167801Y-11110174D01*
X14167801Y-11110174D02*
X14148753Y-11100650D01*
X14148753Y-11100650D02*
X14120182Y-11100650D01*
X14120182Y-11100650D02*
X14101134Y-11110174D01*
X14101134Y-11110174D02*
X14091610Y-11119698D01*
X14301134Y-11233984D02*
X14282087Y-11224460D01*
X14282087Y-11224460D02*
X14272563Y-11214936D01*
X14272563Y-11214936D02*
X14263039Y-11195888D01*
X14263039Y-11195888D02*
X14263039Y-11138746D01*
X14263039Y-11138746D02*
X14272563Y-11119698D01*
X14272563Y-11119698D02*
X14282087Y-11110174D01*
X14282087Y-11110174D02*
X14301134Y-11100650D01*
X14301134Y-11100650D02*
X14329706Y-11100650D01*
X14329706Y-11100650D02*
X14348753Y-11110174D01*
X14348753Y-11110174D02*
X14358277Y-11119698D01*
X14358277Y-11119698D02*
X14367801Y-11138746D01*
X14367801Y-11138746D02*
X14367801Y-11195888D01*
X14367801Y-11195888D02*
X14358277Y-11214936D01*
X14358277Y-11214936D02*
X14348753Y-11224460D01*
X14348753Y-11224460D02*
X14329706Y-11233984D01*
X14329706Y-11233984D02*
X14301134Y-11233984D01*
X14482087Y-11233984D02*
X14463039Y-11224460D01*
X14463039Y-11224460D02*
X14453515Y-11205412D01*
X14453515Y-11205412D02*
X14453515Y-11033984D01*
X14634468Y-11224460D02*
X14615420Y-11233984D01*
X14615420Y-11233984D02*
X14577325Y-11233984D01*
X14577325Y-11233984D02*
X14558277Y-11224460D01*
X14558277Y-11224460D02*
X14548753Y-11205412D01*
X14548753Y-11205412D02*
X14548753Y-11129222D01*
X14548753Y-11129222D02*
X14558277Y-11110174D01*
X14558277Y-11110174D02*
X14577325Y-11100650D01*
X14577325Y-11100650D02*
X14615420Y-11100650D01*
X14615420Y-11100650D02*
X14634468Y-11110174D01*
X14634468Y-11110174D02*
X14643991Y-11129222D01*
X14643991Y-11129222D02*
X14643991Y-11148270D01*
X14643991Y-11148270D02*
X14548753Y-11167317D01*
X14720182Y-11224460D02*
X14739230Y-11233984D01*
X14739230Y-11233984D02*
X14777325Y-11233984D01*
X14777325Y-11233984D02*
X14796372Y-11224460D01*
X14796372Y-11224460D02*
X14805896Y-11205412D01*
X14805896Y-11205412D02*
X14805896Y-11195888D01*
X14805896Y-11195888D02*
X14796372Y-11176841D01*
X14796372Y-11176841D02*
X14777325Y-11167317D01*
X14777325Y-11167317D02*
X14748753Y-11167317D01*
X14748753Y-11167317D02*
X14729706Y-11157793D01*
X14729706Y-11157793D02*
X14720182Y-11138746D01*
X14720182Y-11138746D02*
X14720182Y-11129222D01*
X14720182Y-11129222D02*
X14729706Y-11110174D01*
X14729706Y-11110174D02*
X14748753Y-11100650D01*
X14748753Y-11100650D02*
X14777325Y-11100650D01*
X14777325Y-11100650D02*
X14796372Y-11110174D01*
X14872563Y-11310174D02*
X14882087Y-11300650D01*
X14882087Y-11300650D02*
X14901134Y-11272079D01*
X14901134Y-11272079D02*
X14910658Y-11253031D01*
X14910658Y-11253031D02*
X14920182Y-11224460D01*
X14920182Y-11224460D02*
X14929706Y-11176841D01*
X14929706Y-11176841D02*
X14929706Y-11138746D01*
X14929706Y-11138746D02*
X14920182Y-11091127D01*
X14920182Y-11091127D02*
X14910658Y-11062555D01*
X14910658Y-11062555D02*
X14901134Y-11043508D01*
X14901134Y-11043508D02*
X14882087Y-11014936D01*
X14882087Y-11014936D02*
X14872563Y-11005412D01*
X15234468Y-11310174D02*
X15224944Y-11300650D01*
X15224944Y-11300650D02*
X15205896Y-11272079D01*
X15205896Y-11272079D02*
X15196372Y-11253031D01*
X15196372Y-11253031D02*
X15186849Y-11224460D01*
X15186849Y-11224460D02*
X15177325Y-11176841D01*
X15177325Y-11176841D02*
X15177325Y-11138746D01*
X15177325Y-11138746D02*
X15186849Y-11091127D01*
X15186849Y-11091127D02*
X15196372Y-11062555D01*
X15196372Y-11062555D02*
X15205896Y-11043508D01*
X15205896Y-11043508D02*
X15224944Y-11014936D01*
X15224944Y-11014936D02*
X15234468Y-11005412D01*
X15310658Y-11100650D02*
X15310658Y-11233984D01*
X15310658Y-11119698D02*
X15320182Y-11110174D01*
X15320182Y-11110174D02*
X15339230Y-11100650D01*
X15339230Y-11100650D02*
X15367801Y-11100650D01*
X15367801Y-11100650D02*
X15386849Y-11110174D01*
X15386849Y-11110174D02*
X15396372Y-11129222D01*
X15396372Y-11129222D02*
X15396372Y-11233984D01*
X15520182Y-11233984D02*
X15501134Y-11224460D01*
X15501134Y-11224460D02*
X15491611Y-11214936D01*
X15491611Y-11214936D02*
X15482087Y-11195888D01*
X15482087Y-11195888D02*
X15482087Y-11138746D01*
X15482087Y-11138746D02*
X15491611Y-11119698D01*
X15491611Y-11119698D02*
X15501134Y-11110174D01*
X15501134Y-11110174D02*
X15520182Y-11100650D01*
X15520182Y-11100650D02*
X15548753Y-11100650D01*
X15548753Y-11100650D02*
X15567801Y-11110174D01*
X15567801Y-11110174D02*
X15577325Y-11119698D01*
X15577325Y-11119698D02*
X15586849Y-11138746D01*
X15586849Y-11138746D02*
X15586849Y-11195888D01*
X15586849Y-11195888D02*
X15577325Y-11214936D01*
X15577325Y-11214936D02*
X15567801Y-11224460D01*
X15567801Y-11224460D02*
X15548753Y-11233984D01*
X15548753Y-11233984D02*
X15520182Y-11233984D01*
X15643992Y-11100650D02*
X15720182Y-11100650D01*
X15672563Y-11033984D02*
X15672563Y-11205412D01*
X15672563Y-11205412D02*
X15682087Y-11224460D01*
X15682087Y-11224460D02*
X15701134Y-11233984D01*
X15701134Y-11233984D02*
X15720182Y-11233984D01*
X15939230Y-11100650D02*
X15939230Y-11300650D01*
X15939230Y-11110174D02*
X15958277Y-11100650D01*
X15958277Y-11100650D02*
X15996373Y-11100650D01*
X15996373Y-11100650D02*
X16015420Y-11110174D01*
X16015420Y-11110174D02*
X16024944Y-11119698D01*
X16024944Y-11119698D02*
X16034468Y-11138746D01*
X16034468Y-11138746D02*
X16034468Y-11195888D01*
X16034468Y-11195888D02*
X16024944Y-11214936D01*
X16024944Y-11214936D02*
X16015420Y-11224460D01*
X16015420Y-11224460D02*
X15996373Y-11233984D01*
X15996373Y-11233984D02*
X15958277Y-11233984D01*
X15958277Y-11233984D02*
X15939230Y-11224460D01*
X16148753Y-11233984D02*
X16129706Y-11224460D01*
X16129706Y-11224460D02*
X16120182Y-11205412D01*
X16120182Y-11205412D02*
X16120182Y-11033984D01*
X16310658Y-11233984D02*
X16310658Y-11129222D01*
X16310658Y-11129222D02*
X16301134Y-11110174D01*
X16301134Y-11110174D02*
X16282087Y-11100650D01*
X16282087Y-11100650D02*
X16243992Y-11100650D01*
X16243992Y-11100650D02*
X16224944Y-11110174D01*
X16310658Y-11224460D02*
X16291611Y-11233984D01*
X16291611Y-11233984D02*
X16243992Y-11233984D01*
X16243992Y-11233984D02*
X16224944Y-11224460D01*
X16224944Y-11224460D02*
X16215420Y-11205412D01*
X16215420Y-11205412D02*
X16215420Y-11186365D01*
X16215420Y-11186365D02*
X16224944Y-11167317D01*
X16224944Y-11167317D02*
X16243992Y-11157793D01*
X16243992Y-11157793D02*
X16291611Y-11157793D01*
X16291611Y-11157793D02*
X16310658Y-11148270D01*
X16377325Y-11100650D02*
X16453515Y-11100650D01*
X16405896Y-11033984D02*
X16405896Y-11205412D01*
X16405896Y-11205412D02*
X16415420Y-11224460D01*
X16415420Y-11224460D02*
X16434468Y-11233984D01*
X16434468Y-11233984D02*
X16453515Y-11233984D01*
X16596373Y-11224460D02*
X16577325Y-11233984D01*
X16577325Y-11233984D02*
X16539230Y-11233984D01*
X16539230Y-11233984D02*
X16520182Y-11224460D01*
X16520182Y-11224460D02*
X16510658Y-11205412D01*
X16510658Y-11205412D02*
X16510658Y-11129222D01*
X16510658Y-11129222D02*
X16520182Y-11110174D01*
X16520182Y-11110174D02*
X16539230Y-11100650D01*
X16539230Y-11100650D02*
X16577325Y-11100650D01*
X16577325Y-11100650D02*
X16596373Y-11110174D01*
X16596373Y-11110174D02*
X16605896Y-11129222D01*
X16605896Y-11129222D02*
X16605896Y-11148270D01*
X16605896Y-11148270D02*
X16510658Y-11167317D01*
X16777325Y-11233984D02*
X16777325Y-11033984D01*
X16777325Y-11224460D02*
X16758277Y-11233984D01*
X16758277Y-11233984D02*
X16720182Y-11233984D01*
X16720182Y-11233984D02*
X16701134Y-11224460D01*
X16701134Y-11224460D02*
X16691611Y-11214936D01*
X16691611Y-11214936D02*
X16682087Y-11195888D01*
X16682087Y-11195888D02*
X16682087Y-11138746D01*
X16682087Y-11138746D02*
X16691611Y-11119698D01*
X16691611Y-11119698D02*
X16701134Y-11110174D01*
X16701134Y-11110174D02*
X16720182Y-11100650D01*
X16720182Y-11100650D02*
X16758277Y-11100650D01*
X16758277Y-11100650D02*
X16777325Y-11110174D01*
X16853516Y-11310174D02*
X16863039Y-11300650D01*
X16863039Y-11300650D02*
X16882087Y-11272079D01*
X16882087Y-11272079D02*
X16891611Y-11253031D01*
X16891611Y-11253031D02*
X16901135Y-11224460D01*
X16901135Y-11224460D02*
X16910658Y-11176841D01*
X16910658Y-11176841D02*
X16910658Y-11138746D01*
X16910658Y-11138746D02*
X16901135Y-11091127D01*
X16901135Y-11091127D02*
X16891611Y-11062555D01*
X16891611Y-11062555D02*
X16882087Y-11043508D01*
X16882087Y-11043508D02*
X16863039Y-11014936D01*
X16863039Y-11014936D02*
X16853516Y-11005412D01*
M02*
