%TF.GenerationSoftware,KiCad,Pcbnew,9.0.2*%
%TF.CreationDate,2025-06-17T12:36:06-07:00*%
%TF.ProjectId,controller,636f6e74-726f-46c6-9c65-722e6b696361,rev?*%
%TF.SameCoordinates,Original*%
%TF.FileFunction,Copper,L2,Bot*%
%TF.FilePolarity,Positive*%
%FSLAX46Y46*%
G04 Gerber Fmt 4.6, Leading zero omitted, Abs format (unit mm)*
G04 Created by KiCad (PCBNEW 9.0.2) date 2025-06-17 12:36:06*
%MOMM*%
%LPD*%
G01*
G04 APERTURE LIST*
G04 Aperture macros list*
%AMRoundRect*
0 Rectangle with rounded corners*
0 $1 Rounding radius*
0 $2 $3 $4 $5 $6 $7 $8 $9 X,Y pos of 4 corners*
0 Add a 4 corners polygon primitive as box body*
4,1,4,$2,$3,$4,$5,$6,$7,$8,$9,$2,$3,0*
0 Add four circle primitives for the rounded corners*
1,1,$1+$1,$2,$3*
1,1,$1+$1,$4,$5*
1,1,$1+$1,$6,$7*
1,1,$1+$1,$8,$9*
0 Add four rect primitives between the rounded corners*
20,1,$1+$1,$2,$3,$4,$5,0*
20,1,$1+$1,$4,$5,$6,$7,0*
20,1,$1+$1,$6,$7,$8,$9,0*
20,1,$1+$1,$8,$9,$2,$3,0*%
G04 Aperture macros list end*
%TA.AperFunction,ComponentPad*%
%ADD10C,1.600000*%
%TD*%
%TA.AperFunction,ComponentPad*%
%ADD11R,6.750000X6.000000*%
%TD*%
%TA.AperFunction,ComponentPad*%
%ADD12C,2.000000*%
%TD*%
%TA.AperFunction,SMDPad,CuDef*%
%ADD13RoundRect,0.109375X-0.984375X-1.990625X0.984375X-1.990625X0.984375X1.990625X-0.984375X1.990625X0*%
%TD*%
%TA.AperFunction,ComponentPad*%
%ADD14R,1.800000X1.800000*%
%TD*%
%TA.AperFunction,ComponentPad*%
%ADD15C,1.800000*%
%TD*%
%TA.AperFunction,ComponentPad*%
%ADD16C,1.500000*%
%TD*%
%TA.AperFunction,ComponentPad*%
%ADD17O,1.000000X2.100000*%
%TD*%
%TA.AperFunction,ComponentPad*%
%ADD18O,1.000000X1.600000*%
%TD*%
%TA.AperFunction,ViaPad*%
%ADD19C,0.800000*%
%TD*%
%TA.AperFunction,Conductor*%
%ADD20C,0.381000*%
%TD*%
%TA.AperFunction,Conductor*%
%ADD21C,0.254000*%
%TD*%
%TA.AperFunction,Conductor*%
%ADD22C,0.200000*%
%TD*%
G04 APERTURE END LIST*
D10*
X126000000Y-97500000D03*
X131000000Y-97500000D03*
X169000000Y-101750000D03*
X161815795Y-94565795D03*
X127000000Y-102500000D03*
X132000000Y-102500000D03*
D11*
X105125000Y-80000000D03*
D10*
X118920000Y-87000000D03*
X129080000Y-87000000D03*
D12*
X172500000Y-89250000D03*
X179000000Y-89250000D03*
X172500000Y-93750000D03*
X179000000Y-93750000D03*
D13*
X134843750Y-72850000D03*
X137406250Y-72850000D03*
X139968750Y-72850000D03*
X142531250Y-72850000D03*
X145093750Y-72850000D03*
X147656250Y-72850000D03*
X150218750Y-72850000D03*
X152781250Y-72850000D03*
X155343750Y-72850000D03*
X157906250Y-72850000D03*
X160468750Y-72850000D03*
X163031250Y-72850000D03*
X165593750Y-72850000D03*
X168156250Y-72850000D03*
X170718750Y-72850000D03*
X173281250Y-72850000D03*
X175843750Y-72850000D03*
X178406250Y-72850000D03*
D10*
X134065000Y-80730000D03*
X123905000Y-80730000D03*
X127900000Y-84000000D03*
X132900000Y-84000000D03*
D14*
X173000000Y-100000000D03*
D15*
X175540000Y-100000000D03*
D10*
X127500000Y-90000000D03*
X132500000Y-90000000D03*
D16*
X148190000Y-100250000D03*
X143310000Y-100250000D03*
D10*
X168700000Y-86420000D03*
X168700000Y-96580000D03*
D14*
X154000000Y-100000000D03*
D15*
X156540000Y-100000000D03*
D10*
X122800000Y-92430000D03*
X122800000Y-102590000D03*
X127500000Y-94050000D03*
X132500000Y-94050000D03*
X177500000Y-83800000D03*
X167340000Y-83800000D03*
D13*
X104093750Y-72850000D03*
X106656250Y-72850000D03*
X109218750Y-72850000D03*
X111781250Y-72850000D03*
X114343750Y-72850000D03*
X116906250Y-72850000D03*
X119468750Y-72850000D03*
X122031250Y-72850000D03*
X124593750Y-72850000D03*
X127156250Y-72850000D03*
D17*
X104430000Y-99620000D03*
D18*
X104430000Y-103800000D03*
D17*
X113070000Y-99620000D03*
D18*
X113070000Y-103800000D03*
D10*
X103500000Y-95000000D03*
X103500000Y-84840000D03*
X115750000Y-90000000D03*
X115750000Y-79840000D03*
D14*
X135000000Y-100000000D03*
D15*
X137540000Y-100000000D03*
D10*
X117500000Y-92500000D03*
X117500000Y-103230000D03*
X170000000Y-80750000D03*
X180160000Y-80750000D03*
X160000000Y-102500000D03*
X165000000Y-102500000D03*
X135500000Y-87000000D03*
X135500000Y-92000000D03*
D19*
X148250000Y-84000000D03*
X115125000Y-97000000D03*
X139750000Y-97795000D03*
X141500000Y-81400000D03*
X113075000Y-88700000D03*
X150300000Y-88600000D03*
X137915000Y-78905000D03*
X136432500Y-80432500D03*
X137200000Y-83499000D03*
X119000000Y-84700000D03*
X113675000Y-81750000D03*
X146800000Y-90375000D03*
X161666667Y-88333333D03*
X164566667Y-90233333D03*
X144500000Y-87750000D03*
X163600000Y-89600000D03*
X143100000Y-92000000D03*
X110500000Y-76500000D03*
X144500000Y-86500000D03*
X145750000Y-84000000D03*
X156000000Y-81750000D03*
X159733333Y-87066667D03*
X157800000Y-85800000D03*
X154362500Y-79437500D03*
X147000000Y-84000000D03*
X158766667Y-86433333D03*
X143100000Y-91000000D03*
X151262500Y-75725000D03*
X160700000Y-87700000D03*
X141162500Y-75725000D03*
X151900000Y-81837500D03*
X148700000Y-81837500D03*
X148737500Y-75725000D03*
X166500000Y-91500000D03*
X165533333Y-90866667D03*
X151100000Y-82650000D03*
X162633333Y-88966667D03*
X144500000Y-85250000D03*
X144500000Y-84000000D03*
X156000000Y-76680000D03*
X151100000Y-96890000D03*
D20*
X104750000Y-80000000D02*
X101725000Y-83025000D01*
X105125000Y-80000000D02*
X105500000Y-80000000D01*
X101725000Y-83025000D02*
X101491500Y-83258500D01*
X101725000Y-76975000D02*
X101491500Y-76741500D01*
X104750000Y-80000000D02*
X101725000Y-76975000D01*
X101491500Y-83258500D02*
X101491500Y-84425000D01*
X105500000Y-80000000D02*
X108525000Y-83025000D01*
X108525000Y-83025000D02*
X109200000Y-83700000D01*
X105125000Y-80000000D02*
X104750000Y-80000000D01*
X101491500Y-76741500D02*
X101491500Y-76025000D01*
X163700000Y-96200000D02*
X168500000Y-91400000D01*
X168500000Y-91400000D02*
X168500000Y-86420000D01*
X157900000Y-96200000D02*
X163700000Y-96200000D01*
X137885000Y-78905000D02*
X137915000Y-78905000D01*
X150300000Y-88600000D02*
X157900000Y-96200000D01*
X136432500Y-80357500D02*
X137885000Y-78905000D01*
X136432500Y-80432500D02*
X136432500Y-80357500D01*
D21*
X133700000Y-87000000D02*
X133700000Y-86999000D01*
X133700000Y-86999000D02*
X137200000Y-83499000D01*
X133700000Y-87000000D02*
X129080000Y-87000000D01*
D22*
X113675000Y-81750000D02*
X116050000Y-81750000D01*
X119000000Y-84700000D02*
X118920000Y-84780000D01*
X116050000Y-81750000D02*
X119000000Y-84700000D01*
X118920000Y-84780000D02*
X118920000Y-87000000D01*
D21*
X168500000Y-96580000D02*
X167500000Y-97580000D01*
X150125000Y-90375000D02*
X146800000Y-90375000D01*
X167500000Y-97580000D02*
X157330000Y-97580000D01*
X179000000Y-93750000D02*
X172500000Y-93750000D01*
X157330000Y-97580000D02*
X150125000Y-90375000D01*
X161666667Y-88333333D02*
X161666667Y-82024542D01*
X165593750Y-78097459D02*
X165593750Y-72850000D01*
X161666667Y-82024542D02*
X165593750Y-78097459D01*
X164566667Y-90233333D02*
X164566667Y-83174333D01*
X164566667Y-83174333D02*
X173281250Y-74459750D01*
X173281250Y-74459750D02*
X173281250Y-72850000D01*
X124330000Y-89359548D02*
X124330000Y-85866000D01*
X135948085Y-89493000D02*
X133736084Y-91705000D01*
X126675452Y-91705000D02*
X124330000Y-89359548D01*
X144500000Y-87750000D02*
X142757000Y-89493000D01*
X142757000Y-89493000D02*
X135948085Y-89493000D01*
X115434000Y-76970000D02*
X113520000Y-76970000D01*
X113520000Y-76970000D02*
X111781250Y-75231250D01*
X133736084Y-91705000D02*
X126675452Y-91705000D01*
X124330000Y-85866000D02*
X115434000Y-76970000D01*
X111781250Y-75231250D02*
X111781250Y-72850000D01*
X170718750Y-75672320D02*
X170718750Y-72850000D01*
X163600000Y-89600000D02*
X163600000Y-82791070D01*
X163600000Y-82791070D02*
X170718750Y-75672320D01*
X110250000Y-88000000D02*
X110250000Y-77703176D01*
X110250000Y-77703176D02*
X108671824Y-76125000D01*
X139126500Y-95973500D02*
X118223500Y-95973500D01*
X104093750Y-74950000D02*
X104093750Y-72850000D01*
X143100000Y-92000000D02*
X139126500Y-95973500D01*
X118223500Y-95973500D02*
X110250000Y-88000000D01*
X105268750Y-76125000D02*
X104093750Y-74950000D01*
X108671824Y-76125000D02*
X105268750Y-76125000D01*
X107252250Y-75546000D02*
X109546000Y-75546000D01*
X109546000Y-75546000D02*
X110500000Y-76500000D01*
X106656250Y-72850000D02*
X106656250Y-74950000D01*
X106656250Y-74950000D02*
X107252250Y-75546000D01*
X130387589Y-91250000D02*
X114343750Y-75206161D01*
X133547617Y-91250000D02*
X130387589Y-91250000D01*
X141962000Y-89038000D02*
X135759617Y-89038000D01*
X135759617Y-89038000D02*
X133547617Y-91250000D01*
X144500000Y-86500000D02*
X141962000Y-89038000D01*
X114343750Y-75206161D02*
X114343750Y-72850000D01*
X122031250Y-74865251D02*
X122031250Y-72850000D01*
X144521000Y-82771000D02*
X129936999Y-82771000D01*
X145750000Y-84000000D02*
X144521000Y-82771000D01*
X129936999Y-82771000D02*
X122031250Y-74865251D01*
X154150000Y-76500000D02*
X146333000Y-76500000D01*
X156000000Y-81750000D02*
X156000000Y-78350000D01*
X156000000Y-78350000D02*
X154150000Y-76500000D01*
X146333000Y-76500000D02*
X145093750Y-75260750D01*
X145093750Y-75260750D02*
X145093750Y-72850000D01*
X159733333Y-87066667D02*
X159733333Y-81672667D01*
X160468750Y-80937250D02*
X160468750Y-72850000D01*
X159733333Y-81672667D02*
X160468750Y-80937250D01*
X155343750Y-74283750D02*
X155343750Y-72850000D01*
X157800000Y-76740000D02*
X155343750Y-74283750D01*
X157800000Y-85800000D02*
X157800000Y-76740000D01*
X153000000Y-77500000D02*
X144259000Y-77500000D01*
X154362500Y-78862500D02*
X153000000Y-77500000D01*
X144259000Y-77500000D02*
X142531250Y-75772250D01*
X142531250Y-75772250D02*
X142531250Y-72850000D01*
X154362500Y-79437500D02*
X154362500Y-78862500D01*
X131808000Y-82200000D02*
X124593750Y-74985750D01*
X147000000Y-84000000D02*
X145200000Y-82200000D01*
X124593750Y-74985750D02*
X124593750Y-72850000D01*
X145200000Y-82200000D02*
X131808000Y-82200000D01*
X158766667Y-73226667D02*
X158766667Y-86433333D01*
X158165000Y-72625000D02*
X158766667Y-73226667D01*
X143070452Y-91000000D02*
X138551952Y-95518500D01*
X138551952Y-95518500D02*
X123768500Y-95518500D01*
X123768500Y-95518500D02*
X111673646Y-83423646D01*
X143100000Y-91000000D02*
X143070452Y-91000000D01*
X111673646Y-76338970D02*
X109218750Y-73884074D01*
X111673646Y-83423646D02*
X111673646Y-76338970D01*
X109218750Y-73884074D02*
X109218750Y-72850000D01*
X150218750Y-74681250D02*
X150218750Y-72850000D01*
X151262500Y-75725000D02*
X150218750Y-74681250D01*
X160700000Y-81641278D02*
X163031250Y-79310028D01*
X163031250Y-79310028D02*
X163031250Y-72850000D01*
X160700000Y-87700000D02*
X160700000Y-81641278D01*
X141162500Y-75725000D02*
X139968750Y-74531250D01*
X139968750Y-74531250D02*
X139968750Y-72850000D01*
X148729167Y-78596111D02*
X141221630Y-78596111D01*
X141221630Y-78596111D02*
X137406250Y-74780731D01*
X137406250Y-74780731D02*
X137406250Y-72850000D01*
X151900000Y-81766944D02*
X148729167Y-78596111D01*
X151900000Y-81837500D02*
X151900000Y-81766944D01*
X137406250Y-74731250D02*
X137406250Y-72850000D01*
X130350000Y-72850000D02*
X127156250Y-72850000D01*
X148700000Y-81837500D02*
X146650833Y-79788333D01*
X140515455Y-79788333D02*
X137827122Y-77100000D01*
X134600000Y-77100000D02*
X130350000Y-72850000D01*
X137827122Y-77100000D02*
X134600000Y-77100000D01*
X146650833Y-79788333D02*
X140515455Y-79788333D01*
X147656250Y-74643750D02*
X147656250Y-72850000D01*
X148737500Y-75725000D02*
X147656250Y-74643750D01*
X166500000Y-86750000D02*
X178406250Y-74843750D01*
X166500000Y-86750000D02*
X166500000Y-91500000D01*
X178406250Y-74843750D02*
X178406250Y-72850000D01*
X175843750Y-75456250D02*
X175843750Y-72850000D01*
X165533333Y-83215265D02*
X170183252Y-78565346D01*
X165533333Y-90866667D02*
X165533333Y-83215265D01*
X172734654Y-78565346D02*
X175843750Y-75456250D01*
X170183252Y-78565346D02*
X172734654Y-78565346D01*
X151100000Y-82650000D02*
X147642222Y-79192222D01*
X140853222Y-79192222D02*
X137961000Y-76300000D01*
X134843750Y-74950000D02*
X134843750Y-72850000D01*
X147642222Y-79192222D02*
X140853222Y-79192222D01*
X137961000Y-76300000D02*
X136193750Y-76300000D01*
X136193750Y-76300000D02*
X134843750Y-74950000D01*
X168156250Y-76884889D02*
X168156250Y-72850000D01*
X162633333Y-88966667D02*
X162633333Y-82407806D01*
X162633333Y-82407806D02*
X168156250Y-76884889D01*
X144500000Y-85250000D02*
X141167000Y-88583000D01*
X128394178Y-88583000D02*
X116906250Y-77095072D01*
X116906250Y-77095072D02*
X116906250Y-72850000D01*
X141167000Y-88583000D02*
X128394178Y-88583000D01*
X140372000Y-88128000D02*
X128612767Y-88128000D01*
X119468750Y-78983983D02*
X119468750Y-72850000D01*
X144500000Y-84000000D02*
X140372000Y-88128000D01*
X128612767Y-88128000D02*
X119468750Y-78983983D01*
X152781250Y-75481250D02*
X152781250Y-72850000D01*
X153345000Y-76045000D02*
X152781250Y-75481250D01*
X156000000Y-76680000D02*
X155365000Y-76045000D01*
X155365000Y-76045000D02*
X153345000Y-76045000D01*
X122800000Y-102590000D02*
X124460000Y-104250000D01*
X124460000Y-104250000D02*
X147876000Y-104250000D01*
X151100000Y-101026000D02*
X151100000Y-96890000D01*
X147876000Y-104250000D02*
X151100000Y-101026000D01*
%TA.AperFunction,Conductor*%
G36*
X181642539Y-70320185D02*
G01*
X181688294Y-70372989D01*
X181699500Y-70424500D01*
X181699500Y-80584259D01*
X181679815Y-80651298D01*
X181627011Y-80697053D01*
X181557853Y-80706997D01*
X181494297Y-80677972D01*
X181456523Y-80619194D01*
X181453027Y-80603657D01*
X181427990Y-80445582D01*
X181364755Y-80250968D01*
X181271859Y-80068650D01*
X181239474Y-80024077D01*
X181239474Y-80024076D01*
X180560000Y-80703551D01*
X180560000Y-80697339D01*
X180532741Y-80595606D01*
X180480080Y-80504394D01*
X180405606Y-80429920D01*
X180314394Y-80377259D01*
X180212661Y-80350000D01*
X180206446Y-80350000D01*
X180885922Y-79670524D01*
X180885921Y-79670523D01*
X180841359Y-79638147D01*
X180841350Y-79638141D01*
X180659031Y-79545244D01*
X180464417Y-79482009D01*
X180262317Y-79450000D01*
X180057683Y-79450000D01*
X179855582Y-79482009D01*
X179660968Y-79545244D01*
X179478644Y-79638143D01*
X179434077Y-79670523D01*
X179434077Y-79670524D01*
X180113554Y-80350000D01*
X180107339Y-80350000D01*
X180005606Y-80377259D01*
X179914394Y-80429920D01*
X179839920Y-80504394D01*
X179787259Y-80595606D01*
X179760000Y-80697339D01*
X179760000Y-80703553D01*
X179080524Y-80024077D01*
X179080523Y-80024077D01*
X179048143Y-80068644D01*
X178955244Y-80250968D01*
X178892009Y-80445582D01*
X178860000Y-80647682D01*
X178860000Y-80852317D01*
X178892009Y-81054417D01*
X178955244Y-81249031D01*
X179048141Y-81431350D01*
X179048147Y-81431359D01*
X179080523Y-81475921D01*
X179080524Y-81475922D01*
X179760000Y-80796446D01*
X179760000Y-80802661D01*
X179787259Y-80904394D01*
X179839920Y-80995606D01*
X179914394Y-81070080D01*
X180005606Y-81122741D01*
X180107339Y-81150000D01*
X180113553Y-81150000D01*
X179434076Y-81829474D01*
X179478650Y-81861859D01*
X179660968Y-81954755D01*
X179855582Y-82017990D01*
X180057683Y-82050000D01*
X180262317Y-82050000D01*
X180464417Y-82017990D01*
X180659031Y-81954755D01*
X180841349Y-81861859D01*
X180885921Y-81829474D01*
X180206447Y-81150000D01*
X180212661Y-81150000D01*
X180314394Y-81122741D01*
X180405606Y-81070080D01*
X180480080Y-80995606D01*
X180532741Y-80904394D01*
X180560000Y-80802661D01*
X180560000Y-80796447D01*
X181239474Y-81475921D01*
X181271859Y-81431349D01*
X181364755Y-81249031D01*
X181427990Y-81054417D01*
X181453027Y-80896342D01*
X181482956Y-80833207D01*
X181542268Y-80796276D01*
X181612130Y-80797274D01*
X181670363Y-80835884D01*
X181698477Y-80899848D01*
X181699500Y-80915740D01*
X181699500Y-104575500D01*
X181679815Y-104642539D01*
X181627011Y-104688294D01*
X181575500Y-104699500D01*
X148624595Y-104699500D01*
X148557556Y-104679815D01*
X148511801Y-104627011D01*
X148501857Y-104557853D01*
X148530882Y-104494297D01*
X148536914Y-104487819D01*
X150627715Y-102397019D01*
X158691500Y-102397019D01*
X158691500Y-102602980D01*
X158723719Y-102806408D01*
X158787367Y-103002294D01*
X158850919Y-103127019D01*
X158878602Y-103181350D01*
X158880873Y-103185806D01*
X159001926Y-103352423D01*
X159001930Y-103352428D01*
X159147571Y-103498069D01*
X159147576Y-103498073D01*
X159259616Y-103579474D01*
X159314197Y-103619129D01*
X159431128Y-103678709D01*
X159497705Y-103712632D01*
X159497707Y-103712632D01*
X159497710Y-103712634D01*
X159602707Y-103746749D01*
X159693591Y-103776280D01*
X159795305Y-103792390D01*
X159897019Y-103808500D01*
X159897020Y-103808500D01*
X160102980Y-103808500D01*
X160102981Y-103808500D01*
X160306408Y-103776280D01*
X160502290Y-103712634D01*
X160685803Y-103619129D01*
X160852430Y-103498068D01*
X160998068Y-103352430D01*
X161119129Y-103185803D01*
X161212634Y-103002290D01*
X161276280Y-102806408D01*
X161308500Y-102602981D01*
X161308500Y-102397682D01*
X163700000Y-102397682D01*
X163700000Y-102602317D01*
X163732009Y-102804417D01*
X163795244Y-102999031D01*
X163888141Y-103181350D01*
X163888147Y-103181359D01*
X163920523Y-103225921D01*
X163920524Y-103225922D01*
X164600000Y-102546446D01*
X164600000Y-102552661D01*
X164627259Y-102654394D01*
X164679920Y-102745606D01*
X164754394Y-102820080D01*
X164845606Y-102872741D01*
X164947339Y-102900000D01*
X164953553Y-102900000D01*
X164274076Y-103579474D01*
X164318650Y-103611859D01*
X164500968Y-103704755D01*
X164695582Y-103767990D01*
X164897683Y-103800000D01*
X165102317Y-103800000D01*
X165304417Y-103767990D01*
X165499031Y-103704755D01*
X165681349Y-103611859D01*
X165725921Y-103579474D01*
X165046447Y-102900000D01*
X165052661Y-102900000D01*
X165154394Y-102872741D01*
X165245606Y-102820080D01*
X165320080Y-102745606D01*
X165372741Y-102654394D01*
X165400000Y-102552661D01*
X165400000Y-102546447D01*
X166079474Y-103225921D01*
X166111859Y-103181349D01*
X166204755Y-102999031D01*
X166267990Y-102804417D01*
X166300000Y-102602317D01*
X166300000Y-102397682D01*
X166267990Y-102195582D01*
X166204755Y-102000968D01*
X166111859Y-101818650D01*
X166079474Y-101774077D01*
X166079474Y-101774076D01*
X165400000Y-102453551D01*
X165400000Y-102447339D01*
X165372741Y-102345606D01*
X165320080Y-102254394D01*
X165245606Y-102179920D01*
X165154394Y-102127259D01*
X165052661Y-102100000D01*
X165046446Y-102100000D01*
X165499428Y-101647019D01*
X167691500Y-101647019D01*
X167691500Y-101852980D01*
X167723719Y-102056408D01*
X167787367Y-102252294D01*
X167813951Y-102304466D01*
X167861109Y-102397019D01*
X167880873Y-102435806D01*
X168001926Y-102602423D01*
X168001930Y-102602428D01*
X168147571Y-102748069D01*
X168147576Y-102748073D01*
X168292758Y-102853553D01*
X168314197Y-102869129D01*
X168421084Y-102923591D01*
X168497705Y-102962632D01*
X168497707Y-102962632D01*
X168497710Y-102962634D01*
X168602707Y-102996749D01*
X168693591Y-103026280D01*
X168795305Y-103042390D01*
X168897019Y-103058500D01*
X168897020Y-103058500D01*
X169102980Y-103058500D01*
X169102981Y-103058500D01*
X169306408Y-103026280D01*
X169502290Y-102962634D01*
X169685803Y-102869129D01*
X169852430Y-102748068D01*
X169998068Y-102602430D01*
X170119129Y-102435803D01*
X170212634Y-102252290D01*
X170276280Y-102056408D01*
X170308500Y-101852981D01*
X170308500Y-101647019D01*
X170299774Y-101591926D01*
X170276280Y-101443591D01*
X170238191Y-101326366D01*
X170212634Y-101247710D01*
X170212632Y-101247707D01*
X170212632Y-101247705D01*
X170158819Y-101142093D01*
X170119129Y-101064197D01*
X170077849Y-101007379D01*
X169998073Y-100897576D01*
X169998069Y-100897571D01*
X169852428Y-100751930D01*
X169852423Y-100751926D01*
X169685806Y-100630873D01*
X169685805Y-100630872D01*
X169685803Y-100630871D01*
X169616541Y-100595580D01*
X169502294Y-100537367D01*
X169306408Y-100473719D01*
X169130794Y-100445905D01*
X169102981Y-100441500D01*
X168897019Y-100441500D01*
X168872550Y-100445375D01*
X168693591Y-100473719D01*
X168497705Y-100537367D01*
X168314193Y-100630873D01*
X168147576Y-100751926D01*
X168147571Y-100751930D01*
X168001930Y-100897571D01*
X168001926Y-100897576D01*
X167880873Y-101064193D01*
X167787367Y-101247705D01*
X167723719Y-101443591D01*
X167691500Y-101647019D01*
X165499428Y-101647019D01*
X165591981Y-101554466D01*
X165725922Y-101420524D01*
X165725921Y-101420523D01*
X165681359Y-101388147D01*
X165681350Y-101388141D01*
X165499031Y-101295244D01*
X165304417Y-101232009D01*
X165102317Y-101200000D01*
X164897683Y-101200000D01*
X164695582Y-101232009D01*
X164500968Y-101295244D01*
X164318644Y-101388143D01*
X164274077Y-101420523D01*
X164274077Y-101420524D01*
X164953554Y-102100000D01*
X164947339Y-102100000D01*
X164845606Y-102127259D01*
X164754394Y-102179920D01*
X164679920Y-102254394D01*
X164627259Y-102345606D01*
X164600000Y-102447339D01*
X164600000Y-102453553D01*
X163920524Y-101774077D01*
X163920523Y-101774077D01*
X163888143Y-101818644D01*
X163795244Y-102000968D01*
X163732009Y-102195582D01*
X163700000Y-102397682D01*
X161308500Y-102397682D01*
X161308500Y-102397019D01*
X161276280Y-102193591D01*
X161219021Y-102017367D01*
X161212634Y-101997710D01*
X161212632Y-101997707D01*
X161212632Y-101997705D01*
X161173803Y-101921500D01*
X161119129Y-101814197D01*
X161063457Y-101737570D01*
X160998073Y-101647576D01*
X160998069Y-101647571D01*
X160852428Y-101501930D01*
X160852423Y-101501926D01*
X160685806Y-101380873D01*
X160685805Y-101380872D01*
X160685803Y-101380871D01*
X160612172Y-101343354D01*
X160502294Y-101287367D01*
X160306408Y-101223719D01*
X160130794Y-101195905D01*
X160102981Y-101191500D01*
X159897019Y-101191500D01*
X159872550Y-101195375D01*
X159693591Y-101223719D01*
X159497705Y-101287367D01*
X159314193Y-101380873D01*
X159147576Y-101501926D01*
X159147571Y-101501930D01*
X159001930Y-101647571D01*
X159001926Y-101647576D01*
X158880873Y-101814193D01*
X158787367Y-101997705D01*
X158723719Y-102193591D01*
X158691500Y-102397019D01*
X150627715Y-102397019D01*
X150720268Y-102304466D01*
X151593622Y-101431111D01*
X151593625Y-101431108D01*
X151614411Y-101400000D01*
X151631905Y-101373819D01*
X151631905Y-101373818D01*
X151663173Y-101327022D01*
X151711078Y-101211369D01*
X151719135Y-101170865D01*
X151735501Y-101088591D01*
X151735501Y-100963409D01*
X151735500Y-100963403D01*
X151735500Y-99052155D01*
X152600000Y-99052155D01*
X152600000Y-99750000D01*
X153624722Y-99750000D01*
X153580667Y-99826306D01*
X153550000Y-99940756D01*
X153550000Y-100059244D01*
X153580667Y-100173694D01*
X153624722Y-100250000D01*
X152600000Y-100250000D01*
X152600000Y-100947844D01*
X152606401Y-101007372D01*
X152606403Y-101007379D01*
X152656645Y-101142086D01*
X152656649Y-101142093D01*
X152742809Y-101257187D01*
X152742812Y-101257190D01*
X152857906Y-101343350D01*
X152857913Y-101343354D01*
X152992620Y-101393596D01*
X152992627Y-101393598D01*
X153052155Y-101399999D01*
X153052172Y-101400000D01*
X153750000Y-101400000D01*
X153750000Y-100375277D01*
X153826306Y-100419333D01*
X153940756Y-100450000D01*
X154059244Y-100450000D01*
X154173694Y-100419333D01*
X154250000Y-100375277D01*
X154250000Y-101400000D01*
X154947828Y-101400000D01*
X154947844Y-101399999D01*
X155007372Y-101393598D01*
X155007379Y-101393596D01*
X155142086Y-101343354D01*
X155142093Y-101343350D01*
X155257187Y-101257190D01*
X155257190Y-101257187D01*
X155343350Y-101142093D01*
X155343354Y-101142086D01*
X155370140Y-101070270D01*
X155412011Y-101014336D01*
X155477475Y-100989919D01*
X155545748Y-101004770D01*
X155574003Y-101025922D01*
X155622424Y-101074343D01*
X155801785Y-101204657D01*
X155886272Y-101247705D01*
X155999319Y-101305306D01*
X155999321Y-101305306D01*
X155999324Y-101305308D01*
X156210176Y-101373818D01*
X156429149Y-101408500D01*
X156429150Y-101408500D01*
X156650850Y-101408500D01*
X156650851Y-101408500D01*
X156869824Y-101373818D01*
X157080676Y-101305308D01*
X157278215Y-101204657D01*
X157457576Y-101074343D01*
X157614343Y-100917576D01*
X157744657Y-100738215D01*
X157845308Y-100540676D01*
X157913818Y-100329824D01*
X157948500Y-100110851D01*
X157948500Y-99889149D01*
X157913818Y-99670176D01*
X157845308Y-99459324D01*
X157845306Y-99459321D01*
X157845306Y-99459319D01*
X157744656Y-99261784D01*
X157680611Y-99173634D01*
X157614343Y-99082424D01*
X157584074Y-99052155D01*
X171600000Y-99052155D01*
X171600000Y-99750000D01*
X172624722Y-99750000D01*
X172580667Y-99826306D01*
X172550000Y-99940756D01*
X172550000Y-100059244D01*
X172580667Y-100173694D01*
X172624722Y-100250000D01*
X171600000Y-100250000D01*
X171600000Y-100947844D01*
X171606401Y-101007372D01*
X171606403Y-101007379D01*
X171656645Y-101142086D01*
X171656649Y-101142093D01*
X171742809Y-101257187D01*
X171742812Y-101257190D01*
X171857906Y-101343350D01*
X171857913Y-101343354D01*
X171992620Y-101393596D01*
X171992627Y-101393598D01*
X172052155Y-101399999D01*
X172052172Y-101400000D01*
X172750000Y-101400000D01*
X172750000Y-100375277D01*
X172826306Y-100419333D01*
X172940756Y-100450000D01*
X173059244Y-100450000D01*
X173173694Y-100419333D01*
X173250000Y-100375277D01*
X173250000Y-101400000D01*
X173947828Y-101400000D01*
X173947844Y-101399999D01*
X174007372Y-101393598D01*
X174007379Y-101393596D01*
X174142086Y-101343354D01*
X174142093Y-101343350D01*
X174257187Y-101257190D01*
X174257190Y-101257187D01*
X174343350Y-101142093D01*
X174343354Y-101142086D01*
X174370140Y-101070270D01*
X174412011Y-101014336D01*
X174477475Y-100989919D01*
X174545748Y-101004770D01*
X174574003Y-101025922D01*
X174622424Y-101074343D01*
X174801785Y-101204657D01*
X174886272Y-101247705D01*
X174999319Y-101305306D01*
X174999321Y-101305306D01*
X174999324Y-101305308D01*
X175210176Y-101373818D01*
X175429149Y-101408500D01*
X175429150Y-101408500D01*
X175650850Y-101408500D01*
X175650851Y-101408500D01*
X175869824Y-101373818D01*
X176080676Y-101305308D01*
X176278215Y-101204657D01*
X176457576Y-101074343D01*
X176614343Y-100917576D01*
X176744657Y-100738215D01*
X176845308Y-100540676D01*
X176913818Y-100329824D01*
X176948500Y-100110851D01*
X176948500Y-99889149D01*
X176913818Y-99670176D01*
X176845308Y-99459324D01*
X176845306Y-99459321D01*
X176845306Y-99459319D01*
X176744656Y-99261784D01*
X176614343Y-99082424D01*
X176457576Y-98925657D01*
X176278215Y-98795343D01*
X176240802Y-98776280D01*
X176080680Y-98694693D01*
X175869824Y-98626182D01*
X175779392Y-98611859D01*
X175650851Y-98591500D01*
X175429149Y-98591500D01*
X175319662Y-98608841D01*
X175210175Y-98626182D01*
X174999319Y-98694693D01*
X174801784Y-98795343D01*
X174715675Y-98857906D01*
X174622424Y-98925657D01*
X174622422Y-98925659D01*
X174622420Y-98925660D01*
X174574002Y-98974078D01*
X174512679Y-99007562D01*
X174442987Y-99002577D01*
X174387054Y-98960705D01*
X174370140Y-98929729D01*
X174343354Y-98857913D01*
X174343350Y-98857906D01*
X174257190Y-98742812D01*
X174257187Y-98742809D01*
X174142093Y-98656649D01*
X174142086Y-98656645D01*
X174007379Y-98606403D01*
X174007372Y-98606401D01*
X173947844Y-98600000D01*
X173250000Y-98600000D01*
X173250000Y-99624722D01*
X173173694Y-99580667D01*
X173059244Y-99550000D01*
X172940756Y-99550000D01*
X172826306Y-99580667D01*
X172750000Y-99624722D01*
X172750000Y-98600000D01*
X172052155Y-98600000D01*
X171992627Y-98606401D01*
X171992620Y-98606403D01*
X171857913Y-98656645D01*
X171857906Y-98656649D01*
X171742812Y-98742809D01*
X171742809Y-98742812D01*
X171656649Y-98857906D01*
X171656645Y-98857913D01*
X171606403Y-98992620D01*
X171606401Y-98992627D01*
X171600000Y-99052155D01*
X157584074Y-99052155D01*
X157457576Y-98925657D01*
X157278215Y-98795343D01*
X157240802Y-98776280D01*
X157080680Y-98694693D01*
X156869824Y-98626182D01*
X156779392Y-98611859D01*
X156650851Y-98591500D01*
X156429149Y-98591500D01*
X156319662Y-98608841D01*
X156210175Y-98626182D01*
X155999319Y-98694693D01*
X155801784Y-98795343D01*
X155715675Y-98857906D01*
X155622424Y-98925657D01*
X155622422Y-98925659D01*
X155622420Y-98925660D01*
X155574002Y-98974078D01*
X155512679Y-99007562D01*
X155442987Y-99002577D01*
X155387054Y-98960705D01*
X155370140Y-98929729D01*
X155343354Y-98857913D01*
X155343350Y-98857906D01*
X155257190Y-98742812D01*
X155257187Y-98742809D01*
X155142093Y-98656649D01*
X155142086Y-98656645D01*
X155007379Y-98606403D01*
X155007372Y-98606401D01*
X154947844Y-98600000D01*
X154250000Y-98600000D01*
X154250000Y-99624722D01*
X154173694Y-99580667D01*
X154059244Y-99550000D01*
X153940756Y-99550000D01*
X153826306Y-99580667D01*
X153750000Y-99624722D01*
X153750000Y-98600000D01*
X153052155Y-98600000D01*
X152992627Y-98606401D01*
X152992620Y-98606403D01*
X152857913Y-98656645D01*
X152857906Y-98656649D01*
X152742812Y-98742809D01*
X152742809Y-98742812D01*
X152656649Y-98857906D01*
X152656645Y-98857913D01*
X152606403Y-98992620D01*
X152606401Y-98992627D01*
X152600000Y-99052155D01*
X151735500Y-99052155D01*
X151735500Y-97590675D01*
X151755185Y-97523636D01*
X151771820Y-97502993D01*
X151805675Y-97469138D01*
X151805678Y-97469135D01*
X151905102Y-97320336D01*
X151973587Y-97155000D01*
X152008500Y-96979479D01*
X152008500Y-96800521D01*
X151973587Y-96625000D01*
X151905102Y-96459664D01*
X151905100Y-96459661D01*
X151905098Y-96459657D01*
X151805678Y-96310865D01*
X151805675Y-96310861D01*
X151679138Y-96184324D01*
X151679134Y-96184321D01*
X151530342Y-96084901D01*
X151530332Y-96084896D01*
X151365000Y-96016413D01*
X151364992Y-96016411D01*
X151189483Y-95981500D01*
X151189479Y-95981500D01*
X151010521Y-95981500D01*
X151010516Y-95981500D01*
X150835007Y-96016411D01*
X150834999Y-96016413D01*
X150669667Y-96084896D01*
X150669657Y-96084901D01*
X150520865Y-96184321D01*
X150520861Y-96184324D01*
X150394324Y-96310861D01*
X150394321Y-96310865D01*
X150294901Y-96459657D01*
X150294896Y-96459667D01*
X150226413Y-96624999D01*
X150226411Y-96625007D01*
X150191500Y-96800516D01*
X150191500Y-96979483D01*
X150226411Y-97154992D01*
X150226413Y-97155000D01*
X150294896Y-97320332D01*
X150294901Y-97320342D01*
X150394321Y-97469134D01*
X150394324Y-97469138D01*
X150428180Y-97502993D01*
X150461666Y-97564315D01*
X150464500Y-97590675D01*
X150464500Y-100711405D01*
X150444815Y-100778444D01*
X150428181Y-100799086D01*
X147649086Y-103578181D01*
X147587763Y-103611666D01*
X147561405Y-103614500D01*
X133035360Y-103614500D01*
X132968321Y-103594815D01*
X132922566Y-103542011D01*
X132912622Y-103472853D01*
X132941647Y-103409297D01*
X132947679Y-103402819D01*
X132966294Y-103384204D01*
X132998068Y-103352430D01*
X133119129Y-103185803D01*
X133212634Y-103002290D01*
X133276280Y-102806408D01*
X133308500Y-102602981D01*
X133308500Y-102397019D01*
X133276280Y-102193591D01*
X133219021Y-102017367D01*
X133212634Y-101997710D01*
X133212632Y-101997707D01*
X133212632Y-101997705D01*
X133173803Y-101921500D01*
X133119129Y-101814197D01*
X133063457Y-101737570D01*
X132998073Y-101647576D01*
X132998069Y-101647571D01*
X132852428Y-101501930D01*
X132852423Y-101501926D01*
X132685806Y-101380873D01*
X132685805Y-101380872D01*
X132685803Y-101380871D01*
X132612172Y-101343354D01*
X132502294Y-101287367D01*
X132306408Y-101223719D01*
X132130794Y-101195905D01*
X132102981Y-101191500D01*
X131897019Y-101191500D01*
X131872550Y-101195375D01*
X131693591Y-101223719D01*
X131497705Y-101287367D01*
X131314193Y-101380873D01*
X131147576Y-101501926D01*
X131147571Y-101501930D01*
X131001930Y-101647571D01*
X131001926Y-101647576D01*
X130880873Y-101814193D01*
X130787367Y-101997705D01*
X130723719Y-102193591D01*
X130691500Y-102397019D01*
X130691500Y-102602980D01*
X130723719Y-102806408D01*
X130787367Y-103002294D01*
X130850919Y-103127019D01*
X130878602Y-103181350D01*
X130880873Y-103185806D01*
X131001926Y-103352423D01*
X131001930Y-103352428D01*
X131052321Y-103402819D01*
X131085806Y-103464142D01*
X131080822Y-103533834D01*
X131038950Y-103589767D01*
X130973486Y-103614184D01*
X130964640Y-103614500D01*
X127812310Y-103614500D01*
X127745271Y-103594815D01*
X127724629Y-103578181D01*
X127046447Y-102900000D01*
X127052661Y-102900000D01*
X127154394Y-102872741D01*
X127245606Y-102820080D01*
X127320080Y-102745606D01*
X127372741Y-102654394D01*
X127400000Y-102552661D01*
X127400000Y-102546448D01*
X128079474Y-103225922D01*
X128079474Y-103225921D01*
X128111859Y-103181349D01*
X128204755Y-102999031D01*
X128267990Y-102804417D01*
X128300000Y-102602317D01*
X128300000Y-102397682D01*
X128267990Y-102195582D01*
X128204755Y-102000968D01*
X128111859Y-101818650D01*
X128079474Y-101774077D01*
X128079474Y-101774076D01*
X127400000Y-102453551D01*
X127400000Y-102447339D01*
X127372741Y-102345606D01*
X127320080Y-102254394D01*
X127245606Y-102179920D01*
X127154394Y-102127259D01*
X127052661Y-102100000D01*
X127046446Y-102100000D01*
X127725922Y-101420524D01*
X127725921Y-101420523D01*
X127681359Y-101388147D01*
X127681350Y-101388141D01*
X127499031Y-101295244D01*
X127304417Y-101232009D01*
X127102317Y-101200000D01*
X126897683Y-101200000D01*
X126695582Y-101232009D01*
X126500968Y-101295244D01*
X126318644Y-101388143D01*
X126274077Y-101420523D01*
X126274077Y-101420524D01*
X126953554Y-102100000D01*
X126947339Y-102100000D01*
X126845606Y-102127259D01*
X126754394Y-102179920D01*
X126679920Y-102254394D01*
X126627259Y-102345606D01*
X126600000Y-102447339D01*
X126600000Y-102453553D01*
X125920524Y-101774077D01*
X125920523Y-101774077D01*
X125888143Y-101818644D01*
X125795244Y-102000968D01*
X125732009Y-102195582D01*
X125700000Y-102397682D01*
X125700000Y-102602317D01*
X125732009Y-102804417D01*
X125795244Y-102999031D01*
X125888141Y-103181350D01*
X125888147Y-103181359D01*
X125920523Y-103225921D01*
X125920524Y-103225922D01*
X126600000Y-102546446D01*
X126600000Y-102552661D01*
X126627259Y-102654394D01*
X126679920Y-102745606D01*
X126754394Y-102820080D01*
X126845606Y-102872741D01*
X126947339Y-102900000D01*
X126953553Y-102900000D01*
X126275370Y-103578181D01*
X126214047Y-103611666D01*
X126187689Y-103614500D01*
X124774594Y-103614500D01*
X124707555Y-103594815D01*
X124686913Y-103578181D01*
X124111229Y-103002497D01*
X124077744Y-102941174D01*
X124076437Y-102895418D01*
X124108500Y-102692980D01*
X124108500Y-102487019D01*
X124096652Y-102412214D01*
X124076280Y-102283591D01*
X124042595Y-102179920D01*
X124012634Y-102087710D01*
X124012632Y-102087707D01*
X124012632Y-102087705D01*
X123976792Y-102017366D01*
X123919129Y-101904197D01*
X123856976Y-101818650D01*
X123798073Y-101737576D01*
X123798069Y-101737571D01*
X123652428Y-101591930D01*
X123619630Y-101568101D01*
X123619628Y-101568099D01*
X123485806Y-101470873D01*
X123485805Y-101470872D01*
X123485803Y-101470871D01*
X123407764Y-101431108D01*
X123302294Y-101377367D01*
X123106408Y-101313719D01*
X122930794Y-101285905D01*
X122902981Y-101281500D01*
X122697019Y-101281500D01*
X122672550Y-101285375D01*
X122493591Y-101313719D01*
X122297705Y-101377367D01*
X122114193Y-101470873D01*
X121947576Y-101591926D01*
X121947571Y-101591930D01*
X121801930Y-101737571D01*
X121801926Y-101737576D01*
X121680873Y-101904193D01*
X121587367Y-102087705D01*
X121523719Y-102283591D01*
X121491500Y-102487019D01*
X121491500Y-102692980D01*
X121523719Y-102896408D01*
X121587367Y-103092294D01*
X121651671Y-103218496D01*
X121672788Y-103259940D01*
X121680873Y-103275806D01*
X121801926Y-103442423D01*
X121801930Y-103442428D01*
X121947571Y-103588069D01*
X121947576Y-103588073D01*
X122092908Y-103693661D01*
X122114197Y-103709129D01*
X122229718Y-103767990D01*
X122297705Y-103802632D01*
X122297707Y-103802632D01*
X122297710Y-103802634D01*
X122402707Y-103836749D01*
X122493591Y-103866280D01*
X122551122Y-103875392D01*
X122697019Y-103898500D01*
X122697020Y-103898500D01*
X122902980Y-103898500D01*
X122902981Y-103898500D01*
X123048878Y-103875392D01*
X123105418Y-103866437D01*
X123174712Y-103875392D01*
X123212497Y-103901229D01*
X123799087Y-104487819D01*
X123832572Y-104549142D01*
X123827588Y-104618834D01*
X123785716Y-104674767D01*
X123720252Y-104699184D01*
X123711406Y-104699500D01*
X117994643Y-104699500D01*
X117927604Y-104679815D01*
X117881849Y-104627011D01*
X117871905Y-104557853D01*
X117900930Y-104494297D01*
X117956323Y-104457569D01*
X118002290Y-104442634D01*
X118185803Y-104349129D01*
X118352430Y-104228068D01*
X118498068Y-104082430D01*
X118619129Y-103915803D01*
X118712634Y-103732290D01*
X118776280Y-103536408D01*
X118808500Y-103332981D01*
X118808500Y-103127019D01*
X118792544Y-103026280D01*
X118776280Y-102923591D01*
X118742647Y-102820080D01*
X118712634Y-102727710D01*
X118712632Y-102727707D01*
X118712632Y-102727705D01*
X118675277Y-102654394D01*
X118619129Y-102544197D01*
X118587018Y-102500000D01*
X118498073Y-102377576D01*
X118498069Y-102377571D01*
X118352428Y-102231930D01*
X118352423Y-102231926D01*
X118185806Y-102110873D01*
X118185805Y-102110872D01*
X118185803Y-102110871D01*
X118128496Y-102081671D01*
X118002294Y-102017367D01*
X117806408Y-101953719D01*
X117630794Y-101925905D01*
X117602981Y-101921500D01*
X117397019Y-101921500D01*
X117372550Y-101925375D01*
X117193591Y-101953719D01*
X116997705Y-102017367D01*
X116814193Y-102110873D01*
X116647576Y-102231926D01*
X116647571Y-102231930D01*
X116501930Y-102377571D01*
X116501926Y-102377576D01*
X116380873Y-102544193D01*
X116287367Y-102727705D01*
X116223719Y-102923591D01*
X116191500Y-103127019D01*
X116191500Y-103332980D01*
X116223719Y-103536408D01*
X116287367Y-103732294D01*
X116321866Y-103800000D01*
X116360280Y-103875392D01*
X116380873Y-103915806D01*
X116501926Y-104082423D01*
X116501930Y-104082428D01*
X116647571Y-104228069D01*
X116647576Y-104228073D01*
X116724836Y-104284205D01*
X116814197Y-104349129D01*
X116931128Y-104408709D01*
X116997705Y-104442632D01*
X116997707Y-104442632D01*
X116997710Y-104442634D01*
X117043676Y-104457569D01*
X117101351Y-104497007D01*
X117128549Y-104561366D01*
X117116634Y-104630212D01*
X117069390Y-104681688D01*
X117005357Y-104699500D01*
X114089651Y-104699500D01*
X114022612Y-104679815D01*
X113976857Y-104627011D01*
X113966913Y-104557853D01*
X113975090Y-104528048D01*
X114031569Y-104391693D01*
X114031572Y-104391681D01*
X114069999Y-104198495D01*
X114070000Y-104198492D01*
X114070000Y-104050000D01*
X113370000Y-104050000D01*
X113370000Y-103550000D01*
X114070000Y-103550000D01*
X114070000Y-103401508D01*
X114069999Y-103401504D01*
X114031572Y-103208318D01*
X114031569Y-103208306D01*
X113956192Y-103026328D01*
X113956185Y-103026315D01*
X113846751Y-102862537D01*
X113846748Y-102862533D01*
X113707466Y-102723251D01*
X113707462Y-102723248D01*
X113543684Y-102613814D01*
X113543671Y-102613807D01*
X113361691Y-102538429D01*
X113361683Y-102538427D01*
X113320000Y-102530135D01*
X113320000Y-103333011D01*
X113310060Y-103315795D01*
X113254205Y-103259940D01*
X113185796Y-103220444D01*
X113109496Y-103200000D01*
X113030504Y-103200000D01*
X112954204Y-103220444D01*
X112885795Y-103259940D01*
X112829940Y-103315795D01*
X112820000Y-103333011D01*
X112820000Y-102530136D01*
X112819999Y-102530135D01*
X112778316Y-102538427D01*
X112778308Y-102538429D01*
X112596328Y-102613807D01*
X112596315Y-102613814D01*
X112432537Y-102723248D01*
X112432533Y-102723251D01*
X112293251Y-102862533D01*
X112293248Y-102862537D01*
X112183814Y-103026315D01*
X112183807Y-103026328D01*
X112108430Y-103208306D01*
X112108427Y-103208318D01*
X112070000Y-103401504D01*
X112070000Y-103550000D01*
X112770000Y-103550000D01*
X112770000Y-104050000D01*
X112070000Y-104050000D01*
X112070000Y-104198495D01*
X112108427Y-104391681D01*
X112108430Y-104391693D01*
X112164910Y-104528048D01*
X112172379Y-104597517D01*
X112141104Y-104659996D01*
X112081015Y-104695648D01*
X112050349Y-104699500D01*
X105449651Y-104699500D01*
X105382612Y-104679815D01*
X105336857Y-104627011D01*
X105326913Y-104557853D01*
X105335090Y-104528048D01*
X105391569Y-104391693D01*
X105391572Y-104391681D01*
X105429999Y-104198495D01*
X105430000Y-104198492D01*
X105430000Y-104050000D01*
X104730000Y-104050000D01*
X104730000Y-103550000D01*
X105430000Y-103550000D01*
X105430000Y-103401508D01*
X105429999Y-103401504D01*
X105391572Y-103208318D01*
X105391569Y-103208306D01*
X105316192Y-103026328D01*
X105316185Y-103026315D01*
X105206751Y-102862537D01*
X105206748Y-102862533D01*
X105067466Y-102723251D01*
X105067462Y-102723248D01*
X104903684Y-102613814D01*
X104903671Y-102613807D01*
X104721691Y-102538429D01*
X104721683Y-102538427D01*
X104680000Y-102530135D01*
X104680000Y-103333011D01*
X104670060Y-103315795D01*
X104614205Y-103259940D01*
X104545796Y-103220444D01*
X104469496Y-103200000D01*
X104390504Y-103200000D01*
X104314204Y-103220444D01*
X104245795Y-103259940D01*
X104189940Y-103315795D01*
X104180000Y-103333011D01*
X104180000Y-102530136D01*
X104179999Y-102530135D01*
X104138316Y-102538427D01*
X104138308Y-102538429D01*
X103956328Y-102613807D01*
X103956315Y-102613814D01*
X103792537Y-102723248D01*
X103792533Y-102723251D01*
X103653251Y-102862533D01*
X103653248Y-102862537D01*
X103543814Y-103026315D01*
X103543807Y-103026328D01*
X103468430Y-103208306D01*
X103468427Y-103208318D01*
X103430000Y-103401504D01*
X103430000Y-103550000D01*
X104130000Y-103550000D01*
X104130000Y-104050000D01*
X103430000Y-104050000D01*
X103430000Y-104198495D01*
X103468427Y-104391681D01*
X103468430Y-104391693D01*
X103524910Y-104528048D01*
X103532379Y-104597517D01*
X103501104Y-104659996D01*
X103441015Y-104695648D01*
X103410349Y-104699500D01*
X101424500Y-104699500D01*
X101357461Y-104679815D01*
X101311706Y-104627011D01*
X101300500Y-104575500D01*
X101300500Y-98971504D01*
X103430000Y-98971504D01*
X103430000Y-99370000D01*
X104130000Y-99370000D01*
X104130000Y-99870000D01*
X103430000Y-99870000D01*
X103430000Y-100268495D01*
X103468427Y-100461681D01*
X103468430Y-100461693D01*
X103543807Y-100643671D01*
X103543814Y-100643684D01*
X103653248Y-100807462D01*
X103653251Y-100807466D01*
X103792533Y-100946748D01*
X103792537Y-100946751D01*
X103956315Y-101056185D01*
X103956328Y-101056192D01*
X104138308Y-101131569D01*
X104180000Y-101139862D01*
X104180000Y-100336988D01*
X104189940Y-100354205D01*
X104245795Y-100410060D01*
X104314204Y-100449556D01*
X104390504Y-100470000D01*
X104469496Y-100470000D01*
X104545796Y-100449556D01*
X104614205Y-100410060D01*
X104670060Y-100354205D01*
X104680000Y-100336988D01*
X104680000Y-101139862D01*
X104721690Y-101131569D01*
X104721692Y-101131569D01*
X104903671Y-101056192D01*
X104903684Y-101056185D01*
X105067462Y-100946751D01*
X105067466Y-100946748D01*
X105206748Y-100807466D01*
X105206751Y-100807462D01*
X105319574Y-100638613D01*
X105321007Y-100639570D01*
X105364198Y-100595580D01*
X105432332Y-100580103D01*
X105498018Y-100603919D01*
X105500089Y-100605697D01*
X105500189Y-100605568D01*
X105506630Y-100610510D01*
X105506635Y-100610515D01*
X105637865Y-100686281D01*
X105784234Y-100725500D01*
X105784236Y-100725500D01*
X105935764Y-100725500D01*
X105935766Y-100725500D01*
X106082135Y-100686281D01*
X106213365Y-100610515D01*
X106320515Y-100503365D01*
X106396281Y-100372135D01*
X106435500Y-100225766D01*
X106435500Y-100074234D01*
X111064500Y-100074234D01*
X111064500Y-100225766D01*
X111075948Y-100268492D01*
X111103719Y-100372136D01*
X111125615Y-100410060D01*
X111179485Y-100503365D01*
X111286635Y-100610515D01*
X111417865Y-100686281D01*
X111564234Y-100725500D01*
X111564236Y-100725500D01*
X111715764Y-100725500D01*
X111715766Y-100725500D01*
X111862135Y-100686281D01*
X111993365Y-100610515D01*
X111993372Y-100610507D01*
X111999811Y-100605568D01*
X112002044Y-100608478D01*
X112048258Y-100582865D01*
X112117980Y-100587411D01*
X112174176Y-100628930D01*
X112180394Y-100638634D01*
X112180426Y-100638613D01*
X112293248Y-100807462D01*
X112293251Y-100807466D01*
X112432533Y-100946748D01*
X112432537Y-100946751D01*
X112596315Y-101056185D01*
X112596328Y-101056192D01*
X112778308Y-101131569D01*
X112820000Y-101139862D01*
X112820000Y-100336988D01*
X112829940Y-100354205D01*
X112885795Y-100410060D01*
X112954204Y-100449556D01*
X113030504Y-100470000D01*
X113109496Y-100470000D01*
X113185796Y-100449556D01*
X113254205Y-100410060D01*
X113310060Y-100354205D01*
X113320000Y-100336988D01*
X113320000Y-101139862D01*
X113361690Y-101131569D01*
X113361692Y-101131569D01*
X113543671Y-101056192D01*
X113543684Y-101056185D01*
X113707462Y-100946751D01*
X113707466Y-100946748D01*
X113846748Y-100807466D01*
X113846751Y-100807462D01*
X113956185Y-100643684D01*
X113956192Y-100643671D01*
X114031569Y-100461693D01*
X114031572Y-100461681D01*
X114069999Y-100268495D01*
X114070000Y-100268492D01*
X114070000Y-99870000D01*
X113370000Y-99870000D01*
X113370000Y-99370000D01*
X114070000Y-99370000D01*
X114070000Y-99052155D01*
X133600000Y-99052155D01*
X133600000Y-99750000D01*
X134624722Y-99750000D01*
X134580667Y-99826306D01*
X134550000Y-99940756D01*
X134550000Y-100059244D01*
X134580667Y-100173694D01*
X134624722Y-100250000D01*
X133600000Y-100250000D01*
X133600000Y-100947844D01*
X133606401Y-101007372D01*
X133606403Y-101007379D01*
X133656645Y-101142086D01*
X133656649Y-101142093D01*
X133742809Y-101257187D01*
X133742812Y-101257190D01*
X133857906Y-101343350D01*
X133857913Y-101343354D01*
X133992620Y-101393596D01*
X133992627Y-101393598D01*
X134052155Y-101399999D01*
X134052172Y-101400000D01*
X134750000Y-101400000D01*
X134750000Y-100375277D01*
X134826306Y-100419333D01*
X134940756Y-100450000D01*
X135059244Y-100450000D01*
X135173694Y-100419333D01*
X135250000Y-100375277D01*
X135250000Y-101400000D01*
X135947828Y-101400000D01*
X135947844Y-101399999D01*
X136007372Y-101393598D01*
X136007379Y-101393596D01*
X136142086Y-101343354D01*
X136142093Y-101343350D01*
X136257187Y-101257190D01*
X136257190Y-101257187D01*
X136343350Y-101142093D01*
X136343354Y-101142086D01*
X136370140Y-101070270D01*
X136412011Y-101014336D01*
X136477475Y-100989919D01*
X136545748Y-101004770D01*
X136574003Y-101025922D01*
X136622424Y-101074343D01*
X136801785Y-101204657D01*
X136886272Y-101247705D01*
X136999319Y-101305306D01*
X136999321Y-101305306D01*
X136999324Y-101305308D01*
X137210176Y-101373818D01*
X137429149Y-101408500D01*
X137429150Y-101408500D01*
X137650850Y-101408500D01*
X137650851Y-101408500D01*
X137869824Y-101373818D01*
X138080676Y-101305308D01*
X138278215Y-101204657D01*
X138457576Y-101074343D01*
X138614343Y-100917576D01*
X138744657Y-100738215D01*
X138845308Y-100540676D01*
X138913818Y-100329824D01*
X138942149Y-100150948D01*
X142051500Y-100150948D01*
X142051500Y-100349051D01*
X142082487Y-100544700D01*
X142143703Y-100733101D01*
X142227505Y-100897570D01*
X142233634Y-100909598D01*
X142350070Y-101069858D01*
X142490142Y-101209930D01*
X142650402Y-101326366D01*
X142683735Y-101343350D01*
X142826898Y-101416296D01*
X142826900Y-101416296D01*
X142826903Y-101416298D01*
X142872493Y-101431111D01*
X143015299Y-101477512D01*
X143210949Y-101508500D01*
X143210954Y-101508500D01*
X143409051Y-101508500D01*
X143604700Y-101477512D01*
X143793097Y-101416298D01*
X143969598Y-101326366D01*
X144129858Y-101209930D01*
X144269930Y-101069858D01*
X144386366Y-100909598D01*
X144476298Y-100733097D01*
X144537512Y-100544700D01*
X144538674Y-100537366D01*
X144568500Y-100349051D01*
X144568500Y-100150948D01*
X146931500Y-100150948D01*
X146931500Y-100349051D01*
X146962487Y-100544700D01*
X147023703Y-100733101D01*
X147107505Y-100897570D01*
X147113634Y-100909598D01*
X147230070Y-101069858D01*
X147370142Y-101209930D01*
X147530402Y-101326366D01*
X147563735Y-101343350D01*
X147706898Y-101416296D01*
X147706900Y-101416296D01*
X147706903Y-101416298D01*
X147752493Y-101431111D01*
X147895299Y-101477512D01*
X148090949Y-101508500D01*
X148090954Y-101508500D01*
X148289051Y-101508500D01*
X148484700Y-101477512D01*
X148673097Y-101416298D01*
X148849598Y-101326366D01*
X149009858Y-101209930D01*
X149149930Y-101069858D01*
X149266366Y-100909598D01*
X149356298Y-100733097D01*
X149417512Y-100544700D01*
X149418674Y-100537366D01*
X149448500Y-100349051D01*
X149448500Y-100150948D01*
X149417512Y-99955299D01*
X149369651Y-99808000D01*
X149356298Y-99766903D01*
X149356296Y-99766900D01*
X149356296Y-99766898D01*
X149307012Y-99670175D01*
X149266366Y-99590402D01*
X149149930Y-99430142D01*
X149009858Y-99290070D01*
X148849598Y-99173634D01*
X148673101Y-99083703D01*
X148484700Y-99022487D01*
X148289051Y-98991500D01*
X148289046Y-98991500D01*
X148090954Y-98991500D01*
X148090949Y-98991500D01*
X147895299Y-99022487D01*
X147706898Y-99083703D01*
X147530401Y-99173634D01*
X147438967Y-99240065D01*
X147370142Y-99290070D01*
X147370140Y-99290072D01*
X147370139Y-99290072D01*
X147230072Y-99430139D01*
X147230072Y-99430140D01*
X147230070Y-99430142D01*
X147208872Y-99459319D01*
X147113634Y-99590401D01*
X147023703Y-99766898D01*
X146962487Y-99955299D01*
X146931500Y-100150948D01*
X144568500Y-100150948D01*
X144537512Y-99955299D01*
X144489651Y-99808000D01*
X144476298Y-99766903D01*
X144476296Y-99766900D01*
X144476296Y-99766898D01*
X144427012Y-99670175D01*
X144386366Y-99590402D01*
X144269930Y-99430142D01*
X144129858Y-99290070D01*
X143969598Y-99173634D01*
X143793101Y-99083703D01*
X143604700Y-99022487D01*
X143409051Y-98991500D01*
X143409046Y-98991500D01*
X143210954Y-98991500D01*
X143210949Y-98991500D01*
X143015299Y-99022487D01*
X142826898Y-99083703D01*
X142650401Y-99173634D01*
X142558967Y-99240065D01*
X142490142Y-99290070D01*
X142490140Y-99290072D01*
X142490139Y-99290072D01*
X142350072Y-99430139D01*
X142350072Y-99430140D01*
X142350070Y-99430142D01*
X142328872Y-99459319D01*
X142233634Y-99590401D01*
X142143703Y-99766898D01*
X142082487Y-99955299D01*
X142051500Y-100150948D01*
X138942149Y-100150948D01*
X138948500Y-100110851D01*
X138948500Y-99889149D01*
X138913818Y-99670176D01*
X138845308Y-99459324D01*
X138845306Y-99459321D01*
X138845306Y-99459319D01*
X138744656Y-99261784D01*
X138614343Y-99082424D01*
X138457576Y-98925657D01*
X138278215Y-98795343D01*
X138240802Y-98776280D01*
X138080680Y-98694693D01*
X137869824Y-98626182D01*
X137779392Y-98611859D01*
X137650851Y-98591500D01*
X137429149Y-98591500D01*
X137319662Y-98608841D01*
X137210175Y-98626182D01*
X136999319Y-98694693D01*
X136801784Y-98795343D01*
X136715675Y-98857906D01*
X136622424Y-98925657D01*
X136622422Y-98925659D01*
X136622420Y-98925660D01*
X136574002Y-98974078D01*
X136512679Y-99007562D01*
X136442987Y-99002577D01*
X136387054Y-98960705D01*
X136370140Y-98929729D01*
X136343354Y-98857913D01*
X136343350Y-98857906D01*
X136257190Y-98742812D01*
X136257187Y-98742809D01*
X136142093Y-98656649D01*
X136142086Y-98656645D01*
X136007379Y-98606403D01*
X136007372Y-98606401D01*
X135947844Y-98600000D01*
X135250000Y-98600000D01*
X135250000Y-99624722D01*
X135173694Y-99580667D01*
X135059244Y-99550000D01*
X134940756Y-99550000D01*
X134826306Y-99580667D01*
X134750000Y-99624722D01*
X134750000Y-98600000D01*
X134052155Y-98600000D01*
X133992627Y-98606401D01*
X133992620Y-98606403D01*
X133857913Y-98656645D01*
X133857906Y-98656649D01*
X133742812Y-98742809D01*
X133742809Y-98742812D01*
X133656649Y-98857906D01*
X133656645Y-98857913D01*
X133606403Y-98992620D01*
X133606401Y-98992627D01*
X133600000Y-99052155D01*
X114070000Y-99052155D01*
X114070000Y-98971508D01*
X114069999Y-98971504D01*
X114031572Y-98778318D01*
X114031569Y-98778306D01*
X113956192Y-98596328D01*
X113956185Y-98596315D01*
X113846751Y-98432537D01*
X113846748Y-98432533D01*
X113707466Y-98293251D01*
X113707462Y-98293248D01*
X113543684Y-98183814D01*
X113543671Y-98183807D01*
X113361691Y-98108429D01*
X113361683Y-98108427D01*
X113320000Y-98100135D01*
X113320000Y-98903011D01*
X113310060Y-98885795D01*
X113254205Y-98829940D01*
X113185796Y-98790444D01*
X113109496Y-98770000D01*
X113030504Y-98770000D01*
X112954204Y-98790444D01*
X112885795Y-98829940D01*
X112829940Y-98885795D01*
X112820000Y-98903011D01*
X112820000Y-98100136D01*
X112819999Y-98100135D01*
X112778316Y-98108427D01*
X112778308Y-98108429D01*
X112596328Y-98183807D01*
X112596315Y-98183814D01*
X112432537Y-98293248D01*
X112432533Y-98293251D01*
X112293251Y-98432533D01*
X112293248Y-98432537D01*
X112183814Y-98596315D01*
X112183807Y-98596328D01*
X112108430Y-98778306D01*
X112108427Y-98778318D01*
X112070000Y-98971504D01*
X112070000Y-99370000D01*
X112770000Y-99370000D01*
X112770000Y-99870000D01*
X112214464Y-99870000D01*
X112147425Y-99850315D01*
X112107077Y-99808000D01*
X112100517Y-99796638D01*
X112100513Y-99796633D01*
X111993367Y-99689487D01*
X111993365Y-99689485D01*
X111907499Y-99639910D01*
X111862136Y-99613719D01*
X111775110Y-99590401D01*
X111715766Y-99574500D01*
X111564234Y-99574500D01*
X111417863Y-99613719D01*
X111286635Y-99689485D01*
X111286632Y-99689487D01*
X111179487Y-99796632D01*
X111179485Y-99796635D01*
X111103719Y-99927863D01*
X111064500Y-100074234D01*
X106435500Y-100074234D01*
X106396281Y-99927865D01*
X106320515Y-99796635D01*
X106213365Y-99689485D01*
X106127499Y-99639910D01*
X106082136Y-99613719D01*
X105995110Y-99590401D01*
X105935766Y-99574500D01*
X105784234Y-99574500D01*
X105637863Y-99613719D01*
X105506635Y-99689485D01*
X105506632Y-99689487D01*
X105399486Y-99796633D01*
X105399482Y-99796638D01*
X105392923Y-99808000D01*
X105342356Y-99856216D01*
X105285536Y-99870000D01*
X104730000Y-99870000D01*
X104730000Y-99370000D01*
X105430000Y-99370000D01*
X105430000Y-98971508D01*
X105429999Y-98971504D01*
X105391572Y-98778318D01*
X105391569Y-98778306D01*
X105316192Y-98596328D01*
X105316185Y-98596315D01*
X105206751Y-98432537D01*
X105206748Y-98432533D01*
X105067466Y-98293251D01*
X105067462Y-98293248D01*
X104903684Y-98183814D01*
X104903671Y-98183807D01*
X104721691Y-98108429D01*
X104721683Y-98108427D01*
X104680000Y-98100135D01*
X104680000Y-98903011D01*
X104670060Y-98885795D01*
X104614205Y-98829940D01*
X104545796Y-98790444D01*
X104469496Y-98770000D01*
X104390504Y-98770000D01*
X104314204Y-98790444D01*
X104245795Y-98829940D01*
X104189940Y-98885795D01*
X104180000Y-98903011D01*
X104180000Y-98100136D01*
X104179999Y-98100135D01*
X104138316Y-98108427D01*
X104138308Y-98108429D01*
X103956328Y-98183807D01*
X103956315Y-98183814D01*
X103792537Y-98293248D01*
X103792533Y-98293251D01*
X103653251Y-98432533D01*
X103653248Y-98432537D01*
X103543814Y-98596315D01*
X103543807Y-98596328D01*
X103468430Y-98778306D01*
X103468427Y-98778318D01*
X103430000Y-98971504D01*
X101300500Y-98971504D01*
X101300500Y-94897019D01*
X102191500Y-94897019D01*
X102191500Y-95102980D01*
X102223719Y-95306408D01*
X102287367Y-95502294D01*
X102380873Y-95685806D01*
X102501926Y-95852423D01*
X102501930Y-95852428D01*
X102647571Y-95998069D01*
X102647576Y-95998073D01*
X102757181Y-96077705D01*
X102814197Y-96119129D01*
X102931128Y-96178709D01*
X102997705Y-96212632D01*
X102997707Y-96212632D01*
X102997710Y-96212634D01*
X103102707Y-96246749D01*
X103193591Y-96276280D01*
X103295305Y-96292390D01*
X103397019Y-96308500D01*
X103397020Y-96308500D01*
X103602980Y-96308500D01*
X103602981Y-96308500D01*
X103806408Y-96276280D01*
X104002290Y-96212634D01*
X104185803Y-96119129D01*
X104352430Y-95998068D01*
X104498068Y-95852430D01*
X104619129Y-95685803D01*
X104712634Y-95502290D01*
X104776280Y-95306408D01*
X104808500Y-95102981D01*
X104808500Y-94897019D01*
X104805230Y-94876372D01*
X104776280Y-94693591D01*
X104729310Y-94549034D01*
X104712634Y-94497710D01*
X104712632Y-94497707D01*
X104712632Y-94497705D01*
X104664075Y-94402409D01*
X104619129Y-94314197D01*
X104603661Y-94292908D01*
X104498073Y-94147576D01*
X104498069Y-94147571D01*
X104352428Y-94001930D01*
X104352423Y-94001926D01*
X104185806Y-93880873D01*
X104185805Y-93880872D01*
X104185803Y-93880871D01*
X104124609Y-93849691D01*
X104002294Y-93787367D01*
X103806408Y-93723719D01*
X103630794Y-93695905D01*
X103602981Y-93691500D01*
X103397019Y-93691500D01*
X103372550Y-93695375D01*
X103193591Y-93723719D01*
X102997705Y-93787367D01*
X102814193Y-93880873D01*
X102647576Y-94001926D01*
X102647571Y-94001930D01*
X102501930Y-94147571D01*
X102501926Y-94147576D01*
X102380873Y-94314193D01*
X102287367Y-94497705D01*
X102223719Y-94693591D01*
X102191500Y-94897019D01*
X101300500Y-94897019D01*
X101300500Y-83535807D01*
X101320185Y-83468768D01*
X101372989Y-83423013D01*
X101442147Y-83413069D01*
X101498814Y-83436542D01*
X101507913Y-83443354D01*
X101642620Y-83493596D01*
X101642627Y-83493598D01*
X101702155Y-83499999D01*
X101702172Y-83500000D01*
X102751270Y-83500000D01*
X102818309Y-83519685D01*
X102864064Y-83572489D01*
X102874008Y-83641647D01*
X102844983Y-83705203D01*
X102822102Y-83724601D01*
X102822592Y-83725276D01*
X102774077Y-83760523D01*
X102774077Y-83760524D01*
X103453554Y-84440000D01*
X103447339Y-84440000D01*
X103345606Y-84467259D01*
X103254394Y-84519920D01*
X103179920Y-84594394D01*
X103127259Y-84685606D01*
X103100000Y-84787339D01*
X103100000Y-84793553D01*
X102420524Y-84114077D01*
X102420523Y-84114077D01*
X102388143Y-84158644D01*
X102295244Y-84340968D01*
X102232009Y-84535582D01*
X102200000Y-84737682D01*
X102200000Y-84942317D01*
X102232009Y-85144417D01*
X102295244Y-85339031D01*
X102388141Y-85521350D01*
X102388147Y-85521359D01*
X102420523Y-85565921D01*
X102420524Y-85565922D01*
X103100000Y-84886446D01*
X103100000Y-84892661D01*
X103127259Y-84994394D01*
X103179920Y-85085606D01*
X103254394Y-85160080D01*
X103345606Y-85212741D01*
X103447339Y-85240000D01*
X103453553Y-85240000D01*
X102774076Y-85919474D01*
X102818650Y-85951859D01*
X103000968Y-86044755D01*
X103195582Y-86107990D01*
X103397683Y-86140000D01*
X103602317Y-86140000D01*
X103804417Y-86107990D01*
X103999031Y-86044755D01*
X104181349Y-85951859D01*
X104225921Y-85919474D01*
X103546447Y-85240000D01*
X103552661Y-85240000D01*
X103654394Y-85212741D01*
X103745606Y-85160080D01*
X103820080Y-85085606D01*
X103872741Y-84994394D01*
X103900000Y-84892661D01*
X103900000Y-84886448D01*
X104579474Y-85565922D01*
X104579474Y-85565921D01*
X104611859Y-85521349D01*
X104704755Y-85339031D01*
X104767990Y-85144417D01*
X104800000Y-84942317D01*
X104800000Y-84737682D01*
X104767990Y-84535582D01*
X104704755Y-84340968D01*
X104611859Y-84158650D01*
X104579474Y-84114077D01*
X104579474Y-84114076D01*
X103900000Y-84793551D01*
X103900000Y-84787339D01*
X103872741Y-84685606D01*
X103820080Y-84594394D01*
X103745606Y-84519920D01*
X103654394Y-84467259D01*
X103552661Y-84440000D01*
X103546446Y-84440000D01*
X104225922Y-83760524D01*
X104225921Y-83760523D01*
X104177408Y-83725276D01*
X104178526Y-83723736D01*
X104137074Y-83677937D01*
X104125638Y-83609010D01*
X104153283Y-83544842D01*
X104211231Y-83505806D01*
X104248729Y-83500000D01*
X104875000Y-83500000D01*
X104875000Y-82034776D01*
X104990636Y-82050000D01*
X105259364Y-82050000D01*
X105375000Y-82034776D01*
X105375000Y-83500000D01*
X108547828Y-83500000D01*
X108547844Y-83499999D01*
X108607372Y-83493598D01*
X108607379Y-83493596D01*
X108742086Y-83443354D01*
X108742093Y-83443350D01*
X108857187Y-83357190D01*
X108857190Y-83357187D01*
X108943350Y-83242093D01*
X108943354Y-83242086D01*
X108993596Y-83107379D01*
X108993598Y-83107372D01*
X108999999Y-83047844D01*
X109000000Y-83047827D01*
X109000000Y-80250000D01*
X107159776Y-80250000D01*
X107175000Y-80134364D01*
X107175000Y-79865636D01*
X107159776Y-79750000D01*
X109000000Y-79750000D01*
X109000000Y-77651271D01*
X109019685Y-77584232D01*
X109072489Y-77538477D01*
X109141647Y-77528533D01*
X109205203Y-77557558D01*
X109211681Y-77563590D01*
X109578181Y-77930090D01*
X109611666Y-77991413D01*
X109614500Y-78017771D01*
X109614500Y-88062595D01*
X109638920Y-88185361D01*
X109638923Y-88185373D01*
X109686823Y-88301015D01*
X109686830Y-88301028D01*
X109756374Y-88405107D01*
X109756377Y-88405111D01*
X117818388Y-96467122D01*
X117818392Y-96467125D01*
X117922471Y-96536669D01*
X117922484Y-96536676D01*
X118038126Y-96584576D01*
X118038131Y-96584578D01*
X118160904Y-96608999D01*
X118160908Y-96609000D01*
X118160909Y-96609000D01*
X118286091Y-96609000D01*
X124786591Y-96609000D01*
X124853630Y-96628685D01*
X124899385Y-96681489D01*
X124909329Y-96750647D01*
X124886910Y-96805884D01*
X124880872Y-96814193D01*
X124787367Y-96997705D01*
X124723719Y-97193591D01*
X124691500Y-97397019D01*
X124691500Y-97602980D01*
X124723719Y-97806408D01*
X124787367Y-98002294D01*
X124837221Y-98100135D01*
X124878602Y-98181350D01*
X124880873Y-98185806D01*
X125001926Y-98352423D01*
X125001930Y-98352428D01*
X125147571Y-98498069D01*
X125147576Y-98498073D01*
X125259616Y-98579474D01*
X125314197Y-98619129D01*
X125387834Y-98656649D01*
X125497705Y-98712632D01*
X125497707Y-98712632D01*
X125497710Y-98712634D01*
X125590579Y-98742809D01*
X125693591Y-98776280D01*
X125783019Y-98790444D01*
X125897019Y-98808500D01*
X125897020Y-98808500D01*
X126102980Y-98808500D01*
X126102981Y-98808500D01*
X126306408Y-98776280D01*
X126502290Y-98712634D01*
X126685803Y-98619129D01*
X126852430Y-98498068D01*
X126998068Y-98352430D01*
X127119129Y-98185803D01*
X127212634Y-98002290D01*
X127276280Y-97806408D01*
X127308500Y-97602981D01*
X127308500Y-97397019D01*
X127296355Y-97320342D01*
X127276280Y-97193591D01*
X127240116Y-97082290D01*
X127212634Y-96997710D01*
X127212632Y-96997707D01*
X127212632Y-96997705D01*
X127119127Y-96814193D01*
X127113090Y-96805884D01*
X127089611Y-96740077D01*
X127105438Y-96672023D01*
X127155544Y-96623329D01*
X127213409Y-96609000D01*
X129797096Y-96609000D01*
X129864135Y-96628685D01*
X129909890Y-96681489D01*
X129919834Y-96750647D01*
X129897415Y-96805884D01*
X129888141Y-96818647D01*
X129795244Y-97000968D01*
X129732009Y-97195582D01*
X129700000Y-97397682D01*
X129700000Y-97602317D01*
X129732009Y-97804417D01*
X129795244Y-97999031D01*
X129888141Y-98181350D01*
X129888147Y-98181359D01*
X129920523Y-98225921D01*
X129920524Y-98225922D01*
X130600000Y-97546446D01*
X130600000Y-97552661D01*
X130627259Y-97654394D01*
X130679920Y-97745606D01*
X130754394Y-97820080D01*
X130845606Y-97872741D01*
X130947339Y-97900000D01*
X130953553Y-97900000D01*
X130274076Y-98579474D01*
X130318650Y-98611859D01*
X130500968Y-98704755D01*
X130695582Y-98767990D01*
X130897683Y-98800000D01*
X131102317Y-98800000D01*
X131304417Y-98767990D01*
X131499031Y-98704755D01*
X131681349Y-98611859D01*
X131725921Y-98579474D01*
X131046447Y-97900000D01*
X131052661Y-97900000D01*
X131154394Y-97872741D01*
X131245606Y-97820080D01*
X131320080Y-97745606D01*
X131372741Y-97654394D01*
X131400000Y-97552661D01*
X131400000Y-97546447D01*
X132079474Y-98225921D01*
X132111859Y-98181349D01*
X132204755Y-97999031D01*
X132267990Y-97804417D01*
X132300000Y-97602317D01*
X132300000Y-97397682D01*
X132267990Y-97195582D01*
X132204755Y-97000968D01*
X132111858Y-96818647D01*
X132102585Y-96805884D01*
X132079106Y-96740077D01*
X132094932Y-96672024D01*
X132145039Y-96623330D01*
X132202904Y-96609000D01*
X139189092Y-96609000D01*
X139189093Y-96608999D01*
X139311869Y-96584578D01*
X139427522Y-96536673D01*
X139531608Y-96467125D01*
X143053914Y-92944819D01*
X143115237Y-92911334D01*
X143141595Y-92908500D01*
X143189480Y-92908500D01*
X143189481Y-92908499D01*
X143365000Y-92873587D01*
X143530336Y-92805102D01*
X143679135Y-92705678D01*
X143805678Y-92579135D01*
X143905102Y-92430336D01*
X143973587Y-92265000D01*
X144008500Y-92089479D01*
X144008500Y-91910521D01*
X143973587Y-91735000D01*
X143905102Y-91569664D01*
X143904587Y-91568893D01*
X143904441Y-91568428D01*
X143902229Y-91564289D01*
X143903013Y-91563869D01*
X143883708Y-91502216D01*
X143902191Y-91434835D01*
X143904587Y-91431107D01*
X143904689Y-91430953D01*
X143905102Y-91430336D01*
X143973587Y-91265000D01*
X144008500Y-91089479D01*
X144008500Y-90910521D01*
X143973587Y-90735000D01*
X143905102Y-90569664D01*
X143905100Y-90569661D01*
X143905098Y-90569657D01*
X143805678Y-90420865D01*
X143805675Y-90420861D01*
X143679138Y-90294324D01*
X143679134Y-90294321D01*
X143530342Y-90194901D01*
X143530332Y-90194896D01*
X143365000Y-90126413D01*
X143364994Y-90126411D01*
X143306703Y-90114816D01*
X143244792Y-90082430D01*
X143210218Y-90021714D01*
X143213959Y-89951945D01*
X143243212Y-89905520D01*
X144453914Y-88694819D01*
X144515237Y-88661334D01*
X144541595Y-88658500D01*
X144589480Y-88658500D01*
X144589481Y-88658499D01*
X144765000Y-88623587D01*
X144930336Y-88555102D01*
X145079135Y-88455678D01*
X145205678Y-88329135D01*
X145305102Y-88180336D01*
X145373587Y-88015000D01*
X145408500Y-87839479D01*
X145408500Y-87660521D01*
X145373587Y-87485000D01*
X145305102Y-87319664D01*
X145305100Y-87319661D01*
X145305098Y-87319657D01*
X145221063Y-87193891D01*
X145200185Y-87127214D01*
X145218669Y-87059834D01*
X145221063Y-87056109D01*
X145241178Y-87026006D01*
X145305102Y-86930336D01*
X145373587Y-86765000D01*
X145408500Y-86589479D01*
X145408500Y-86410521D01*
X145373587Y-86235000D01*
X145305102Y-86069664D01*
X145305100Y-86069661D01*
X145305098Y-86069657D01*
X145221063Y-85943891D01*
X145200185Y-85877214D01*
X145218669Y-85809834D01*
X145221063Y-85806109D01*
X145225102Y-85800065D01*
X145305102Y-85680336D01*
X145373587Y-85515000D01*
X145408500Y-85339479D01*
X145408500Y-85160521D01*
X145382127Y-85027934D01*
X145388354Y-84958344D01*
X145431217Y-84903167D01*
X145497107Y-84879922D01*
X145527932Y-84882126D01*
X145660519Y-84908499D01*
X145660520Y-84908500D01*
X145660521Y-84908500D01*
X145839480Y-84908500D01*
X145839481Y-84908499D01*
X146015000Y-84873587D01*
X146180336Y-84805102D01*
X146306110Y-84721062D01*
X146372786Y-84700185D01*
X146440166Y-84718669D01*
X146443874Y-84721052D01*
X146468763Y-84737682D01*
X146569657Y-84805098D01*
X146569661Y-84805100D01*
X146569664Y-84805102D01*
X146735000Y-84873587D01*
X146883710Y-84903167D01*
X146910516Y-84908499D01*
X146910520Y-84908500D01*
X146910521Y-84908500D01*
X147089480Y-84908500D01*
X147089481Y-84908499D01*
X147265000Y-84873587D01*
X147430336Y-84805102D01*
X147579135Y-84705678D01*
X147705678Y-84579135D01*
X147805102Y-84430336D01*
X147873587Y-84265000D01*
X147908500Y-84089479D01*
X147908500Y-83910521D01*
X147873587Y-83735000D01*
X147805102Y-83569664D01*
X147805100Y-83569661D01*
X147805098Y-83569657D01*
X147705678Y-83420865D01*
X147705675Y-83420861D01*
X147579138Y-83294324D01*
X147579134Y-83294321D01*
X147430342Y-83194901D01*
X147430332Y-83194896D01*
X147265000Y-83126413D01*
X147264992Y-83126411D01*
X147089483Y-83091500D01*
X147089479Y-83091500D01*
X147041595Y-83091500D01*
X146974556Y-83071815D01*
X146953914Y-83055181D01*
X145605111Y-81706377D01*
X145605107Y-81706374D01*
X145501028Y-81636830D01*
X145501015Y-81636823D01*
X145385373Y-81588923D01*
X145385361Y-81588920D01*
X145262595Y-81564500D01*
X145262591Y-81564500D01*
X136657363Y-81564500D01*
X136590324Y-81544815D01*
X136544569Y-81492011D01*
X136534625Y-81422853D01*
X136563650Y-81359297D01*
X136622428Y-81321523D01*
X136633172Y-81318883D01*
X136661801Y-81313187D01*
X136697500Y-81306087D01*
X136862836Y-81237602D01*
X137011635Y-81138178D01*
X137138178Y-81011635D01*
X137237602Y-80862836D01*
X137306087Y-80697500D01*
X137341000Y-80521979D01*
X137341000Y-80488897D01*
X137360685Y-80421858D01*
X137377319Y-80401216D01*
X137651921Y-80126614D01*
X137929354Y-79849180D01*
X137990675Y-79815697D01*
X138003908Y-79813613D01*
X138004476Y-79813500D01*
X138004479Y-79813500D01*
X138180000Y-79778587D01*
X138345336Y-79710102D01*
X138494135Y-79610678D01*
X138620678Y-79484135D01*
X138720102Y-79335336D01*
X138779019Y-79193098D01*
X138822859Y-79138696D01*
X138889153Y-79116631D01*
X138956852Y-79133910D01*
X138981260Y-79152871D01*
X140021830Y-80193441D01*
X140068389Y-80240000D01*
X140110348Y-80281959D01*
X140214426Y-80351502D01*
X140214439Y-80351509D01*
X140276606Y-80377259D01*
X140330086Y-80399411D01*
X140442935Y-80421858D01*
X140452859Y-80423832D01*
X140452863Y-80423833D01*
X140452864Y-80423833D01*
X146336238Y-80423833D01*
X146403277Y-80443518D01*
X146423919Y-80460152D01*
X147755181Y-81791414D01*
X147788666Y-81852737D01*
X147791500Y-81879095D01*
X147791500Y-81926983D01*
X147826411Y-82102492D01*
X147826413Y-82102500D01*
X147894896Y-82267832D01*
X147894901Y-82267842D01*
X147994321Y-82416634D01*
X147994324Y-82416638D01*
X148120861Y-82543175D01*
X148120865Y-82543178D01*
X148269657Y-82642598D01*
X148269661Y-82642600D01*
X148269664Y-82642602D01*
X148435000Y-82711087D01*
X148610516Y-82745999D01*
X148610520Y-82746000D01*
X148610521Y-82746000D01*
X148789480Y-82746000D01*
X148789481Y-82745999D01*
X148965000Y-82711087D01*
X149130336Y-82642602D01*
X149279135Y-82543178D01*
X149405678Y-82416635D01*
X149505102Y-82267836D01*
X149526053Y-82217255D01*
X149569894Y-82162853D01*
X149636188Y-82140788D01*
X149703887Y-82158067D01*
X149728295Y-82177028D01*
X150155181Y-82603914D01*
X150188666Y-82665237D01*
X150191500Y-82691595D01*
X150191500Y-82739483D01*
X150226411Y-82914992D01*
X150226413Y-82915000D01*
X150294896Y-83080332D01*
X150294901Y-83080342D01*
X150394321Y-83229134D01*
X150394324Y-83229138D01*
X150520861Y-83355675D01*
X150520865Y-83355678D01*
X150669657Y-83455098D01*
X150669661Y-83455100D01*
X150669664Y-83455102D01*
X150835000Y-83523587D01*
X150958473Y-83548147D01*
X151010516Y-83558499D01*
X151010520Y-83558500D01*
X151010521Y-83558500D01*
X151189480Y-83558500D01*
X151189481Y-83558499D01*
X151365000Y-83523587D01*
X151530336Y-83455102D01*
X151679135Y-83355678D01*
X151805678Y-83229135D01*
X151905102Y-83080336D01*
X151973587Y-82915000D01*
X151991769Y-82823589D01*
X152024153Y-82761681D01*
X152084868Y-82727106D01*
X152089138Y-82726176D01*
X152165000Y-82711087D01*
X152330336Y-82642602D01*
X152479135Y-82543178D01*
X152605678Y-82416635D01*
X152705102Y-82267836D01*
X152773587Y-82102500D01*
X152808500Y-81926979D01*
X152808500Y-81748021D01*
X152773587Y-81572500D01*
X152705102Y-81407164D01*
X152705100Y-81407161D01*
X152705098Y-81407157D01*
X152605678Y-81258365D01*
X152605675Y-81258361D01*
X152479138Y-81131824D01*
X152479134Y-81131821D01*
X152330342Y-81032401D01*
X152330332Y-81032396D01*
X152165000Y-80963913D01*
X152164992Y-80963911D01*
X151990556Y-80929213D01*
X151928645Y-80896828D01*
X151927066Y-80895277D01*
X149378970Y-78347181D01*
X149345485Y-78285858D01*
X149350469Y-78216166D01*
X149392341Y-78160233D01*
X149457805Y-78135816D01*
X149466651Y-78135500D01*
X152685405Y-78135500D01*
X152752444Y-78155185D01*
X152773086Y-78171819D01*
X153513758Y-78912491D01*
X153547243Y-78973814D01*
X153542259Y-79043506D01*
X153540638Y-79047625D01*
X153488913Y-79172499D01*
X153488911Y-79172507D01*
X153454000Y-79348016D01*
X153454000Y-79526983D01*
X153488911Y-79702492D01*
X153488913Y-79702500D01*
X153557396Y-79867832D01*
X153557401Y-79867842D01*
X153656821Y-80016634D01*
X153656824Y-80016638D01*
X153783361Y-80143175D01*
X153783365Y-80143178D01*
X153932157Y-80242598D01*
X153932161Y-80242600D01*
X153932164Y-80242602D01*
X154097500Y-80311087D01*
X154273016Y-80345999D01*
X154273020Y-80346000D01*
X154273021Y-80346000D01*
X154451980Y-80346000D01*
X154451981Y-80345999D01*
X154627500Y-80311087D01*
X154792836Y-80242602D01*
X154941635Y-80143178D01*
X155068178Y-80016635D01*
X155137398Y-79913040D01*
X155191010Y-79868235D01*
X155260335Y-79859528D01*
X155323362Y-79889682D01*
X155360082Y-79949125D01*
X155364500Y-79981931D01*
X155364500Y-81049324D01*
X155344815Y-81116363D01*
X155328181Y-81137005D01*
X155294324Y-81170861D01*
X155294321Y-81170865D01*
X155194901Y-81319657D01*
X155194896Y-81319667D01*
X155126413Y-81484999D01*
X155126411Y-81485007D01*
X155091500Y-81660516D01*
X155091500Y-81839483D01*
X155126411Y-82014992D01*
X155126413Y-82015000D01*
X155194896Y-82180332D01*
X155194901Y-82180342D01*
X155294321Y-82329134D01*
X155294324Y-82329138D01*
X155420861Y-82455675D01*
X155420865Y-82455678D01*
X155569657Y-82555098D01*
X155569661Y-82555100D01*
X155569664Y-82555102D01*
X155735000Y-82623587D01*
X155910516Y-82658499D01*
X155910520Y-82658500D01*
X155910521Y-82658500D01*
X156089480Y-82658500D01*
X156089481Y-82658499D01*
X156265000Y-82623587D01*
X156430336Y-82555102D01*
X156579135Y-82455678D01*
X156705678Y-82329135D01*
X156805102Y-82180336D01*
X156873587Y-82015000D01*
X156908500Y-81839479D01*
X156908500Y-81660521D01*
X156873587Y-81485000D01*
X156805102Y-81319664D01*
X156805100Y-81319661D01*
X156805098Y-81319657D01*
X156705678Y-81170865D01*
X156705675Y-81170861D01*
X156671819Y-81137005D01*
X156638334Y-81075682D01*
X156635500Y-81049324D01*
X156635500Y-78287408D01*
X156635499Y-78287404D01*
X156617978Y-78199321D01*
X156611078Y-78164631D01*
X156607165Y-78155185D01*
X156563176Y-78048984D01*
X156563169Y-78048971D01*
X156493626Y-77944893D01*
X156458894Y-77910161D01*
X156405108Y-77856375D01*
X156281191Y-77732458D01*
X156247706Y-77671135D01*
X156252690Y-77601443D01*
X156294562Y-77545510D01*
X156321414Y-77530219D01*
X156389867Y-77501864D01*
X156430330Y-77485105D01*
X156430333Y-77485103D01*
X156430336Y-77485102D01*
X156579135Y-77385678D01*
X156705678Y-77259135D01*
X156805102Y-77110336D01*
X156870719Y-76951922D01*
X156914560Y-76897519D01*
X156980854Y-76875454D01*
X157048553Y-76892733D01*
X157072961Y-76911694D01*
X157128181Y-76966914D01*
X157161666Y-77028237D01*
X157164500Y-77054595D01*
X157164500Y-85099324D01*
X157144815Y-85166363D01*
X157128181Y-85187005D01*
X157094324Y-85220861D01*
X157094321Y-85220865D01*
X156994901Y-85369657D01*
X156994896Y-85369667D01*
X156926413Y-85534999D01*
X156926411Y-85535007D01*
X156891500Y-85710516D01*
X156891500Y-85889483D01*
X156926411Y-86064992D01*
X156926413Y-86065000D01*
X156994896Y-86230332D01*
X156994901Y-86230342D01*
X157094321Y-86379134D01*
X157094324Y-86379138D01*
X157220861Y-86505675D01*
X157220865Y-86505678D01*
X157369657Y-86605098D01*
X157369661Y-86605100D01*
X157369664Y-86605102D01*
X157535000Y-86673587D01*
X157703302Y-86707064D01*
X157710516Y-86708499D01*
X157710520Y-86708500D01*
X157814437Y-86708500D01*
X157881476Y-86728185D01*
X157927231Y-86780989D01*
X157928998Y-86785047D01*
X157961563Y-86863665D01*
X157961568Y-86863675D01*
X158060988Y-87012467D01*
X158060991Y-87012471D01*
X158187528Y-87139008D01*
X158187532Y-87139011D01*
X158336324Y-87238431D01*
X158336328Y-87238433D01*
X158336331Y-87238435D01*
X158501667Y-87306920D01*
X158643736Y-87335179D01*
X158677183Y-87341832D01*
X158677187Y-87341833D01*
X158781103Y-87341833D01*
X158848142Y-87361518D01*
X158893897Y-87414322D01*
X158895664Y-87418380D01*
X158928229Y-87496999D01*
X158928234Y-87497009D01*
X159027654Y-87645801D01*
X159027657Y-87645805D01*
X159154194Y-87772342D01*
X159154198Y-87772345D01*
X159302990Y-87871765D01*
X159302994Y-87871767D01*
X159302997Y-87871769D01*
X159468333Y-87940254D01*
X159603218Y-87967084D01*
X159643849Y-87975166D01*
X159643853Y-87975167D01*
X159747770Y-87975167D01*
X159814809Y-87994852D01*
X159860564Y-88047656D01*
X159862331Y-88051714D01*
X159894896Y-88130332D01*
X159894901Y-88130342D01*
X159994321Y-88279134D01*
X159994324Y-88279138D01*
X160120861Y-88405675D01*
X160120865Y-88405678D01*
X160269657Y-88505098D01*
X160269661Y-88505100D01*
X160269664Y-88505102D01*
X160435000Y-88573587D01*
X160603302Y-88607064D01*
X160610516Y-88608499D01*
X160610520Y-88608500D01*
X160714437Y-88608500D01*
X160781476Y-88628185D01*
X160827231Y-88680989D01*
X160828998Y-88685047D01*
X160861563Y-88763665D01*
X160861568Y-88763675D01*
X160960988Y-88912467D01*
X160960991Y-88912471D01*
X161087528Y-89039008D01*
X161087532Y-89039011D01*
X161236324Y-89138431D01*
X161236328Y-89138433D01*
X161236331Y-89138435D01*
X161401667Y-89206920D01*
X161558848Y-89238185D01*
X161577183Y-89241832D01*
X161577187Y-89241833D01*
X161681103Y-89241833D01*
X161748142Y-89261518D01*
X161793897Y-89314322D01*
X161795664Y-89318380D01*
X161828229Y-89396999D01*
X161828234Y-89397009D01*
X161927654Y-89545801D01*
X161927657Y-89545805D01*
X162054194Y-89672342D01*
X162054198Y-89672345D01*
X162202990Y-89771765D01*
X162202994Y-89771767D01*
X162202997Y-89771769D01*
X162368333Y-89840254D01*
X162536635Y-89873731D01*
X162543849Y-89875166D01*
X162543853Y-89875167D01*
X162647770Y-89875167D01*
X162714809Y-89894852D01*
X162760564Y-89947656D01*
X162762331Y-89951714D01*
X162794896Y-90030332D01*
X162794901Y-90030342D01*
X162894321Y-90179134D01*
X162894324Y-90179138D01*
X163020861Y-90305675D01*
X163020865Y-90305678D01*
X163169657Y-90405098D01*
X163169661Y-90405100D01*
X163169664Y-90405102D01*
X163335000Y-90473587D01*
X163479301Y-90502290D01*
X163510516Y-90508499D01*
X163510520Y-90508500D01*
X163614437Y-90508500D01*
X163681476Y-90528185D01*
X163727231Y-90580989D01*
X163728998Y-90585047D01*
X163761563Y-90663665D01*
X163761568Y-90663675D01*
X163860988Y-90812467D01*
X163860991Y-90812471D01*
X163987528Y-90939008D01*
X163987532Y-90939011D01*
X164136324Y-91038431D01*
X164136328Y-91038433D01*
X164136331Y-91038435D01*
X164301667Y-91106920D01*
X164469969Y-91140397D01*
X164477183Y-91141832D01*
X164477187Y-91141833D01*
X164581103Y-91141833D01*
X164648142Y-91161518D01*
X164693897Y-91214322D01*
X164695664Y-91218380D01*
X164728229Y-91296999D01*
X164728234Y-91297009D01*
X164827654Y-91445801D01*
X164827657Y-91445805D01*
X164954194Y-91572342D01*
X164954198Y-91572345D01*
X165102990Y-91671765D01*
X165102994Y-91671767D01*
X165102997Y-91671769D01*
X165268333Y-91740254D01*
X165436635Y-91773731D01*
X165443849Y-91775166D01*
X165443853Y-91775167D01*
X165547770Y-91775167D01*
X165614809Y-91794852D01*
X165660564Y-91847656D01*
X165662331Y-91851714D01*
X165694896Y-91930332D01*
X165694901Y-91930342D01*
X165794321Y-92079134D01*
X165794324Y-92079138D01*
X165920861Y-92205675D01*
X165920865Y-92205678D01*
X166069657Y-92305098D01*
X166069661Y-92305100D01*
X166069664Y-92305102D01*
X166235000Y-92373587D01*
X166260097Y-92378579D01*
X166322007Y-92410962D01*
X166356582Y-92471677D01*
X166352843Y-92541447D01*
X166323587Y-92587877D01*
X163446784Y-95464681D01*
X163385461Y-95498166D01*
X163359103Y-95501000D01*
X162997087Y-95501000D01*
X162930048Y-95481315D01*
X162884293Y-95428511D01*
X162874349Y-95359353D01*
X162896769Y-95304115D01*
X162929909Y-95258500D01*
X162934924Y-95251598D01*
X163028429Y-95068085D01*
X163092075Y-94872203D01*
X163124295Y-94668776D01*
X163124295Y-94462814D01*
X163107442Y-94356408D01*
X163092075Y-94259386D01*
X163062250Y-94167596D01*
X163028429Y-94063505D01*
X163028427Y-94063502D01*
X163028427Y-94063500D01*
X162969076Y-93947019D01*
X162934924Y-93879992D01*
X162912909Y-93849691D01*
X162813868Y-93713371D01*
X162813864Y-93713366D01*
X162668223Y-93567725D01*
X162668218Y-93567721D01*
X162501601Y-93446668D01*
X162501600Y-93446667D01*
X162501598Y-93446666D01*
X162444291Y-93417466D01*
X162318089Y-93353162D01*
X162122203Y-93289514D01*
X161946589Y-93261700D01*
X161918776Y-93257295D01*
X161712814Y-93257295D01*
X161688345Y-93261170D01*
X161509386Y-93289514D01*
X161313500Y-93353162D01*
X161129988Y-93446668D01*
X160963371Y-93567721D01*
X160963366Y-93567725D01*
X160817725Y-93713366D01*
X160817721Y-93713371D01*
X160696668Y-93879988D01*
X160603162Y-94063500D01*
X160539514Y-94259386D01*
X160507295Y-94462814D01*
X160507295Y-94668775D01*
X160539514Y-94872203D01*
X160603162Y-95068089D01*
X160696668Y-95251601D01*
X160734821Y-95304115D01*
X160758301Y-95369921D01*
X160742475Y-95437975D01*
X160692370Y-95486670D01*
X160634503Y-95501000D01*
X158240897Y-95501000D01*
X158173858Y-95481315D01*
X158153216Y-95464681D01*
X151237443Y-88548908D01*
X151203958Y-88487585D01*
X151203507Y-88485418D01*
X151182716Y-88380894D01*
X151173587Y-88335000D01*
X151105102Y-88169664D01*
X151105100Y-88169661D01*
X151105098Y-88169657D01*
X151005678Y-88020865D01*
X151005675Y-88020861D01*
X150879138Y-87894324D01*
X150879134Y-87894321D01*
X150730342Y-87794901D01*
X150730332Y-87794896D01*
X150565000Y-87726413D01*
X150564992Y-87726411D01*
X150389483Y-87691500D01*
X150389479Y-87691500D01*
X150210521Y-87691500D01*
X150210516Y-87691500D01*
X150035007Y-87726411D01*
X150034999Y-87726413D01*
X149869667Y-87794896D01*
X149869657Y-87794901D01*
X149720865Y-87894321D01*
X149720861Y-87894324D01*
X149594324Y-88020861D01*
X149594321Y-88020865D01*
X149494901Y-88169657D01*
X149494896Y-88169667D01*
X149426413Y-88334999D01*
X149426411Y-88335007D01*
X149391500Y-88510516D01*
X149391500Y-88689483D01*
X149426411Y-88864992D01*
X149426413Y-88865000D01*
X149494896Y-89030332D01*
X149494901Y-89030342D01*
X149594321Y-89179134D01*
X149594324Y-89179138D01*
X149720861Y-89305675D01*
X149720865Y-89305678D01*
X149869657Y-89405098D01*
X149869661Y-89405100D01*
X149869664Y-89405102D01*
X150035000Y-89473587D01*
X150077603Y-89482061D01*
X150137033Y-89493883D01*
X150198944Y-89526268D01*
X150233518Y-89586983D01*
X150229779Y-89656753D01*
X150188913Y-89713425D01*
X150123894Y-89739006D01*
X150112842Y-89739500D01*
X147500675Y-89739500D01*
X147433636Y-89719815D01*
X147412993Y-89703180D01*
X147379138Y-89669324D01*
X147379134Y-89669321D01*
X147230342Y-89569901D01*
X147230332Y-89569896D01*
X147065000Y-89501413D01*
X147064992Y-89501411D01*
X146889483Y-89466500D01*
X146889479Y-89466500D01*
X146710521Y-89466500D01*
X146710516Y-89466500D01*
X146535007Y-89501411D01*
X146534999Y-89501413D01*
X146369667Y-89569896D01*
X146369657Y-89569901D01*
X146220865Y-89669321D01*
X146220861Y-89669324D01*
X146094324Y-89795861D01*
X146094321Y-89795865D01*
X145994901Y-89944657D01*
X145994896Y-89944667D01*
X145926413Y-90109999D01*
X145926411Y-90110007D01*
X145891500Y-90285516D01*
X145891500Y-90464483D01*
X145926411Y-90639992D01*
X145926413Y-90640000D01*
X145994896Y-90805332D01*
X145994901Y-90805342D01*
X146094321Y-90954134D01*
X146094324Y-90954138D01*
X146220861Y-91080675D01*
X146220865Y-91080678D01*
X146369657Y-91180098D01*
X146369661Y-91180100D01*
X146369664Y-91180102D01*
X146535000Y-91248587D01*
X146710516Y-91283499D01*
X146710520Y-91283500D01*
X146710521Y-91283500D01*
X146889480Y-91283500D01*
X146889481Y-91283499D01*
X147065000Y-91248587D01*
X147230336Y-91180102D01*
X147379135Y-91080678D01*
X147412993Y-91046820D01*
X147474315Y-91013334D01*
X147500675Y-91010500D01*
X149810405Y-91010500D01*
X149877444Y-91030185D01*
X149898086Y-91046819D01*
X156924888Y-98073622D01*
X156924892Y-98073625D01*
X157028971Y-98143169D01*
X157028984Y-98143176D01*
X157121167Y-98181359D01*
X157144631Y-98191078D01*
X157267404Y-98215499D01*
X157267408Y-98215500D01*
X157267409Y-98215500D01*
X167562592Y-98215500D01*
X167562593Y-98215499D01*
X167685369Y-98191078D01*
X167801022Y-98143173D01*
X167905108Y-98073625D01*
X168135217Y-97843514D01*
X168196536Y-97810032D01*
X168261211Y-97813266D01*
X168352676Y-97842985D01*
X168393591Y-97856280D01*
X168495305Y-97872390D01*
X168597019Y-97888500D01*
X168597020Y-97888500D01*
X168802980Y-97888500D01*
X168802981Y-97888500D01*
X169006408Y-97856280D01*
X169202290Y-97792634D01*
X169385803Y-97699129D01*
X169552430Y-97578068D01*
X169698068Y-97432430D01*
X169819129Y-97265803D01*
X169912634Y-97082290D01*
X169976280Y-96886408D01*
X170008500Y-96682981D01*
X170008500Y-96477019D01*
X169976280Y-96273592D01*
X169912634Y-96077710D01*
X169912632Y-96077707D01*
X169912632Y-96077705D01*
X169863612Y-95981500D01*
X169819129Y-95894197D01*
X169788779Y-95852423D01*
X169698073Y-95727576D01*
X169698069Y-95727571D01*
X169552428Y-95581930D01*
X169552423Y-95581926D01*
X169385806Y-95460873D01*
X169385805Y-95460872D01*
X169385803Y-95460871D01*
X169302106Y-95418225D01*
X169202294Y-95367367D01*
X169006408Y-95303719D01*
X168830794Y-95275905D01*
X168802981Y-95271500D01*
X168597019Y-95271500D01*
X168572550Y-95275375D01*
X168393591Y-95303719D01*
X168197705Y-95367367D01*
X168014193Y-95460873D01*
X167847576Y-95581926D01*
X167847571Y-95581930D01*
X167701930Y-95727571D01*
X167701926Y-95727576D01*
X167580873Y-95894193D01*
X167487367Y-96077705D01*
X167423719Y-96273591D01*
X167391500Y-96477019D01*
X167391500Y-96682986D01*
X167396216Y-96712763D01*
X167395515Y-96718186D01*
X167397427Y-96723313D01*
X167391084Y-96752471D01*
X167387261Y-96782056D01*
X167383430Y-96787658D01*
X167382576Y-96791586D01*
X167361425Y-96819840D01*
X167273087Y-96908180D01*
X167211764Y-96941666D01*
X167185405Y-96944500D01*
X164243398Y-96944500D01*
X164176359Y-96924815D01*
X164130604Y-96872011D01*
X164120660Y-96802853D01*
X164149685Y-96739297D01*
X164155716Y-96732819D01*
X164175772Y-96712763D01*
X164242949Y-96645586D01*
X167257263Y-93631272D01*
X170991500Y-93631272D01*
X170991500Y-93868727D01*
X171028643Y-94103241D01*
X171102019Y-94329067D01*
X171149749Y-94422741D01*
X171209815Y-94540627D01*
X171349380Y-94732722D01*
X171517278Y-94900620D01*
X171709373Y-95040185D01*
X171764130Y-95068085D01*
X171920932Y-95147980D01*
X171920934Y-95147980D01*
X171920937Y-95147982D01*
X172041984Y-95187312D01*
X172146758Y-95221356D01*
X172381273Y-95258500D01*
X172381278Y-95258500D01*
X172618727Y-95258500D01*
X172853241Y-95221356D01*
X173079063Y-95147982D01*
X173290627Y-95040185D01*
X173482722Y-94900620D01*
X173650620Y-94732722D01*
X173790185Y-94540627D01*
X173834729Y-94453205D01*
X173882704Y-94402409D01*
X173945214Y-94385500D01*
X177554786Y-94385500D01*
X177621825Y-94405185D01*
X177665271Y-94453205D01*
X177709815Y-94540627D01*
X177849380Y-94732722D01*
X178017278Y-94900620D01*
X178209373Y-95040185D01*
X178264130Y-95068085D01*
X178420932Y-95147980D01*
X178420934Y-95147980D01*
X178420937Y-95147982D01*
X178541984Y-95187312D01*
X178646758Y-95221356D01*
X178881273Y-95258500D01*
X178881278Y-95258500D01*
X179118727Y-95258500D01*
X179353241Y-95221356D01*
X179579063Y-95147982D01*
X179790627Y-95040185D01*
X179982722Y-94900620D01*
X180150620Y-94732722D01*
X180290185Y-94540627D01*
X180397982Y-94329063D01*
X180471356Y-94103241D01*
X180487403Y-94001926D01*
X180508500Y-93868727D01*
X180508500Y-93631272D01*
X180471356Y-93396758D01*
X180408970Y-93204755D01*
X180397982Y-93170937D01*
X180397980Y-93170934D01*
X180397980Y-93170932D01*
X180312052Y-93002290D01*
X180290185Y-92959373D01*
X180150620Y-92767278D01*
X179982722Y-92599380D01*
X179790627Y-92459815D01*
X179732783Y-92430342D01*
X179579067Y-92352019D01*
X179353241Y-92278643D01*
X179118727Y-92241500D01*
X179118722Y-92241500D01*
X178881278Y-92241500D01*
X178881273Y-92241500D01*
X178646758Y-92278643D01*
X178420932Y-92352019D01*
X178209372Y-92459815D01*
X178017275Y-92599382D01*
X177849382Y-92767275D01*
X177709815Y-92959372D01*
X177665271Y-93046795D01*
X177617296Y-93097591D01*
X177554786Y-93114500D01*
X173945214Y-93114500D01*
X173878175Y-93094815D01*
X173834729Y-93046795D01*
X173812052Y-93002290D01*
X173790185Y-92959373D01*
X173650620Y-92767278D01*
X173482722Y-92599380D01*
X173290627Y-92459815D01*
X173232783Y-92430342D01*
X173079067Y-92352019D01*
X172853241Y-92278643D01*
X172618727Y-92241500D01*
X172618722Y-92241500D01*
X172381278Y-92241500D01*
X172381273Y-92241500D01*
X172146758Y-92278643D01*
X171920932Y-92352019D01*
X171709372Y-92459815D01*
X171517275Y-92599382D01*
X171349382Y-92767275D01*
X171209815Y-92959372D01*
X171102019Y-93170932D01*
X171028643Y-93396758D01*
X170991500Y-93631272D01*
X167257263Y-93631272D01*
X169042948Y-91845587D01*
X169053364Y-91829999D01*
X169063635Y-91814629D01*
X169119442Y-91731107D01*
X169119442Y-91731106D01*
X169119446Y-91731101D01*
X169172138Y-91603891D01*
X169172138Y-91603888D01*
X169172140Y-91603884D01*
X169177374Y-91577571D01*
X169198999Y-91468850D01*
X169199000Y-91468847D01*
X169199000Y-89131947D01*
X171000000Y-89131947D01*
X171000000Y-89368052D01*
X171036934Y-89601247D01*
X171109897Y-89825802D01*
X171217087Y-90036174D01*
X171277338Y-90119104D01*
X171277340Y-90119105D01*
X171976212Y-89420233D01*
X171987482Y-89462292D01*
X172059890Y-89587708D01*
X172162292Y-89690110D01*
X172287708Y-89762518D01*
X172329765Y-89773787D01*
X171630893Y-90472658D01*
X171713828Y-90532914D01*
X171924197Y-90640102D01*
X172148752Y-90713065D01*
X172148751Y-90713065D01*
X172381948Y-90750000D01*
X172618052Y-90750000D01*
X172851247Y-90713065D01*
X173075802Y-90640102D01*
X173286163Y-90532918D01*
X173286169Y-90532914D01*
X173369104Y-90472658D01*
X173369105Y-90472658D01*
X172670233Y-89773787D01*
X172712292Y-89762518D01*
X172837708Y-89690110D01*
X172940110Y-89587708D01*
X173012518Y-89462292D01*
X173023787Y-89420234D01*
X173722658Y-90119105D01*
X173722658Y-90119104D01*
X173782914Y-90036169D01*
X173782918Y-90036163D01*
X173890102Y-89825802D01*
X173963065Y-89601247D01*
X174000000Y-89368052D01*
X174000000Y-89131947D01*
X177500000Y-89131947D01*
X177500000Y-89368052D01*
X177536934Y-89601247D01*
X177609897Y-89825802D01*
X177717087Y-90036174D01*
X177777338Y-90119104D01*
X177777340Y-90119105D01*
X178476212Y-89420233D01*
X178487482Y-89462292D01*
X178559890Y-89587708D01*
X178662292Y-89690110D01*
X178787708Y-89762518D01*
X178829765Y-89773787D01*
X178130893Y-90472658D01*
X178213828Y-90532914D01*
X178424197Y-90640102D01*
X178648752Y-90713065D01*
X178648751Y-90713065D01*
X178881948Y-90750000D01*
X179118052Y-90750000D01*
X179351247Y-90713065D01*
X179575802Y-90640102D01*
X179786163Y-90532918D01*
X179786169Y-90532914D01*
X179869104Y-90472658D01*
X179869105Y-90472658D01*
X179170233Y-89773787D01*
X179212292Y-89762518D01*
X179337708Y-89690110D01*
X179440110Y-89587708D01*
X179512518Y-89462292D01*
X179523787Y-89420234D01*
X180222658Y-90119105D01*
X180222658Y-90119104D01*
X180282914Y-90036169D01*
X180282918Y-90036163D01*
X180390102Y-89825802D01*
X180463065Y-89601247D01*
X180500000Y-89368052D01*
X180500000Y-89131947D01*
X180463065Y-88898752D01*
X180390102Y-88674197D01*
X180282914Y-88463828D01*
X180222658Y-88380894D01*
X180222658Y-88380893D01*
X179523787Y-89079765D01*
X179512518Y-89037708D01*
X179440110Y-88912292D01*
X179337708Y-88809890D01*
X179212292Y-88737482D01*
X179170234Y-88726212D01*
X179869105Y-88027340D01*
X179869104Y-88027338D01*
X179786174Y-87967087D01*
X179575802Y-87859897D01*
X179351247Y-87786934D01*
X179351248Y-87786934D01*
X179118052Y-87750000D01*
X178881948Y-87750000D01*
X178648752Y-87786934D01*
X178424197Y-87859897D01*
X178213830Y-87967084D01*
X178130894Y-88027340D01*
X178829766Y-88726212D01*
X178787708Y-88737482D01*
X178662292Y-88809890D01*
X178559890Y-88912292D01*
X178487482Y-89037708D01*
X178476212Y-89079766D01*
X177777340Y-88380894D01*
X177717084Y-88463830D01*
X177609897Y-88674197D01*
X177536934Y-88898752D01*
X177500000Y-89131947D01*
X174000000Y-89131947D01*
X173963065Y-88898752D01*
X173890102Y-88674197D01*
X173782914Y-88463828D01*
X173722658Y-88380894D01*
X173722658Y-88380893D01*
X173023787Y-89079765D01*
X173012518Y-89037708D01*
X172940110Y-88912292D01*
X172837708Y-88809890D01*
X172712292Y-88737482D01*
X172670234Y-88726212D01*
X173369105Y-88027340D01*
X173369104Y-88027339D01*
X173286174Y-87967087D01*
X173075802Y-87859897D01*
X172851247Y-87786934D01*
X172851248Y-87786934D01*
X172618052Y-87750000D01*
X172381948Y-87750000D01*
X172148752Y-87786934D01*
X171924197Y-87859897D01*
X171713830Y-87967084D01*
X171630894Y-88027340D01*
X172329766Y-88726212D01*
X172287708Y-88737482D01*
X172162292Y-88809890D01*
X172059890Y-88912292D01*
X171987482Y-89037708D01*
X171976212Y-89079766D01*
X171277340Y-88380894D01*
X171217084Y-88463830D01*
X171109897Y-88674197D01*
X171036934Y-88898752D01*
X171000000Y-89131947D01*
X169199000Y-89131947D01*
X169199000Y-87710297D01*
X169218685Y-87643258D01*
X169266703Y-87599813D01*
X169385803Y-87539129D01*
X169552430Y-87418068D01*
X169698068Y-87272430D01*
X169819129Y-87105803D01*
X169912634Y-86922290D01*
X169976280Y-86726408D01*
X170008500Y-86522981D01*
X170008500Y-86317019D01*
X170007924Y-86313385D01*
X169976280Y-86113591D01*
X169929869Y-85970753D01*
X169912634Y-85917710D01*
X169912632Y-85917707D01*
X169912632Y-85917705D01*
X169869234Y-85832534D01*
X169819129Y-85734197D01*
X169779994Y-85680332D01*
X169698073Y-85567576D01*
X169698069Y-85567571D01*
X169552428Y-85421930D01*
X169552423Y-85421926D01*
X169385806Y-85300873D01*
X169385805Y-85300872D01*
X169385803Y-85300871D01*
X169299295Y-85256792D01*
X169202293Y-85207367D01*
X169202290Y-85207366D01*
X169197796Y-85205905D01*
X169140123Y-85166469D01*
X169112925Y-85102110D01*
X169124840Y-85033263D01*
X169148433Y-85000298D01*
X170451712Y-83697019D01*
X176191500Y-83697019D01*
X176191500Y-83902981D01*
X176192694Y-83910520D01*
X176223719Y-84106408D01*
X176287367Y-84302294D01*
X176328833Y-84383673D01*
X176371422Y-84467259D01*
X176380873Y-84485806D01*
X176501926Y-84652423D01*
X176501930Y-84652428D01*
X176647571Y-84798069D01*
X176647576Y-84798073D01*
X176751515Y-84873588D01*
X176814197Y-84919129D01*
X176931128Y-84978709D01*
X176997705Y-85012632D01*
X176997707Y-85012632D01*
X176997710Y-85012634D01*
X177102707Y-85046749D01*
X177193591Y-85076280D01*
X177252473Y-85085606D01*
X177397019Y-85108500D01*
X177397020Y-85108500D01*
X177602980Y-85108500D01*
X177602981Y-85108500D01*
X177806408Y-85076280D01*
X178002290Y-85012634D01*
X178185803Y-84919129D01*
X178352430Y-84798068D01*
X178498068Y-84652430D01*
X178619129Y-84485803D01*
X178712634Y-84302290D01*
X178776280Y-84106408D01*
X178808500Y-83902981D01*
X178808500Y-83697019D01*
X178776932Y-83497710D01*
X178776280Y-83493591D01*
X178731468Y-83355675D01*
X178712634Y-83297710D01*
X178712632Y-83297707D01*
X178712632Y-83297705D01*
X178642677Y-83160413D01*
X178619129Y-83114197D01*
X178570909Y-83047827D01*
X178498073Y-82947576D01*
X178498069Y-82947571D01*
X178352428Y-82801930D01*
X178352423Y-82801926D01*
X178185806Y-82680873D01*
X178185805Y-82680872D01*
X178185803Y-82680871D01*
X178110698Y-82642603D01*
X178002294Y-82587367D01*
X177806408Y-82523719D01*
X177630794Y-82495905D01*
X177602981Y-82491500D01*
X177397019Y-82491500D01*
X177372550Y-82495375D01*
X177193591Y-82523719D01*
X176997705Y-82587367D01*
X176814193Y-82680873D01*
X176647576Y-82801926D01*
X176647571Y-82801930D01*
X176501930Y-82947571D01*
X176501926Y-82947576D01*
X176380873Y-83114193D01*
X176287367Y-83297705D01*
X176223719Y-83493591D01*
X176194522Y-83677937D01*
X176191500Y-83697019D01*
X170451712Y-83697019D01*
X178653914Y-75494818D01*
X178715237Y-75461333D01*
X178741595Y-75458499D01*
X179453010Y-75458499D01*
X179453020Y-75458499D01*
X179488050Y-75455743D01*
X179637963Y-75412190D01*
X179772335Y-75332722D01*
X179882722Y-75222335D01*
X179962190Y-75087963D01*
X180005743Y-74938050D01*
X180008500Y-74903021D01*
X180008499Y-70796980D01*
X180005743Y-70761950D01*
X179962190Y-70612037D01*
X179888609Y-70487620D01*
X179871427Y-70419897D01*
X179893587Y-70353635D01*
X179948053Y-70309871D01*
X179995342Y-70300500D01*
X181575500Y-70300500D01*
X181642539Y-70320185D01*
G37*
%TD.AperFunction*%
%TA.AperFunction,Conductor*%
G36*
X111090703Y-83703033D02*
G01*
X111112602Y-83727855D01*
X111180020Y-83828753D01*
X111180023Y-83828757D01*
X115831086Y-88479819D01*
X115864571Y-88541142D01*
X115859587Y-88610834D01*
X115817715Y-88666767D01*
X115752251Y-88691184D01*
X115743405Y-88691500D01*
X115647019Y-88691500D01*
X115626064Y-88694819D01*
X115443591Y-88723719D01*
X115247705Y-88787367D01*
X115064193Y-88880873D01*
X114897576Y-89001926D01*
X114897571Y-89001930D01*
X114751930Y-89147571D01*
X114751926Y-89147576D01*
X114630873Y-89314193D01*
X114537367Y-89497705D01*
X114473719Y-89693591D01*
X114449643Y-89845606D01*
X114441500Y-89897019D01*
X114441500Y-90102981D01*
X114443668Y-90116666D01*
X114473719Y-90306408D01*
X114537367Y-90502294D01*
X114630873Y-90685806D01*
X114751926Y-90852423D01*
X114751930Y-90852428D01*
X114897571Y-90998069D01*
X114897576Y-90998073D01*
X115042908Y-91103661D01*
X115064197Y-91119129D01*
X115147390Y-91161518D01*
X115247705Y-91212632D01*
X115247707Y-91212632D01*
X115247710Y-91212634D01*
X115352707Y-91246749D01*
X115443591Y-91276280D01*
X115513592Y-91287367D01*
X115647019Y-91308500D01*
X115647020Y-91308500D01*
X115852980Y-91308500D01*
X115852981Y-91308500D01*
X116056408Y-91276280D01*
X116252290Y-91212634D01*
X116435803Y-91119129D01*
X116602430Y-90998068D01*
X116748068Y-90852430D01*
X116869129Y-90685803D01*
X116962634Y-90502290D01*
X117026280Y-90306408D01*
X117058500Y-90102981D01*
X117058500Y-90006595D01*
X117078185Y-89939556D01*
X117130989Y-89893801D01*
X117200147Y-89883857D01*
X117263703Y-89912882D01*
X117270181Y-89918914D01*
X122477586Y-95126319D01*
X122511071Y-95187642D01*
X122506087Y-95257334D01*
X122464215Y-95313267D01*
X122398751Y-95337684D01*
X122389905Y-95338000D01*
X118538095Y-95338000D01*
X118471056Y-95318315D01*
X118450414Y-95301681D01*
X117144323Y-93995590D01*
X117110838Y-93934267D01*
X117115822Y-93864575D01*
X117157694Y-93808642D01*
X117223158Y-93784225D01*
X117251399Y-93785435D01*
X117397019Y-93808500D01*
X117397020Y-93808500D01*
X117602980Y-93808500D01*
X117602981Y-93808500D01*
X117806408Y-93776280D01*
X118002290Y-93712634D01*
X118185803Y-93619129D01*
X118352430Y-93498068D01*
X118498068Y-93352430D01*
X118619129Y-93185803D01*
X118712634Y-93002290D01*
X118776280Y-92806408D01*
X118808500Y-92602981D01*
X118808500Y-92397019D01*
X118801373Y-92352019D01*
X118776280Y-92193591D01*
X118713378Y-92000000D01*
X118712634Y-91997710D01*
X118712632Y-91997707D01*
X118712632Y-91997705D01*
X118661667Y-91897682D01*
X118619129Y-91814197D01*
X118590772Y-91775167D01*
X118498073Y-91647576D01*
X118498069Y-91647571D01*
X118352428Y-91501930D01*
X118352423Y-91501926D01*
X118185806Y-91380873D01*
X118185805Y-91380872D01*
X118185803Y-91380871D01*
X118128496Y-91351671D01*
X118002294Y-91287367D01*
X117806408Y-91223719D01*
X117630794Y-91195905D01*
X117602981Y-91191500D01*
X117397019Y-91191500D01*
X117372550Y-91195375D01*
X117193591Y-91223719D01*
X116997705Y-91287367D01*
X116814193Y-91380873D01*
X116647576Y-91501926D01*
X116647571Y-91501930D01*
X116501930Y-91647571D01*
X116501926Y-91647576D01*
X116380873Y-91814193D01*
X116287367Y-91997705D01*
X116223719Y-92193591D01*
X116191500Y-92397019D01*
X116191500Y-92602980D01*
X116214563Y-92748597D01*
X116205608Y-92817891D01*
X116160612Y-92871343D01*
X116093860Y-92891982D01*
X116026547Y-92873257D01*
X116004409Y-92855676D01*
X110921819Y-87773086D01*
X110888334Y-87711763D01*
X110885500Y-87685405D01*
X110885500Y-83796746D01*
X110905185Y-83729707D01*
X110957989Y-83683952D01*
X111027147Y-83674008D01*
X111090703Y-83703033D01*
G37*
%TD.AperFunction*%
%TA.AperFunction,Conductor*%
G36*
X112514349Y-76863528D02*
G01*
X112520827Y-76869560D01*
X113114888Y-77463622D01*
X113114892Y-77463625D01*
X113218971Y-77533169D01*
X113218984Y-77533176D01*
X113292411Y-77563590D01*
X113334631Y-77581078D01*
X113437013Y-77601443D01*
X113457404Y-77605499D01*
X113457408Y-77605500D01*
X113457409Y-77605500D01*
X113582591Y-77605500D01*
X115119405Y-77605500D01*
X115186444Y-77625185D01*
X115207086Y-77641819D01*
X115893586Y-78328319D01*
X115927071Y-78389642D01*
X115922087Y-78459334D01*
X115880215Y-78515267D01*
X115814751Y-78539684D01*
X115805905Y-78540000D01*
X115647683Y-78540000D01*
X115445582Y-78572009D01*
X115250968Y-78635244D01*
X115068644Y-78728143D01*
X115024077Y-78760523D01*
X115024077Y-78760524D01*
X115703554Y-79440000D01*
X115697339Y-79440000D01*
X115595606Y-79467259D01*
X115504394Y-79519920D01*
X115429920Y-79594394D01*
X115377259Y-79685606D01*
X115350000Y-79787339D01*
X115350000Y-79793553D01*
X114670524Y-79114077D01*
X114670523Y-79114077D01*
X114638143Y-79158644D01*
X114545244Y-79340968D01*
X114482009Y-79535582D01*
X114450000Y-79737682D01*
X114450000Y-79942317D01*
X114482009Y-80144417D01*
X114545244Y-80339031D01*
X114638141Y-80521350D01*
X114638147Y-80521359D01*
X114670523Y-80565921D01*
X114670524Y-80565922D01*
X115350000Y-79886446D01*
X115350000Y-79892661D01*
X115377259Y-79994394D01*
X115429920Y-80085606D01*
X115504394Y-80160080D01*
X115595606Y-80212741D01*
X115697339Y-80240000D01*
X115703553Y-80240000D01*
X115024076Y-80919474D01*
X115024234Y-80921480D01*
X115063587Y-80972513D01*
X115069565Y-81042126D01*
X115036959Y-81103921D01*
X114976120Y-81138278D01*
X114948035Y-81141500D01*
X114402675Y-81141500D01*
X114335636Y-81121815D01*
X114314998Y-81105185D01*
X114254135Y-81044322D01*
X114254134Y-81044321D01*
X114254133Y-81044320D01*
X114105342Y-80944901D01*
X114105332Y-80944896D01*
X113940000Y-80876413D01*
X113939992Y-80876411D01*
X113764483Y-80841500D01*
X113764479Y-80841500D01*
X113585521Y-80841500D01*
X113585516Y-80841500D01*
X113410007Y-80876411D01*
X113409999Y-80876413D01*
X113244667Y-80944896D01*
X113244657Y-80944901D01*
X113095865Y-81044321D01*
X113095861Y-81044324D01*
X112969324Y-81170861D01*
X112969321Y-81170865D01*
X112869901Y-81319657D01*
X112869896Y-81319667D01*
X112801413Y-81484999D01*
X112801411Y-81485007D01*
X112766500Y-81660516D01*
X112766500Y-81839483D01*
X112801411Y-82014992D01*
X112801413Y-82015000D01*
X112869896Y-82180332D01*
X112869901Y-82180342D01*
X112969321Y-82329134D01*
X112969324Y-82329138D01*
X113095861Y-82455675D01*
X113095865Y-82455678D01*
X113244657Y-82555098D01*
X113244661Y-82555100D01*
X113244664Y-82555102D01*
X113410000Y-82623587D01*
X113585516Y-82658499D01*
X113585520Y-82658500D01*
X113585521Y-82658500D01*
X113764480Y-82658500D01*
X113764481Y-82658499D01*
X113940000Y-82623587D01*
X114105336Y-82555102D01*
X114254135Y-82455678D01*
X114314995Y-82394817D01*
X114376316Y-82361334D01*
X114402675Y-82358500D01*
X115746589Y-82358500D01*
X115813628Y-82378185D01*
X115834270Y-82394819D01*
X118055181Y-84615730D01*
X118088666Y-84677053D01*
X118091500Y-84703411D01*
X118091500Y-84789483D01*
X118126411Y-84964992D01*
X118126413Y-84965000D01*
X118194896Y-85130332D01*
X118194901Y-85130342D01*
X118290602Y-85273568D01*
X118311480Y-85340246D01*
X118311500Y-85342459D01*
X118311500Y-85765495D01*
X118291815Y-85832534D01*
X118243802Y-85875976D01*
X118234195Y-85880871D01*
X118234193Y-85880872D01*
X118067576Y-86001926D01*
X118067571Y-86001930D01*
X117921930Y-86147571D01*
X117921926Y-86147576D01*
X117800873Y-86314193D01*
X117707367Y-86497705D01*
X117643719Y-86693591D01*
X117616027Y-86868437D01*
X117611500Y-86897019D01*
X117611500Y-87102981D01*
X117614988Y-87125000D01*
X117643719Y-87306408D01*
X117707367Y-87502294D01*
X117726136Y-87539129D01*
X117800668Y-87685405D01*
X117800873Y-87685806D01*
X117921926Y-87852423D01*
X117921930Y-87852428D01*
X118067571Y-87998069D01*
X118067576Y-87998073D01*
X118156384Y-88062595D01*
X118234197Y-88119129D01*
X118333377Y-88169664D01*
X118417705Y-88212632D01*
X118417707Y-88212632D01*
X118417710Y-88212634D01*
X118522707Y-88246749D01*
X118613591Y-88276280D01*
X118715305Y-88292390D01*
X118817019Y-88308500D01*
X118817020Y-88308500D01*
X119022980Y-88308500D01*
X119022981Y-88308500D01*
X119226408Y-88276280D01*
X119422290Y-88212634D01*
X119605803Y-88119129D01*
X119772430Y-87998068D01*
X119918068Y-87852430D01*
X120039129Y-87685803D01*
X120132634Y-87502290D01*
X120196280Y-87306408D01*
X120228500Y-87102981D01*
X120228500Y-86897019D01*
X120219093Y-86837625D01*
X120196280Y-86693591D01*
X120140845Y-86522981D01*
X120132634Y-86497710D01*
X120132632Y-86497707D01*
X120132632Y-86497705D01*
X120072218Y-86379138D01*
X120039129Y-86314197D01*
X120023661Y-86292908D01*
X119918073Y-86147576D01*
X119918069Y-86147571D01*
X119772428Y-86001930D01*
X119772423Y-86001926D01*
X119605806Y-85880872D01*
X119605804Y-85880871D01*
X119596198Y-85875976D01*
X119545405Y-85827998D01*
X119528500Y-85765495D01*
X119528500Y-85505790D01*
X119548185Y-85438751D01*
X119575555Y-85410916D01*
X119574427Y-85409542D01*
X119579131Y-85405680D01*
X119579135Y-85405678D01*
X119705678Y-85279135D01*
X119805102Y-85130336D01*
X119873587Y-84965000D01*
X119908500Y-84789479D01*
X119908500Y-84610521D01*
X119873587Y-84435000D01*
X119805102Y-84269664D01*
X119805100Y-84269661D01*
X119805098Y-84269657D01*
X119705678Y-84120865D01*
X119705675Y-84120861D01*
X119579138Y-83994324D01*
X119579134Y-83994321D01*
X119430342Y-83894901D01*
X119430332Y-83894896D01*
X119265000Y-83826413D01*
X119264992Y-83826411D01*
X119089483Y-83791500D01*
X119089479Y-83791500D01*
X119003411Y-83791500D01*
X118936372Y-83771815D01*
X118915730Y-83755181D01*
X116423629Y-81263080D01*
X116423627Y-81263078D01*
X116423624Y-81263076D01*
X116423620Y-81263073D01*
X116338687Y-81214036D01*
X116290472Y-81163469D01*
X116277250Y-81094862D01*
X116303218Y-81029997D01*
X116344394Y-80996165D01*
X116431346Y-80951861D01*
X116431347Y-80951861D01*
X116475921Y-80919474D01*
X115796447Y-80240000D01*
X115802661Y-80240000D01*
X115904394Y-80212741D01*
X115995606Y-80160080D01*
X116070080Y-80085606D01*
X116122741Y-79994394D01*
X116150000Y-79892661D01*
X116150000Y-79886446D01*
X116829474Y-80565921D01*
X116861859Y-80521349D01*
X116954755Y-80339031D01*
X117017990Y-80144417D01*
X117050000Y-79942317D01*
X117050000Y-79784095D01*
X117069685Y-79717056D01*
X117122489Y-79671301D01*
X117191647Y-79661357D01*
X117255203Y-79690382D01*
X117261681Y-79696414D01*
X123658181Y-86092914D01*
X123691666Y-86154237D01*
X123694500Y-86180595D01*
X123694500Y-89422143D01*
X123718920Y-89544909D01*
X123718923Y-89544921D01*
X123766823Y-89660563D01*
X123766830Y-89660576D01*
X123836374Y-89764655D01*
X123836377Y-89764659D01*
X126181827Y-92110108D01*
X126226113Y-92154394D01*
X126270345Y-92198626D01*
X126374423Y-92268169D01*
X126374436Y-92268176D01*
X126490078Y-92316076D01*
X126490083Y-92316078D01*
X126612856Y-92340499D01*
X126612860Y-92340500D01*
X126612861Y-92340500D01*
X133798676Y-92340500D01*
X133798677Y-92340499D01*
X133921453Y-92316078D01*
X134037106Y-92268173D01*
X134051361Y-92258647D01*
X134118038Y-92237767D01*
X134185419Y-92256249D01*
X134232111Y-92308226D01*
X134238187Y-92323428D01*
X134295244Y-92499031D01*
X134388141Y-92681350D01*
X134388147Y-92681359D01*
X134420523Y-92725921D01*
X134420524Y-92725922D01*
X135100000Y-92046446D01*
X135100000Y-92052661D01*
X135127259Y-92154394D01*
X135179920Y-92245606D01*
X135254394Y-92320080D01*
X135345606Y-92372741D01*
X135447339Y-92400000D01*
X135453553Y-92400000D01*
X134774076Y-93079474D01*
X134818650Y-93111859D01*
X135000968Y-93204755D01*
X135195582Y-93267990D01*
X135397683Y-93300000D01*
X135602317Y-93300000D01*
X135804417Y-93267990D01*
X135999031Y-93204755D01*
X136181349Y-93111859D01*
X136225921Y-93079474D01*
X135546447Y-92400000D01*
X135552661Y-92400000D01*
X135654394Y-92372741D01*
X135745606Y-92320080D01*
X135820080Y-92245606D01*
X135872741Y-92154394D01*
X135900000Y-92052661D01*
X135900000Y-92046447D01*
X136579474Y-92725921D01*
X136611859Y-92681349D01*
X136704755Y-92499031D01*
X136767990Y-92304417D01*
X136800000Y-92102317D01*
X136800000Y-91897682D01*
X136767990Y-91695582D01*
X136704755Y-91500968D01*
X136611859Y-91318650D01*
X136579474Y-91274077D01*
X136579474Y-91274076D01*
X135900000Y-91953551D01*
X135900000Y-91947339D01*
X135872741Y-91845606D01*
X135820080Y-91754394D01*
X135745606Y-91679920D01*
X135654394Y-91627259D01*
X135552661Y-91600000D01*
X135546446Y-91600000D01*
X136225922Y-90920524D01*
X136225921Y-90920523D01*
X136181359Y-90888147D01*
X136181350Y-90888141D01*
X135999031Y-90795244D01*
X135848468Y-90746323D01*
X135790793Y-90706885D01*
X135763595Y-90642526D01*
X135775510Y-90573680D01*
X135799103Y-90540713D01*
X136174999Y-90164819D01*
X136236322Y-90131334D01*
X136262680Y-90128500D01*
X142387324Y-90128500D01*
X142454363Y-90148185D01*
X142500118Y-90200989D01*
X142510062Y-90270147D01*
X142481037Y-90333703D01*
X142475005Y-90340181D01*
X142394324Y-90420861D01*
X142394321Y-90420865D01*
X142294901Y-90569657D01*
X142294896Y-90569667D01*
X142226413Y-90734999D01*
X142226411Y-90735007D01*
X142191500Y-90910516D01*
X142191500Y-90928857D01*
X142171815Y-90995896D01*
X142155181Y-91016538D01*
X138325038Y-94846681D01*
X138263715Y-94880166D01*
X138237357Y-94883000D01*
X133736940Y-94883000D01*
X133669901Y-94863315D01*
X133624146Y-94810511D01*
X133614202Y-94741353D01*
X133626455Y-94702706D01*
X133704754Y-94549034D01*
X133767990Y-94354417D01*
X133800000Y-94152317D01*
X133800000Y-93947682D01*
X133767990Y-93745582D01*
X133704755Y-93550968D01*
X133611859Y-93368650D01*
X133579474Y-93324077D01*
X133579474Y-93324076D01*
X132900000Y-94003551D01*
X132900000Y-93997339D01*
X132872741Y-93895606D01*
X132820080Y-93804394D01*
X132745606Y-93729920D01*
X132654394Y-93677259D01*
X132552661Y-93650000D01*
X132546446Y-93650000D01*
X133225922Y-92970524D01*
X133225921Y-92970523D01*
X133181359Y-92938147D01*
X133181350Y-92938141D01*
X132999031Y-92845244D01*
X132804417Y-92782009D01*
X132602317Y-92750000D01*
X132397683Y-92750000D01*
X132195582Y-92782009D01*
X132000968Y-92845244D01*
X131818644Y-92938143D01*
X131774077Y-92970523D01*
X131774077Y-92970524D01*
X132453554Y-93650000D01*
X132447339Y-93650000D01*
X132345606Y-93677259D01*
X132254394Y-93729920D01*
X132179920Y-93804394D01*
X132127259Y-93895606D01*
X132100000Y-93997339D01*
X132100000Y-94003553D01*
X131420524Y-93324077D01*
X131420523Y-93324077D01*
X131388143Y-93368644D01*
X131295244Y-93550968D01*
X131232009Y-93745582D01*
X131200000Y-93947682D01*
X131200000Y-94152317D01*
X131232009Y-94354417D01*
X131295245Y-94549034D01*
X131373545Y-94702706D01*
X131386441Y-94771375D01*
X131360164Y-94836115D01*
X131303058Y-94876372D01*
X131263060Y-94883000D01*
X128746478Y-94883000D01*
X128679439Y-94863315D01*
X128633684Y-94810511D01*
X128623740Y-94741353D01*
X128635993Y-94702705D01*
X128640637Y-94693592D01*
X128712634Y-94552290D01*
X128776280Y-94356408D01*
X128808500Y-94152981D01*
X128808500Y-93947019D01*
X128776280Y-93743592D01*
X128766220Y-93712632D01*
X128719136Y-93567721D01*
X128712634Y-93547710D01*
X128712632Y-93547707D01*
X128712632Y-93547705D01*
X128661149Y-93446666D01*
X128619129Y-93364197D01*
X128589980Y-93324076D01*
X128498073Y-93197576D01*
X128498069Y-93197571D01*
X128352428Y-93051930D01*
X128352423Y-93051926D01*
X128185806Y-92930873D01*
X128185805Y-92930872D01*
X128185803Y-92930871D01*
X128128496Y-92901671D01*
X128002294Y-92837367D01*
X127806408Y-92773719D01*
X127630794Y-92745905D01*
X127602981Y-92741500D01*
X127397019Y-92741500D01*
X127372550Y-92745375D01*
X127193591Y-92773719D01*
X126997705Y-92837367D01*
X126814193Y-92930873D01*
X126647576Y-93051926D01*
X126647571Y-93051930D01*
X126501930Y-93197571D01*
X126501926Y-93197576D01*
X126380873Y-93364193D01*
X126287367Y-93547705D01*
X126223719Y-93743591D01*
X126191500Y-93947019D01*
X126191500Y-94152980D01*
X126223719Y-94356408D01*
X126287367Y-94552294D01*
X126344452Y-94664327D01*
X126359363Y-94693592D01*
X126364007Y-94702705D01*
X126376903Y-94771374D01*
X126350627Y-94836114D01*
X126293521Y-94876372D01*
X126253522Y-94883000D01*
X124083095Y-94883000D01*
X124016056Y-94863315D01*
X123995414Y-94846681D01*
X123059747Y-93911014D01*
X123026262Y-93849691D01*
X123031246Y-93779999D01*
X123073118Y-93724066D01*
X123109110Y-93705402D01*
X123302290Y-93642634D01*
X123485803Y-93549129D01*
X123652430Y-93428068D01*
X123798068Y-93282430D01*
X123919129Y-93115803D01*
X124012634Y-92932290D01*
X124076280Y-92736408D01*
X124108500Y-92532981D01*
X124108500Y-92327019D01*
X124076280Y-92123592D01*
X124069367Y-92102317D01*
X124012632Y-91927705D01*
X123944939Y-91794852D01*
X123919129Y-91744197D01*
X123866507Y-91671769D01*
X123798073Y-91577576D01*
X123798069Y-91577571D01*
X123652428Y-91431930D01*
X123652423Y-91431926D01*
X123485806Y-91310873D01*
X123485805Y-91310872D01*
X123485803Y-91310871D01*
X123395761Y-91264992D01*
X123302294Y-91217367D01*
X123106408Y-91153719D01*
X122930794Y-91125905D01*
X122902981Y-91121500D01*
X122697019Y-91121500D01*
X122672550Y-91125375D01*
X122493591Y-91153719D01*
X122297705Y-91217367D01*
X122114193Y-91310873D01*
X121947576Y-91431926D01*
X121947571Y-91431930D01*
X121801930Y-91577571D01*
X121801926Y-91577576D01*
X121680873Y-91744193D01*
X121587367Y-91927705D01*
X121524597Y-92120890D01*
X121485159Y-92178565D01*
X121420800Y-92205763D01*
X121351954Y-92193848D01*
X121318985Y-92170252D01*
X112345465Y-83196732D01*
X112311980Y-83135409D01*
X112309146Y-83109051D01*
X112309146Y-76957241D01*
X112328831Y-76890202D01*
X112381635Y-76844447D01*
X112450793Y-76834503D01*
X112514349Y-76863528D01*
G37*
%TD.AperFunction*%
%TA.AperFunction,Conductor*%
G36*
X120799248Y-75412065D02*
G01*
X120799536Y-75412189D01*
X120799537Y-75412190D01*
X120949450Y-75455743D01*
X120984479Y-75458500D01*
X121674403Y-75458499D01*
X121741442Y-75478183D01*
X121762084Y-75494818D01*
X129531887Y-83264622D01*
X129531891Y-83264625D01*
X129635970Y-83334169D01*
X129635983Y-83334176D01*
X129751625Y-83382076D01*
X129751630Y-83382078D01*
X129874403Y-83406499D01*
X129874407Y-83406500D01*
X129874408Y-83406500D01*
X129999590Y-83406500D01*
X131555268Y-83406500D01*
X131622307Y-83426185D01*
X131668062Y-83478989D01*
X131678006Y-83548147D01*
X131673199Y-83568819D01*
X131632009Y-83695582D01*
X131600000Y-83897682D01*
X131600000Y-84102317D01*
X131632009Y-84304417D01*
X131695244Y-84499031D01*
X131788141Y-84681350D01*
X131788147Y-84681359D01*
X131820523Y-84725921D01*
X131820524Y-84725922D01*
X132500000Y-84046446D01*
X132500000Y-84052661D01*
X132527259Y-84154394D01*
X132579920Y-84245606D01*
X132654394Y-84320080D01*
X132745606Y-84372741D01*
X132847339Y-84400000D01*
X132853553Y-84400000D01*
X132174076Y-85079474D01*
X132218650Y-85111859D01*
X132400968Y-85204755D01*
X132595582Y-85267990D01*
X132797683Y-85300000D01*
X133002317Y-85300000D01*
X133204417Y-85267990D01*
X133399031Y-85204755D01*
X133581349Y-85111859D01*
X133625921Y-85079474D01*
X132946447Y-84400000D01*
X132952661Y-84400000D01*
X133054394Y-84372741D01*
X133145606Y-84320080D01*
X133220080Y-84245606D01*
X133272741Y-84154394D01*
X133300000Y-84052661D01*
X133300000Y-84046447D01*
X133979474Y-84725921D01*
X134011859Y-84681349D01*
X134104755Y-84499031D01*
X134167990Y-84304417D01*
X134200000Y-84102317D01*
X134200000Y-83897682D01*
X134167990Y-83695582D01*
X134126801Y-83568819D01*
X134124806Y-83498978D01*
X134160886Y-83439145D01*
X134223586Y-83408316D01*
X134244732Y-83406500D01*
X136094405Y-83406500D01*
X136161444Y-83426185D01*
X136207199Y-83478989D01*
X136217143Y-83548147D01*
X136188118Y-83611703D01*
X136182086Y-83618181D01*
X133472086Y-86328181D01*
X133410763Y-86361666D01*
X133384405Y-86364500D01*
X130298858Y-86364500D01*
X130231819Y-86344815D01*
X130198540Y-86313385D01*
X130078073Y-86147576D01*
X130078069Y-86147571D01*
X129932428Y-86001930D01*
X129932423Y-86001926D01*
X129765806Y-85880873D01*
X129765805Y-85880872D01*
X129765803Y-85880871D01*
X129670937Y-85832534D01*
X129582294Y-85787367D01*
X129386408Y-85723719D01*
X129210794Y-85695905D01*
X129182981Y-85691500D01*
X128977019Y-85691500D01*
X128952550Y-85695375D01*
X128773591Y-85723719D01*
X128577705Y-85787367D01*
X128394193Y-85880873D01*
X128227576Y-86001926D01*
X128227571Y-86001930D01*
X128081930Y-86147571D01*
X128081926Y-86147576D01*
X127960871Y-86314195D01*
X127949521Y-86336471D01*
X127901546Y-86387267D01*
X127833725Y-86404061D01*
X127767590Y-86381523D01*
X127751356Y-86367856D01*
X125280519Y-83897019D01*
X126591500Y-83897019D01*
X126591500Y-84102981D01*
X126594332Y-84120861D01*
X126623719Y-84306408D01*
X126687367Y-84502294D01*
X126742510Y-84610516D01*
X126778602Y-84681350D01*
X126780873Y-84685806D01*
X126901926Y-84852423D01*
X126901930Y-84852428D01*
X127047571Y-84998069D01*
X127047576Y-84998073D01*
X127155220Y-85076280D01*
X127214197Y-85119129D01*
X127307107Y-85166469D01*
X127397705Y-85212632D01*
X127397707Y-85212632D01*
X127397710Y-85212634D01*
X127481934Y-85240000D01*
X127593591Y-85276280D01*
X127695305Y-85292390D01*
X127797019Y-85308500D01*
X127797020Y-85308500D01*
X128002980Y-85308500D01*
X128002981Y-85308500D01*
X128206408Y-85276280D01*
X128402290Y-85212634D01*
X128585803Y-85119129D01*
X128752430Y-84998068D01*
X128898068Y-84852430D01*
X129019129Y-84685803D01*
X129112634Y-84502290D01*
X129176280Y-84306408D01*
X129208500Y-84102981D01*
X129208500Y-83897019D01*
X129191787Y-83791500D01*
X129176280Y-83693591D01*
X129142127Y-83588479D01*
X129112634Y-83497710D01*
X129112632Y-83497707D01*
X129112632Y-83497705D01*
X129071870Y-83417706D01*
X129019129Y-83314197D01*
X128966738Y-83242086D01*
X128898073Y-83147576D01*
X128898069Y-83147571D01*
X128752428Y-83001930D01*
X128752423Y-83001926D01*
X128585806Y-82880873D01*
X128585805Y-82880872D01*
X128585803Y-82880871D01*
X128528496Y-82851671D01*
X128402294Y-82787367D01*
X128206408Y-82723719D01*
X128030794Y-82695905D01*
X128002981Y-82691500D01*
X127797019Y-82691500D01*
X127772550Y-82695375D01*
X127593591Y-82723719D01*
X127397705Y-82787367D01*
X127214193Y-82880873D01*
X127047576Y-83001926D01*
X127047571Y-83001930D01*
X126901930Y-83147571D01*
X126901926Y-83147576D01*
X126780873Y-83314193D01*
X126687367Y-83497705D01*
X126623719Y-83693591D01*
X126599643Y-83845606D01*
X126591500Y-83897019D01*
X125280519Y-83897019D01*
X123620338Y-82236838D01*
X123586853Y-82175515D01*
X123591837Y-82105823D01*
X123633709Y-82049890D01*
X123699173Y-82025473D01*
X123727416Y-82026683D01*
X123802019Y-82038500D01*
X123802020Y-82038500D01*
X124007980Y-82038500D01*
X124007981Y-82038500D01*
X124211408Y-82006280D01*
X124407290Y-81942634D01*
X124590803Y-81849129D01*
X124757430Y-81728068D01*
X124903068Y-81582430D01*
X125024129Y-81415803D01*
X125117634Y-81232290D01*
X125181280Y-81036408D01*
X125213500Y-80832981D01*
X125213500Y-80627019D01*
X125194078Y-80504394D01*
X125181280Y-80423591D01*
X125144725Y-80311087D01*
X125117634Y-80227710D01*
X125117632Y-80227707D01*
X125117632Y-80227705D01*
X125075194Y-80144417D01*
X125024129Y-80044197D01*
X124987945Y-79994394D01*
X124903073Y-79877576D01*
X124903069Y-79877571D01*
X124757428Y-79731930D01*
X124757423Y-79731926D01*
X124590806Y-79610873D01*
X124590805Y-79610872D01*
X124590803Y-79610871D01*
X124533496Y-79581671D01*
X124407294Y-79517367D01*
X124211408Y-79453719D01*
X124035794Y-79425905D01*
X124007981Y-79421500D01*
X123802019Y-79421500D01*
X123777550Y-79425375D01*
X123598591Y-79453719D01*
X123402705Y-79517367D01*
X123219193Y-79610873D01*
X123052576Y-79731926D01*
X123052571Y-79731930D01*
X122906930Y-79877571D01*
X122906926Y-79877576D01*
X122785873Y-80044193D01*
X122692367Y-80227705D01*
X122628719Y-80423591D01*
X122601475Y-80595606D01*
X122596500Y-80627019D01*
X122596500Y-80832981D01*
X122607091Y-80899848D01*
X122608316Y-80907583D01*
X122599360Y-80976877D01*
X122554363Y-81030328D01*
X122487611Y-81050967D01*
X122420298Y-81032241D01*
X122398161Y-81014661D01*
X120140569Y-78757069D01*
X120107084Y-78695746D01*
X120104250Y-78669388D01*
X120104250Y-75582499D01*
X120123935Y-75515460D01*
X120176739Y-75469705D01*
X120228250Y-75458499D01*
X120515510Y-75458499D01*
X120515520Y-75458499D01*
X120550550Y-75455743D01*
X120700463Y-75412190D01*
X120700466Y-75412187D01*
X120700752Y-75412065D01*
X120700996Y-75412034D01*
X120707956Y-75410013D01*
X120708282Y-75411135D01*
X120770096Y-75403505D01*
X120799248Y-75412065D01*
G37*
%TD.AperFunction*%
%TA.AperFunction,Conductor*%
G36*
X102571697Y-70320185D02*
G01*
X102617452Y-70372989D01*
X102627396Y-70442147D01*
X102611390Y-70487621D01*
X102537810Y-70612036D01*
X102494257Y-70761950D01*
X102494256Y-70761955D01*
X102491500Y-70796973D01*
X102491500Y-74903009D01*
X102491501Y-74903031D01*
X102494256Y-74938046D01*
X102537810Y-75087963D01*
X102617275Y-75222331D01*
X102617282Y-75222340D01*
X102727659Y-75332717D01*
X102727663Y-75332720D01*
X102727665Y-75332722D01*
X102862037Y-75412190D01*
X103011950Y-75455743D01*
X103046979Y-75458500D01*
X103652154Y-75458499D01*
X103719193Y-75478183D01*
X103739835Y-75494818D01*
X104533336Y-76288319D01*
X104566821Y-76349642D01*
X104561837Y-76419334D01*
X104519965Y-76475267D01*
X104454501Y-76499684D01*
X104445655Y-76500000D01*
X101702155Y-76500000D01*
X101642627Y-76506401D01*
X101642620Y-76506403D01*
X101507913Y-76556645D01*
X101507911Y-76556646D01*
X101498810Y-76563460D01*
X101433345Y-76587876D01*
X101365072Y-76573024D01*
X101315667Y-76523618D01*
X101300500Y-76464192D01*
X101300500Y-70424500D01*
X101320185Y-70357461D01*
X101372989Y-70311706D01*
X101424500Y-70300500D01*
X102504658Y-70300500D01*
X102571697Y-70320185D01*
G37*
%TD.AperFunction*%
M02*
